<?xml version="1.0" standalone="no"?>
<!DOCTYPE svg PUBLIC "-//W3C//DTD SVG 1.1//EN" "http://www.w3.org/Graphics/SVG/1.1/DTD/svg11.dtd" >
<!--
2013-9-30: Created.
-->
<svg>
<metadata>
Created by iconfont
</metadata>
<defs>

<font id="iconfont" horiz-adv-x="1024" >
  <font-face
    font-family="iconfont"
    font-weight="500"
    font-stretch="normal"
    units-per-em="1024"
    ascent="896"
    descent="-128"
  />
    <missing-glyph />
    
    <glyph glyph-name="drag" unicode="&#59059;" d="M941.033244 361.88160000000005c-1.024-3.640889-2.616889-7.145244-5.484089-10.012444l-108.726044-108.452978c-8.897422-8.874667-23.278933-8.874667-32.176356 0s-8.897422 23.233422 0 32.108089l74.9568 74.752L671.288889 350.27626699999996c-12.583822 0-22.755556 10.148978-22.755556 22.687289s10.171733 22.687289 22.755556 22.687289l195.106133 0-74.387911 74.228622c-9.170489 9.124978-9.170489 23.9616 0 33.109333s24.052622 9.147733 33.223111 0l112.2304-111.934578c4.801422-4.778667 6.9632-11.081956 6.735644-17.362489 0.022756-0.273067 0.159289-0.477867 0.159289-0.728178C944.355556 368.86755600000004 942.944711 365.226667 941.033244 361.88160000000005zM609.006933 655.2689780000001L534.755556 729.520356 534.755556 531.911111c0-12.583822-10.171733-22.755556-22.755556-22.755556s-22.755556 10.171733-22.755556 22.755556L489.244444 727.745422l-75.116089-75.116089c-9.170489-9.170489-24.052622-9.170489-33.223111 0-9.147733 9.147733-9.147733 24.052622 0 33.200356l112.253156 112.253156c4.892444 4.892444 11.355022 6.985956 17.726578 6.667378C511.294578 804.772978 511.5904 804.977778 512 804.977778c4.255289 0 8.009956-1.479111 11.400533-3.504356 3.299556-1.069511 6.417067-2.685156 9.033956-5.279289l108.726044-108.726044c8.897422-8.897422 8.897422-23.278933 0-32.176356S617.8816 646.371556 609.006933 655.2689780000001zM352.711111 349.98044400000003L154.0096 349.98044400000003l75.3664-75.1616c8.897422-8.874667 8.897422-23.233422 0-32.108089s-23.278933-8.874667-32.176356 0l-108.726044 108.475733c-3.026489 3.003733-4.619378 6.712889-5.597867 10.581333-0.523378 0.932978-0.887467 1.979733-1.319822 2.980978-0.068267 0.159289-0.159289 0.318578-0.2048 0.455111C80.372622 367.52497800000003 79.644444 369.982578 79.644444 372.69048899999996c0 0.182044 0.113778 0.364089 0.113778 0.523378-0.159289 6.166756 2.048 12.401778 6.781156 17.134933l112.2304 111.934578c9.170489 9.147733 24.052622 9.147733 33.223111 0s9.170489-23.984356 0-33.109333L157.991822 395.377778 352.711111 395.377778c12.583822 0 22.755556-10.148978 22.755556-22.687289S365.294933 349.98044400000003 352.711111 349.98044400000003zM414.833778 115.34791099999995l74.410667-74.410667L489.244444 236.088889c0 12.561067 10.171733 22.755556 22.755556 22.755556s22.755556-10.194489 22.755556-22.755556l0-198.314667 74.9568 74.9568c8.897422 8.897422 23.278933 8.897422 32.176356 0s8.897422-23.278933 0-32.176356l-108.726044-108.726044c-2.8672-2.8672-6.371556-4.460089-10.0352-5.484089C519.7824-35.56693299999995 516.141511-36.977777999999944 512-36.977777999999944c-0.273067 0-0.477867 0.159289-0.750933 0.159289-6.257778-0.227556-12.606578 1.934222-17.385244 6.712889l-112.253156 112.275911c-9.170489 9.147733-9.170489 24.052622 0 33.200356C390.803911 124.541156 405.663289 124.541156 414.833778 115.34791099999995z"  horiz-adv-x="1024" />

    
    <glyph glyph-name="process" unicode="&#59086;" d="M965.426743 354.163614C955.038827 556.394249 811.004092 726.530556 615.449711 771.549827 601.95866 774.65565 588.504235 766.236759 585.398411 752.745707 582.292589 739.254655 590.711479 725.80023 604.20253 722.694407 778.021961 682.678816 906.125274 531.360979 915.359418 351.591821 916.0696 337.766112 927.853267 327.133875 941.678976 327.844055 955.504687 328.554236 966.136924 340.337903 965.426743 354.163614L965.426743 354.163614ZM386.693427 765.047806C195.197668 709.223966 61.059829 533.05174 61.059829 330.591454 61.059829 286.486225 67.378292 243.199108 79.687136 201.705457 83.62428 188.433173 97.575277 180.865549 110.847561 184.802692 124.119844 188.739836 131.68747 202.690833 127.750327 215.963117 116.810772 252.840832 111.193162 291.326477 111.193162 330.591454 111.193162 510.619396 230.48234 667.289878 400.724023 716.917841 414.014746 720.792283 421.648149 734.707399 417.773707 747.998121 413.899266 761.288844 399.984149 768.922248 386.693427 765.047806L386.693427 765.047806ZM196.356828 7.892425C280.412745-74.736506 393.28759-121.894018 513.545299-121.894018 643.321289-121.894018 764.304599-66.930765 849.557581 27.536962 858.832625 37.814519 858.019927 53.665035 847.742372 62.940077 837.464815 72.215121 821.6143 71.402426 812.339255 61.124868 736.494948-22.917229 628.982336-71.760685 513.545299-71.760685 406.569346-71.760685 306.273973-29.858699 231.501677 43.644218 221.62909 53.349199 205.758337 53.213329 196.053355 43.340745 186.348373 33.46816 186.484242 17.597406 196.356828 7.892425L196.356828 7.892425ZM498.280341 610.823932C571.138502 610.823932 630.201709 669.88714 630.201709 742.745299 630.201709 815.603459 571.138502 874.666667 498.280341 874.666667 425.422182 874.666667 366.358974 815.603459 366.358974 742.745299 366.358974 669.88714 425.422182 610.823932 498.280341 610.823932L498.280341 610.823932ZM498.280341 660.957265C453.110059 660.957265 416.492307 697.575015 416.492307 742.745299 416.492307 787.915583 453.110059 824.533333 498.280341 824.533333 543.450626 824.533333 580.068375 787.915583 580.068375 742.745299 580.068375 697.575015 543.450626 660.957265 498.280341 660.957265L498.280341 660.957265ZM131.921367-30.304273C204.779527-30.304273 263.842735 28.758935 263.842735 101.617094 263.842735 174.475253 204.779527 233.538462 131.921367 233.538462 59.063208 233.538462 0 174.475253 0 101.617094 0 28.758935 59.063208-30.304273 131.921367-30.304273L131.921367-30.304273ZM131.921367 19.82906C86.751084 19.82906 50.133333 56.44681 50.133333 101.617094 50.133333 146.787377 86.751084 183.405129 131.921367 183.405129 177.091651 183.405129 213.709402 146.787377 213.709402 101.617094 213.709402 56.44681 177.091651 19.82906 131.921367 19.82906L131.921367 19.82906ZM895.169231 0.225641C968.02739 0.225641 1027.090598 59.288849 1027.090598 132.147008 1027.090598 205.005169 968.02739 264.068375 895.169231 264.068375 822.311072 264.068375 763.247863 205.005169 763.247863 132.147008 763.247863 59.288849 822.311072 0.225641 895.169231 0.225641L895.169231 0.225641ZM895.169231 50.358974C849.998946 50.358974 813.381197 86.976725 813.381197 132.147008 813.381197 177.317293 849.998946 213.935042 895.169231 213.935042 940.339516 213.935042 976.957265 177.317293 976.957265 132.147008 976.957265 86.976725 940.339516 50.358974 895.169231 50.358974L895.169231 50.358974Z"  horiz-adv-x="1028" />

    
    <glyph glyph-name="trade-assurance" unicode="&#59109;" d="M534.374 113.398l0 54.135c23.415 3.419 59.356 14.189 77.924 32.429 18.568 18.193 27.98 43.106 27.98 74.646 0 31.938-8.944 56.64-27.067 74.154-18.123 17.467-46.431 33.108-85.019 46.923-25.475 8.991-42.825 18.146-52.168 27.582-9.296 9.413-14.002 22.033-14.002 37.815 0 16.835 4.472 30.088 13.463 39.664 8.968 9.577 22.782 14.423 41.444 14.423 17.936 0 31.844-6.978 41.725-19.809 9.834-12.784 14.798-30.743 14.798-54.158l65.116 0c0 46.829-11.59 65.795-28.566 87.056-16.905 21.26-28.8 34.7-75.629 39.383l0 60.878-46.829 0 0-60.316c-23.415-3.793-51.255-15.056-69.097-33.787-17.889-18.755-24.281-43.364-24.281-73.85 0-32.101 10.513-57.038 29.104-74.786 18.568-17.748 47.766-33.202 86.353-46.291 23.86-8.429 40.929-17.514 50.599-27.301 9.694-9.787 14.704-22.478 14.704-38.072 0-17.046-5.292-30.322-16.062-39.828-10.771-9.506-26.271-14.26-46.525-14.26-19.013 0-34.63 10.162-46.946 20.862-12.269 10.63-18.38 12.995-18.38 59.824l-65.374 0c0-46.829 7.938-74.388 28.449-94.057 20.535-19.598 54.041-35.988 77.456-39.383l0-53.877 46.829 0zM941.789 717.964l-140.956 42.919c-7.141 2.131-15.852 0.82-21.799-3.582-5.947-4.402-10.513-11.403-10.513-18.825l0-109.955-93.659 0 0 150.697c0 10.724-4.027 20.09-14.447 22.712l-144.094 36.62c-3.746 0.96-6.884 0.96-10.63 0l-143.344-36.62c-10.396-2.622-15.29-11.988-15.29-22.712l0-150.697-93.659 0 0 109.955c0 7.422-3.301 14.423-9.249 18.825-5.971 4.402-13.51 5.69-20.605 3.582l-140.933-42.919c-10.326-3.138-17.116-12.925-16.507-23.719l36.738-649.264c0.539-9.74 7.118-18.123 16.414-21.026l385.99-120.234c2.295-0.702 4.636-1.054 7.001-1.054 2.365 0 4.683 0.351 6.978 1.054l385.967 120.234c9.296 2.903 15.852 11.286 16.39 21.026l2.482 44.23c0.023 0.281 0.164 0.492 0.164 0.773 0 12.925-10.49 23.415-23.415 23.415-12.925 0-23.415-10.49-23.415-23.415l-0.164 0-1.475-26.131-363.512-113.233-363.559 113.233-35.005 614.681 92.886 28.355 0-92.652c0-12.948 10.958-32.546 23.906-32.546l136.039 0c12.925 0 27.372 19.598 27.372 32.546l0 146.716 117.073 30.72 117.073-30.72 0-146.716c0-12.948 16.999-32.546 29.924-32.546l136.062 0c12.948 0 21.331 19.598 21.331 32.546l0 92.652 94.15-28.355-25.639-470.704c0-0.281-0.14-0.492-0.14-0.773 0-12.925 10.49-23.415 23.415-23.415 12.925 0 23.415 10.49 23.415 23.415l0.211 0 27.606 487.188c0.609 10.794-6.228 20.581-16.578 23.719l0 0z"  horiz-adv-x="1024" />

    
    <glyph glyph-name="iconfuzhi" unicode="&#58881;" d="M791.48 458.537h-168.251v168.246h-392.592v-673.017h280.425c0 0 4.248-24.041 31.289-63.421 27.041-39.381 41.494-48.735 41.494-48.735h-409.286c-30.981 0-56.083 25.098-56.083 56.078l0 785.174c0 30.975 25.103 56.089 56.083 56.089h504.76l224.329-224.347c0 0 0-262.76 0-356.393-49.011 61.91-112.168 75.979-112.168 75.979v224.347zM342.81 122.023v56.084h168.251v-56.084h-168.251zM342.81 514.604h168.257v-56.067l-168.257 0v56.067zM679.318 290.269h-336.508v56.101h336.508v-56.101zM735.396 178.107c92.925 0 168.251-75.327 168.251-168.251s-75.327-168.251-168.251-168.251-168.251 75.327-168.251 168.251 75.327 168.251 168.251 168.251zM707.989-112.525l157.312 157.709-41.875 41.396-119.414-119.886-56.833 56.833-36.49-38.752 97.3-97.3z"  horiz-adv-x="1024" />

    
    <glyph glyph-name="gerenzhongxin" unicode="&#59147;" d="M690.366 533.432c0 98.877-79.937 179.049-178.558 179.049-98.599 0-178.515-80.151-178.515-179.049 0-98.834 79.916-178.963 178.515-178.963 98.621 0 178.558 80.151 178.558 178.963M376.141 533.432c0 75.16 60.721 136.073 135.667 136.073 74.989 0 135.667-60.913 135.667-136.073 0-75.117-60.678-136.03-135.667-136.03-74.947 0.021-135.667 60.934-135.667 136.03M197.284 121.076l0-15.548 638.07 0 0 15.548c0 139.784-136.414 285.582-311.026 273.276-10.003-0.704-24.74-9.128-34.658-9.939-8.574-0.746 13.693-8.233 14.396-16.828 9.022 0.789 6.313-13.095 15.505-13.095 150.597 0 263.145-103.078 263.145-224.627l15.441 15.591-285.817 0.043-278.992-1.813 15.527-15.612c0 82.753 75.096 152.708 136.862 191.824 7.252 4.586 8.659 17.66 4.863 22.906-6.846 9.427-19.878 8.702-28.046 6.014-77.293-25.338-165.271-132.575-165.271-227.74M512.32 882.464c-282.767 0-512.021-228.892-512.021-511.211 0-282.468 229.255-511.254 512.021-511.254 117.432 0 228.828 39.606 318.811 111.204 10.792 8.489 12.541 24.229 3.988 34.999-8.617 10.771-24.357 12.541-35.127 3.946-81.174-64.539-181.587-100.242-287.651-100.242-255.211 0-462.028 206.562-462.028 461.367 0 254.763 206.818 461.303 462.028 461.303 255.211 0 462.092-206.562 462.092-461.303 0-87.381-24.335-171.093-69.615-243.651-7.273-11.645-3.668-27.087 8.041-34.359 11.709-7.273 27.108-3.626 34.402 7.977 50.185 80.407 77.143 173.247 77.143 270.055-0.021 282.276-229.297 511.168-512.085 511.168z"  horiz-adv-x="1025" />

    
    <glyph glyph-name="wuliu" unicode="&#58888;" d="M956.959864 518.485856C920.312062 435.505991 868.965812 364.447107 804.199241 307.250974 792.057045 296.558959 779.841111 286.678063 767.600598 277.559126 764.651077 233.439204 747.150584 188.336108 715.418651 143.233012 688.602586 105.08587 651.463198 66.791252 605.081976 29.307752 527.091717-33.639948 450.207529-72.352414 446.987635-73.99923 443.349892-75.842681 439.466356-76.702958 435.58282-76.702958 427.545374-76.702958 419.753722-72.917739 414.813274-66.060102 407.488629-55.859675 408.619279-41.849449 417.467843-32.976305 417.664478-32.779671 441.653918-8.347803 465.299246 33.412503 484.741508 67.823584 507.600297 120.865809 511.655889 184.993317 470.165957 201.240263 420.540261 247.670644 398.271375 269.93953 376.027069 292.208415 329.621268 341.85869 313.398901 383.373202 249.295972 379.34219 196.302906 356.458821 161.916404 336.99198 120.229836 313.39581 95.74881 289.332632 95.503016 289.086839 90.537989 284.17097 83.999883 281.663877 77.437199 281.663877 72.226378 281.663877 66.966398 283.236955 62.443799 286.506008 52.317109 293.830652 48.998898 307.472188 54.578409 318.680369 56.225225 321.900263 94.888533 398.83361 157.811653 476.848447 195.270574 523.303407 233.540612 560.467375 271.663175 587.28344 316.667953 619.039952 361.795629 636.589604 405.890972 639.489966 415.059067 651.779638 424.939964 664.020152 435.58282 676.113189 492.729794 740.928919 563.739519 792.324327 646.670226 828.972129 747.29806 873.411583 865.573863 895.926262 998.351479 895.926262L998.30232 896 1023.864838 896 1023.864838 870.388324C1023.864838 737.536969 1001.374738 619.13827 956.959864 518.485856ZM708.167744 238.551707C650.037596 205.369593 596.577523 188.188632 562.756345 181.970058 559.167761 122.733839 541.937641 71.657962 522.200428 31.323258 592.890621 80.113256 680.540562 154.662407 708.167744 238.551707ZM159.655104 393.819423C199.989808 413.581216 251.090264 430.835915 310.375641 434.473658 316.569636 468.368574 333.775177 521.804067 366.957291 580.007954 282.969673 552.42993 208.420523 464.632513 159.655104 393.819423ZM474.000334 642.169115C380.10724 535.691397 358.870687 425.40388 358.870687 409.525624 358.870687 409.427307 359.091901 398.956506 378.97659 370.690261 392.83934 350.977627 412.601133 327.99594 434.501328 306.071165 456.401524 284.17097 479.358631 264.409177 499.071265 250.521848 527.312931 230.612579 537.783732 230.415945 537.906629 230.415945 553.760305 230.415945 663.949504 251.652498 770.378064 345.59475L770.427223 345.545592C897.772804 457.971511 967.332347 630.026919 972.518589 844.383378 758.285027 839.221715 586.352516 769.539275 474.000334 642.169115ZM691.380052 435.186459C620.886494 435.186459 563.469146 492.628386 563.469146 563.171103 563.469146 633.71382 620.886494 691.155747 691.380052 691.155747 761.873611 691.155747 819.290958 633.71382 819.290958 563.171103 819.290958 492.628386 761.873611 435.186459 691.380052 435.186459ZM691.380052 639.956974C649.054422 639.956974 614.64334 605.496734 614.64334 563.171103 614.64334 520.845473 649.054422 486.385233 691.380052 486.385233 733.681103 486.385233 768.116764 520.845473 768.116764 563.171103 768.116764 605.496734 733.681103 639.956974 691.380052 639.956974ZM248.214481 232.82472C276.112036 232.82472 302.141561 220.83 325.737731 197.282989 362.975438 160.020703 364.302722 122.905894 358.870687 98.32655 341.788043 21.122831 232.827811-54.483231 35.03783-126.45155 32.162047-127.483883 29.212526-128.000049 26.287584-128.000049L26.287584-127.95089C19.626582-127.95089 13.088476-125.34548 8.172607-120.47877 1.167494-113.473657-1.192123-102.953698 2.248985-93.638126 80.976624 122.955053 163.759855 232.82472 248.214481 232.82472ZM234.253413 25.178422C288.844136 62.711081 305.017344 91.714707 308.950039 109.436414 312.882734 127.158121 306.541264 144.093289 289.556937 161.102195 275.743346 174.915786 262.249286 181.625947 248.214481 181.625947L248.263639 181.675106C222.946915 181.675106 193.132171 159.455379 162.06388 117.4247 131.536335 76.106823 100.836734 17.239294 70.604141-58.022657 138.885559-30.518371 193.795813-2.620816 234.253413 25.178422Z"  horiz-adv-x="1024" />

    
    <glyph glyph-name="gongyingshang" unicode="&#58901;" d="M259.098571 108.228189l-101.168144 0c-6.427386 0-11.627828 5.200442-11.627828 11.626805l0 269.774213c0 6.426363 5.200442 11.626805 11.627828 11.626805l101.168144 0c6.423293 0 11.623735-5.200442 11.623735-11.626805l0-269.774213C270.722306 113.428631 265.521864 108.228189 259.098571 108.228189L259.098571 108.228189zM169.559279 131.482823l77.906347 0L247.465626 378.001379l-77.906347 0L169.559279 131.482823 169.559279 131.482823zM169.559279 131.482823M259.098571 95.948515l-101.168144 0c-13.18223 0-23.907503 10.724249-23.907503 23.906479l0 269.774213c0 13.18223 10.724249 23.906479 23.907503 23.906479l101.168144 0c13.180184 0 23.903409-10.724249 23.903409-23.906479l0-269.774213C283.001981 106.672764 272.278755 95.948515 259.098571 95.948515zM181.838953 143.762497l53.346999 0L235.185952 365.721705l-53.346999 0L181.838953 143.762497zM444.552354 535.349033c-52.891627 0-95.930863 43.035142-95.930863 95.930863 0 52.892651 43.040259 95.930863 95.930863 95.930863 52.894697 0 95.931886-43.038212 95.931886-95.930863C540.48424 578.384176 497.447051 535.349033 444.552354 535.349033L444.552354 535.349033zM444.552354 683.493072c-28.789697 0-52.212152-23.422456-52.212152-52.213175 0-28.789697 23.422456-52.212152 52.212152-52.212152 28.79072 0 52.213175 23.422456 52.213175 52.212152C496.765529 660.071639 473.343073 683.493072 444.552354 683.493072L444.552354 683.493072zM444.552354 703.955102M680.612721 366.745011c-52.895721 0-95.930863 43.038212-95.930863 95.930863 0 52.891627 43.035142 95.930863 95.930863 95.930863 52.892651 0 95.930863-43.039235 95.930863-95.930863C776.543583 409.7822 733.505371 366.745011 680.612721 366.745011L680.612721 366.745011zM680.612721 514.887003c-28.792767 0-52.212152-23.422456-52.212152-52.211129 0-28.789697 23.420409-52.213175 52.212152-52.213175 28.789697 0 52.212152 23.423479 52.212152 52.213175C732.825896 491.464547 709.402417 514.887003 680.612721 514.887003L680.612721 514.887003zM680.612721 535.349033M630.023532 175.682487 393.973398 175.682487c-6.42227 0-11.622712 5.200442-11.622712 11.622712 0 6.427386 5.200442 11.627828 11.622712 11.627828l223.397976 0c-8.150634 46.228881-62.997799 72.947406-74.045413 77.899184L427.6985 276.832212c-3.65218 0-7.105838 1.727341-9.29776 4.657067-46.566572 62.077847-141.498688 62.793138-142.454456 62.793138-6.427386 0-11.627828 5.200442-11.627828 11.628852 0 6.427386 5.200442 11.626805 11.627828 11.626805 4.269233 0 103.052051-0.783853 157.420309-67.449181l112.352881 0c1.474584 0 2.942005-0.283456 4.313236-0.831948 3.749394-1.49812 91.617627-37.493939 91.617627-111.951745C641.65136 180.882929 636.450918 175.682487 630.023532 175.682487L630.023532 175.682487zM630.023532 175.682487M630.023532 163.402813 393.973398 163.402813c-13.180184 0-23.902386 10.723226-23.902386 23.902386 0 13.183254 10.723226 23.907503 23.902386 23.907503l206.748784 0c-13.438057 29.235858-48.210002 47.718815-60.090587 53.339836L427.6985 264.552537c-7.490601 0-14.641465 3.581572-19.129686 9.579169-42.540885 56.71163-131.762953 57.865919-132.659369 57.871035-13.146415 0-23.870664 10.725272-23.870664 23.908526 0 13.18223 10.724249 23.906479 23.907503 23.906479 4.324492 0 104.438631-0.778736 163.107845-67.449181l106.666368 0c3.050476 0 6.036483-0.576121 8.875135-1.710968 4.050246-1.61887 99.335403-40.640606 99.335403-123.353422C653.931035 174.125015 643.205762 163.402813 630.023532 163.402813zM512.006651 40.788218l-84.308151 0c-1.245364 0-2.484587 0.204661-3.675716 0.599657-51.090609 17.020652-165.837003 82.452897-170.697707 85.234243-5.575995 3.189645-7.515161 10.289344-4.325515 15.865339 3.166109 5.575995 10.277064 7.538697 15.861246 4.326539 1.159406-0.661056 114.874307-65.513086 164.760484-82.768075l80.245625 0 341.517187 130.107243c-7.014764 16.693194-26.218128 48.967248-69.620637 48.967248l-185.453782 0c-6.427386 0-11.627828 5.200442-11.627828 11.627828 0 6.42841 5.200442 11.628852 11.627828 11.628852l185.457876 0c60.534701 0 88.991824-49.874921 95.578846-76.252685 1.430582-5.712095-1.635243-11.583826-7.131421-13.682627L516.147972 41.549557C514.820744 41.048137 513.425977 40.788218 512.006651 40.788218L512.006651 40.788218zM512.006651 40.788218M512.006651 28.508543l-84.308151 0c-2.553149 0-5.089925 0.411369-7.538697 1.222851-52.586682 17.519002-168.043251 83.434248-172.932608 86.231967-11.443633 6.54609-15.430434 21.180392-8.886391 32.620955 4.214998 7.423063 12.174274 12.054547 20.753673 12.054547 4.160763 0 8.272407-1.100054 11.890818-3.181459 4.578272-2.609431 111.774713-63.572898 160.736844-81.131809l75.886341 0 326.638315 124.438127c-8.775874 14.291494-24.74866 30.075992-52.482305 30.075992l-185.453782 0c-13.183254 0-23.907503 10.724249-23.907503 23.907503s10.724249 23.908526 23.907503 23.908526l185.457876 0c68.124564 0 100.101859-55.963593 107.4932-85.556585 2.935865-11.718903-3.367701-23.815405-14.665001-28.129664L520.520559 30.074202C517.754562 29.030429 514.903631 28.508543 512.006651 28.508543z"  horiz-adv-x="1024" />

    
    <glyph glyph-name="gongyingshang1" unicode="&#59013;" d="M545.011 137.078l-8.698-0.537c-1.86-0.115-3.718-0.24-5.576-0.365-6.393-0.431-12.43-0.838-18.531-0.838-6.101 0-12.138 0.407-18.53 0.838-1.859 0.125-3.718 0.25-5.579 0.365l-8.697 0.537L338.09-104.074c-23.062 25.735-73.507 82.008-123.638 137.801l-3.114 3.466-4.563 0.942c-75.081 15.495-150.083 30.641-184.5 37.568L175.686 337.54l-3.432 6.871c-25.913 51.879-39.052 107.105-39.052 164.146 0 50.363 10.008 99.211 29.745 145.188 19.073 44.43 46.386 84.337 81.178 118.614 34.808 34.291 75.343 61.213 120.479 80.019 46.737 19.473 96.397 29.346 147.601 29.346 51.191 0 100.845-9.873 147.579-29.346 45.136-18.807 85.672-45.729 120.482-80.02 34.797-34.278 62.113-74.186 81.19-118.614 19.741-45.979 29.752-94.827 29.752-145.188 0-56.989-13.141-112.217-39.056-164.151l-3.428-6.869 153.413-261.842c-34.41-6.938-109.414-22.102-184.497-37.56l-4.567-0.94-3.117-3.469c-50.13-55.793-100.575-112.065-123.638-137.801L545.011 137.078zM230.229 67.042c44.969-43.681 92.4-88.703 92.883-89.162l12.956-12.294 103.484 176.615-18.496 4.509c-83.853 20.443-158.848 69.287-211.172 137.534l-12.821 16.723L84.413 108.742l17.546-5.039C102.609 103.517 166.549 85.158 230.229 67.042zM814.522 284.189c-52.274-68.232-127.269-117.075-211.169-137.531l-18.498-4.51 103.487-176.561 12.953 12.292c0.483 0.459 47.915 45.481 92.884 89.162 63.676 18.113 127.611 36.421 128.261 36.606l17.563 5.03L827.343 300.923 814.522 284.189zM512.205 846.538c-184.077 0-333.834-150.033-333.834-334.449 0-184.443 149.757-334.499 333.834-334.499 184.076 0 333.834 150.056 333.834 334.499C846.039 696.505 696.281 846.538 512.205 846.538zM512.205 302.131c-115.687 0-209.805 94.119-209.805 209.805S396.518 721.74 512.205 721.74c56.041 0 108.726-21.818 148.35-61.437 39.63-39.623 61.455-92.314 61.455-148.368C722.01 396.25 627.892 302.131 512.205 302.131zM512.205 686.093c-96.031 0-174.158-78.126-174.158-174.157s78.127-174.157 174.158-174.157c96.03 0 174.156 78.126 174.156 174.157S608.235 686.093 512.205 686.093z"  horiz-adv-x="1025" />

    
    <glyph glyph-name="trade" unicode="&#59224;" d="M1024 384C1024 666.769792 794.769792 896 512 896 229.230208 896 0 666.769792 0 384 0 101.230208 229.230208-128 512-128 625.686419-128 733.786972-90.820171 822.292028-23.295213 832.066406-15.83785 833.944717-1.868762 826.487354 7.905617 819.029988 17.679996 805.0609 19.558308 795.286522 12.100943 714.473916-49.555057 615.842022-83.478261 512-83.478261 253.818886-83.478261 44.521739 125.818886 44.521739 384 44.521739 642.181114 253.818886 851.478261 512 851.478261 770.181114 851.478261 979.478261 642.181114 979.478261 384 979.478261 296.952627 955.670714 213.458976 911.318368 140.798694 904.912864 130.304873 908.227102 116.605263 918.720924 110.199761 929.214746 103.794257 942.914355 107.108495 949.319857 117.602317 997.906701 197.199765 1024 288.709606 1024 384ZM551.801933 52.140096C551.801933 52.140096 551.910146 35.022135 529.538995 35.022135 507.167844 35.022135 503.178743 52.140096 503.178743 52.140096L503.178743 129.060386C414.434338 138.625651 357.575004 180.207362 332.599034 253.806763 332.599034 253.806763 321.314219 279.182716 346.988612 288.579433 372.663008 297.976147 386.403381 274.929952 386.403381 274.929952 407.128124 218.866869 446.052855 188.444469 503.178743 183.661837L503.178743 368.589372C441.270221 383.468674 401.083426 402.864614 382.61715 426.777777 364.150874 450.690942 354.917875 477.260723 354.917875 506.487923 354.917875 583.541449 404.33767 630.304265 503.178743 646.777777L503.178743 712.538647C503.178743 712.538647 508.270528 730.183642 526.337227 730.183642 544.403925 730.183642 551.801933 712.538647 551.801933 712.538647L551.801933 646.777777C630.183966 639.869532 681.596497 604.797419 706.041062 541.560386 706.041062 541.560386 706.041062 521.239281 686.661534 515.780798 667.282005 510.322313 651.838163 524.024154 651.838163 524.024154 637.224565 567.333551 603.879488 590.714959 551.801933 594.169082L551.801933 423.589372C661.536781 403.927439 716.403381 354.507642 716.403381 275.328503 716.403381 241.318671 703.915584 209.767053 678.939614 180.672706 653.963644 151.578357 611.584841 134.374423 551.801933 129.060386L551.801933 52.140096ZM503.178743 594.169082C475.811458 592.043467 453.957811 583.673986 437.61715 569.060386 421.276489 554.446786 413.106281 535.980787 413.106281 513.661837 413.106281 469.821037 443.130135 442.188463 503.178743 430.763285L503.178743 594.169082ZM551.801933 183.661837C584.217553 184.990345 609.525271 193.891221 627.725845 210.364734 645.926419 226.838246 655.026571 246.632734 655.026571 269.748791 655.026571 318.903627 620.618701 348.263236 551.801933 357.828503L551.801933 183.661837Z"  horiz-adv-x="1024" />

    
    <glyph glyph-name="peiejilu" unicode="&#59161;" d="M694.24128-128H329.76384C147.9168-128 0 19.90144 0 201.7536V566.23616C0 748.0832 147.9168 896 329.76384 896h364.47744c181.85216 0 329.76384-147.9168 329.76384-329.76384v-364.47744c0-181.85216-147.9168-329.76384-329.76384-329.76384zM329.76384 843.91424c-153.10336 0-277.6832-124.57984-277.6832-277.6832v-364.47744c0-153.09824 124.57472-277.69344 277.6832-277.69344h364.47744c153.09824 0 277.6832 124.57984 277.6832 277.69344V566.23616c0 153.10336-124.57984 277.6832-277.6832 277.6832H329.76384zM225.94048 269.54752c-52.66432 0-95.35488-43.88864-95.35488-98.04288 0-54.14912 42.69056-98.048 95.35488-98.048s95.36 43.89888 95.36 98.048c-0.00512 54.14912-42.69568 98.04288-95.36 98.04288zM512 563.69152c52.66432 0 95.35488 43.89888 95.35488 98.04288 0 54.14912-42.69056 98.048-95.35488 98.048-52.6592 0-95.34976-43.89888-95.34976-98.048 0-54.14912 42.69056-98.04288 95.34976-98.04288zM374.45632 624.04096c0 22.04672-17.3824 39.92064-38.82496 39.92064-11.74016 0-21.01248-6.35392-29.37856-13.83936-83.49184-64.38912-137.51808-166.9632-137.51808-282.53184 0-6.00576 0.40448-19.16416 0.40448-19.82464 0-21.77024 17.17248-39.424 38.34368-39.424 21.18144 0 38.34368 17.65376 38.34368 39.424 0 2.10432-0.81408 15.25248-0.81408 19.82464 0 90.77248 42.8544 171.2384 108.88704 221.21472 12.18048 7.3216 20.5568 19.98336 20.5568 35.23584z m404.54656-255.66208l-0.01536-0.78336c0-21.66272 17.08032-39.2192 38.13888-39.2192 21.0688 0 38.13888 17.55648 38.13888 39.2192 0 2.39616-0.06656 7.05536-0.06656 7.05536-2.24768 117.47328-60.29824 220.86656-148.03968 283.32544v-0.00512a37.66784 37.66784 0 0 1-25.42592 9.90208c-21.21216 0-38.42048-17.67936-38.42048-39.49568a39.8592 39.8592 0 0 1 13.5424-30.08l-0.0256-0.04096 0.30208-0.2048c2.06336-1.7664 4.30592-3.31264 6.69696-4.61824 69.39136-49.41312 114.89792-131.75296 115.15392-225.0496h0.02048z m-153.36448-252.72832c-6.42048 0-12.30848-1.72032-17.82784-4.36736A259.8912 259.8912 0 0 0 512 93.06624a259.86048 259.86048 0 0 0-99.44064 19.69152 31.872 31.872 0 0 1-2.7648 1.16224c-0.64 0.2816-1.28512 0.54272-1.93024 0.81408l-0.0512-0.13824a37.55008 37.55008 0 0 1-11.02336 1.664c-21.12512 0-38.25664-17.61792-38.25664-39.3472 0-17.98656 11.74016-33.13664 27.76576-37.83168A334.0288 334.0288 0 0 1 512 14.62784a334.1824 334.1824 0 0 1 119.27552 21.9136c18.688 2.816 33.03936 19.34336 33.03936 39.33696 0 21.9648-17.31584 39.77216-38.67648 39.77216z m172.43136 153.89696c-52.66944 0-95.36-43.88864-95.36-98.04288 0-54.14912 42.69056-98.048 95.36-98.048 52.65408 0 95.34464 43.89888 95.34464 98.048 0 54.14912-42.69056 98.04288-95.34464 98.04288zM662.99904 409.9584l-24.92928-22.35392c-19.5584-17.536-106.54208-95.3856-117.62688-105.3184-3.6352-3.25632-7.38816-10.91072-31.8976-15.73888-34.92864-6.90176-107.41248-21.20704-107.41248-21.20704l24.00256 95.92832c5.49376 21.94944 14.73024 25.97376 19.38432 30.15168 10.48576 9.40032 95.44192 85.43232 112.90112 101.08416l27.89888 25.02144c5.79072 5.18144 15.1552 5.18144 20.93568 0l76.74368-68.80256c5.77536-5.18656 5.77536-13.58336 0-18.7648z m-159.93344-105.51808c1.70496 1.33632 2.9952 2.47808 3.8656 3.25632 7.6032 6.81984 59.16672 52.97152 90.11712 80.68096l-15.49824 13.87008-93.91104-84.00384 15.42656-13.80352z m59.69408 114.6112l-93.90592-84.00384 12.5184-11.20256 93.90592 84.00384-12.5184 11.20256z m-130.71872-90.66496c-6.58944-20.27008-15.81056-51.968-15.81056-51.968s34.83648 8.47872 57.55392 14.07488a80.97792 80.97792 0 0 1 14.2848 4.96128l-50.64192 45.30688a70.45632 70.45632 0 0 1-5.38624-12.37504z m18.85696 29.14816c-0.90624-0.80384-2.11968-1.92-3.4816-3.30752l15.17568-13.58848 93.9008 84.01408-15.31392 13.70624c-29.56288-26.47552-83.01056-74.30144-90.28096-80.82432z m124.89216 111.84128l-13.952-12.50816-0.57344-0.512-2.90816-2.61632-4.66432-4.1728 55.87456-49.98144 8.0896 7.2448 13.94688 12.50816-55.81312 50.03776z"  horiz-adv-x="1024" />

    
    <glyph glyph-name="hzk-jx" unicode="&#58904;" d="M956.3 258.4c4.6-4.6 7.2-10.8 7.2-17.4s-2.5-12.7-7.2-17.4l-56.2-56.2c-4.6-4.6-10.8-7.2-17.4-7.2s-12.7 2.5-17.4 7.2l-56.2 56.2c-4.6 4.6-7.2 10.8-7.2 17.4s2.5 12.7 7.2 17.4c4.6 4.6 10.8 7.2 17.4 7.2 6.6 0 12.7-2.5 17.3-7.2l39.4-39.4 21.5 22.5-79.2 78.1-257-258.1 0.7-76.9 78.6 0.8 160.5 161.3c4.6 4.6 10.8 7.2 17.4 7.2s12.7-2.5 17.3-7.2c4.6-4.6 7.2-10.8 7.2-17.4 0-6.6-2.6-12.7-7.2-17.4l-168.5-168.3c-4.7-4.6-10.8-7.2-17.4-7.2h-112.3c-13.5 0-24.6 11-24.6 24.5v111.6c0 6.6 2.6 12.7 7.2 17.4l281.4 281.4c4.6 4.6 10.8 7.2 17.4 7.2s12.7-2.6 17.3-7.2l112.8-112.9zM219.7 226.3c-16 0-29.1-13-29.1-29.1 0-16 13-29 29.1-29h261.7l57.5 58.1h-319.2zM822.7 513.2v67.3c0 2.5-0.6 4.5-1.1 6.6-0.2 0.8-0.5 2.6-1.3 4.4-0.8 1.9-1.9 3.3-2.6 4.3-1.8 2.9-2.7 4-3 4l-1.3 1.4c-1.4 1.3-2.8 2.1-4 2.7-1.1 0.8-2.9 1.9-5.3 2.9-2.1 0.8-3.9 1.1-5.4 1.3-0.8 0.2-2.6 0.7-4.9 0.7h-172.4c-16 0-29-13-29-29.1 0-16 13-29.1 29-29.1h107l-194.9-216.4-172.2 159.5-163.2-181.4c-5.2-5.8-7.8-13.2-7.4-21s3.8-14.9 9.5-20c5.4-4.9 12.3-7.5 19.5-7.5 8.2 0 16.1 3.5 21.6 9.6l123.8 137.6 172.2-159.5 227.3 252.6v-49.6l58.1 58.7zM121.2 37.8v701.5c0 19.2 15.6 34.7 34.7 34.7h701.5c19.2 0 34.7-15.6 34.7-34.7v-244.5l58.1-57.4v301.9c0 51.2-41.6 92.8-92.8 92.8h-701.4c-51.2 0-92.8-41.6-92.8-92.8v-701.5c0-51.2 41.6-92.8 92.8-92.8h208.8v58.1h-208.8c-19.2 0-34.8 15.6-34.8 34.7z"  horiz-adv-x="1024" />

    
    <glyph glyph-name="component" unicode="&#59230;" d="M632.404396 106.807326H330.830769c-16.504029 0-32.257875 6.001465-44.260806 18.004396-12.00293 12.00293-18.754579 27.006593-18.754578 44.260805l0.750183 72.767766c3.000733 13.503297 9.752381 24.756044 19.504762 31.507692 12.753114 9.752381 30.007326 9.752381 48.761904-1.500366l4.501099-2.250549 5.251282-1.500367c15.753846-7.501832 30.757509-6.751648 44.260806-1.500366 6.751648 3.000733 12.753114 6.751648 18.004396 12.00293 5.251282 5.251282 9.002198 11.252747 12.00293 18.004396 3.000733 6.751648 4.501099 13.503297 4.501099 21.755311 0 8.252015-1.500366 15.003663-4.501099 21.755312-3.000733 6.751648-6.751648 12.753114-12.00293 18.004395-6.001465 5.251282-11.252747 9.752381-18.754579 12.002931-13.503297 6.001465-28.50696 6.001465-44.260806-0.750183l-5.251282-2.25055c-5.251282-2.250549-10.502564-5.251282-15.003663-7.501831-6.751648-3.000733-13.503297-4.501099-19.504762-4.501099h-4.501099c-10.502564 0.750183-19.504762 6.751648-25.506227 15.753846-5.251282 7.501832-7.501832 16.504029-8.252014 30.007326v65.265934c0 17.254212 6.751648 32.257875 18.754578 44.260806 12.00293 12.00293 27.756777 18.754579 44.260806 18.754579h57.01392c-3.750916 11.252747-6.001465 24.005861-6.001466 36.758974 0 16.504029 3.000733 32.257875 9.752381 46.511355 6.001465 14.25348 15.003663 27.006593 25.506228 37.509158s23.255678 18.754579 37.509157 25.506227c28.50696 12.753114 63.015385 12.753114 92.272527 0 14.25348-6.001465 27.006593-15.003663 37.509158-25.506227s18.754579-23.255678 25.506227-37.509158c6.001465-14.25348 9.752381-30.007326 9.752381-46.511355 0-12.753114-2.250549-24.756044-6.001465-36.758974h19.504762c17.254212 0 32.257875-6.751648 44.260806-18.754579 12.00293-12.00293 18.004396-27.756777 18.004395-44.260806v-42.010256c26.25641 9.752381 57.013919 9.002198 83.27033-2.25055 14.25348-6.001465 26.25641-14.25348 36.758974-24.756044 10.502564-10.502564 18.754579-23.255678 24.756044-36.758974 6.001465-14.25348 9.002198-29.257143 9.002198-45.010989s-3.000733-31.507692-9.002198-45.761172c-6.001465-13.503297-14.25348-26.25641-24.756044-36.758975-10.502564-10.502564-23.255678-18.754579-36.758974-24.756044-26.25641-11.252747-57.013919-12.00293-83.27033-2.250549v-36.758975c0-17.254212-6.001465-32.257875-18.004395-44.260805-12.753114-11.252747-28.50696-18.004396-45.010989-18.004396zM313.576557 233.588278v-63.765567c0-4.501099 1.500366-8.252015 5.251282-12.002931 3.750916-3.750916 7.501832-5.251282 12.753113-5.251282h300.823444c5.251282 0 8.252015 1.500366 12.00293 5.251282 3.750916 3.750916 5.251282 6.751648 5.251282 12.002931V295.103297l37.509158-32.257876c6.001465-5.251282 13.503297-9.752381 21.755311-12.753113 15.753846-6.751648 35.258608-6.001465 51.762637 0.750183 9.002198 3.750916 16.504029 9.002198 22.505495 15.003663 6.751648 6.751648 12.00293 14.25348 15.753846 22.505494s5.251282 17.254212 5.251282 27.006594c0 9.752381-1.500366 18.754579-5.251282 27.006593-3.750916 9.002198-9.002198 16.504029-15.003663 22.505495-6.751648 6.751648-14.25348 11.252747-22.505495 15.003663-16.504029 6.751648-36.008791 7.501832-51.762637 0.750183-8.252015-3.000733-15.753846-7.501832-21.755311-12.753114l-37.509158-31.507692V466.895238c0 5.251282-1.500366 9.002198-5.251282 12.753114-3.750916 3.750916-6.751648 5.251282-12.00293 5.251282H525.128205l32.257876 37.509157c10.502564 12.753114 15.753846 27.006593 15.753846 44.260806 0 10.502564-2.250549 19.504762-6.001465 28.50696-3.750916 9.002198-9.002198 16.504029-15.753847 23.255677-6.751648 6.751648-14.25348 12.00293-23.255677 15.753847-17.254212 7.501832-38.259341 7.501832-55.513553 0-9.002198-3.750916-16.504029-9.002198-23.255678-15.753847-6.751648-6.751648-12.00293-14.25348-15.753846-23.255677-3.750916-9.002198-6.001465-18.004396-6.001465-28.50696 0-9.002198 1.500366-16.504029 4.501099-24.005861 3.000733-7.501832 6.751648-15.003663 12.00293-21.005128l29.257143-36.758974h-142.534799c-5.251282 0-9.002198-1.500366-12.00293-5.251282-3.750916-3.750916-5.251282-7.501832-5.251282-12.002931v-63.015384c2.250549 1.500366 5.251282 2.250549 7.501831 3.750915 2.250549 0.750183 5.251282 2.250549 9.002198 3.750916 22.505495 10.502564 54.013187 10.502564 78.019048 0 12.00293-5.251282 23.255678-12.753114 32.257875-21.755311 9.002198-9.002198 16.504029-20.254945 21.755312-32.257876 5.251282-12.00293 8.252015-25.506227 8.252014-39.759707s-3.000733-27.756777-8.252014-39.759707c-5.251282-12.00293-12.753114-22.505495-21.755312-31.507692-9.002198-9.002198-20.254945-16.504029-32.257875-21.755311-24.756044-10.502564-53.263004-11.252747-80.269597 1.500366-3.750916 1.500366-8.252015 3.750916-14.25348 6.751648zM1021.749451 382.124542c0 282.068864-228.805861 510.124542-510.124543 510.124542-282.068864 0-510.124542-228.055678-510.124542-510.124542s228.805861-510.124542 510.124542-510.124542c115.528205 0 221.304029 39.759707 307.575092 104.275458 3.750916 3.750916 6.001465 9.002198 6.001465 15.003663 0 12.753114-9.752381 22.505495-22.505494 22.505494-6.751648 0-12.00293-2.250549-16.50403-6.751648-76.518681-56.263736-171.041758-90.021978-273.066666-90.021978-255.062271 0-462.112821 207.050549-462.112821 462.112821S258.063004 841.23663 513.125275 841.23663 975.238095 634.186081 975.238095 379.12381c0-78.019048-18.004396-151.536996-52.51282-216.052748v-0.750183c-0.750183-2.250549-1.500366-4.501099-1.500367-6.751648 0-12.753114 10.502564-22.505495 22.505495-22.505495 9.752381 0 18.004396 6.001465 21.005128 15.003663 35.258608 70.517216 57.013919 150.03663 57.01392 234.057143z"  horiz-adv-x="1024" />

    
    <glyph glyph-name="jixiao" unicode="&#59022;" d="M873.536 841.344h-723.2c-52.736 0-95.68-42.944-95.68-95.68V22.4c0-52.736 42.944-95.744 95.68-95.744h723.2a96 96 0 0 1 95.808 95.744V745.664c0 52.736-42.944 95.68-95.808 95.68z m35.904-818.944c0-19.84-16-35.84-35.904-35.84h-723.2a35.84 35.84 0 0 0-35.84 35.84V745.664c0 19.712 16.064 35.84 35.84 35.84h723.2a35.84 35.84 0 0 0 35.904-35.84V22.4zM807.936 163.584H216.128a30.08 30.08 0 0 1 0-59.968h591.808a29.952 29.952 0 0 1 0 59.968zM836.544 641.984c-0.192 0.896-0.512 2.688-1.344 4.48a20.352 20.352 0 0 1-2.752 4.48c-1.856 3.008-2.752 4.096-3.136 4.096l-1.344 1.408a17.216 17.216 0 0 1-4.032 2.816c-1.28 0.768-3.008 1.984-5.44 2.944a22.144 22.144 0 0 1-5.632 1.344c-0.768 0.192-2.688 0.768-5.056 0.768H630.336a30.016 30.016 0 1 1 0-59.904h110.336l-201.024-223.36-177.536 164.48-168.256-187.008a30.016 30.016 0 0 1 22.272-49.984 29.952 29.952 0 0 1 22.208 9.92l127.616 141.76 177.536-164.416 234.432 260.48V437.12a30.016 30.016 0 0 1 59.904 0l-0.064 198.016c0 2.56-0.64 4.672-1.216 6.848z"  horiz-adv-x="1024" />

    
    <glyph glyph-name="dingdangenzong" unicode="&#58889;" d="M650.262994 830.529893H263.142166c-61.052494 0-110.576421-49.981345-110.576422-111.633497v-669.794839c0-61.651129 49.523927-111.63145 110.576422-111.63145h497.715668c61.052494 0 110.576421 49.981345 110.576422 111.63145V607.266993L650.262994 830.529893z m-7.877411-62.117756l165.873841-167.446664H697.664583c-30.517037 0-55.279001 24.974811-55.279 55.815214V768.412137z m173.751252-719.31058c0-30.840402-24.742521-55.815213-55.279001-55.815213h-497.715668c-30.517037 0-55.279001 24.974811-55.279001 55.815213v669.794839c0 30.81175 24.761963 55.816237 55.279001 55.816237h331.047741c-0.548492-66.838268 0.757247-111.63145 0.757247-111.63145 0-61.651129 49.523927-111.63145 110.594841-111.63145h110.59484v-502.348176zM679.686117 383.74008H399.297149c21.698185 24.902156 82.69849 99.456153 82.69849 151.422712 0 63.221904-51.618635 114.471125-115.308189 114.471124-63.653739 0-115.28977-51.249221-115.28977-114.471124 0-52.859905 63.161528-129.148405 83.85892-152.739707-11.279904-3.584642-19.448958-14.086833-19.448958-26.478048 0-15.340383 12.527314-27.79402 28.005844-27.794019h335.873654c15.47853 0 28.005844 12.453636 28.005844 27.794019-0.001023 15.341407-12.528338 27.795043-28.006867 27.795043zM313.382407 538.821111c0 29.247114 23.859407 52.954049 53.305043 52.954049 29.464055 0 53.375651-23.706935 53.375651-52.954049 0-29.249161-23.911596-52.955072-53.375651-52.955072-29.445636-0.001023-53.305043 23.705911-53.305043 52.955072z m366.30371-321.844125H343.812463c-15.47853 0-28.005844-12.44852-28.005844-27.79095s12.527314-27.796066 28.005844-27.796066h335.873654c15.47853 0 28.005844 12.453636 28.005844 27.796066s-12.527314 27.79095-28.005844 27.79095z"  horiz-adv-x="1024" />

    
    <glyph glyph-name="wuliu1" unicode="&#58945;" d="M398.536348 98.326261V469.036522l323.161043 136.281043v-101.487304c7.769043 1.135304 15.582609 1.914435 23.529739 2.31513 8.169739 0.378435 16.272696 0.356174 24.331131-0.066782v151.440695L392.614957 809.071304 22.26087 672.612174v-423.446261l352.077913-218.312348 184.386782 99.728696a239.059478 239.059478 0 0 0-22.884174 41.984l-137.305043-74.24z m-23.173565 412.827826l-109.901913 57.344L559.794087 690.309565l123.035826-49.485913-307.46713-129.669565z m120.987826 204.666435L210.142609 597.348174l-105.071305 54.828522 286.809044 105.672347 104.470261-42.028521zM70.077217 616.514783l113.485913-59.236174v-112.818087l47.816348-25.978435v113.864348l119.318261-62.285913v-368.261565L70.077217 275.812174V616.514783zM715.686957 359.045565a102.310957 102.310957 0 0 1-60.171131-97.858782 20.48 20.48 0 0 1 20.457739-19.500522c0.356174 0 0.667826 0 1.024 0.044522a20.435478 20.435478 0 0 1 19.456 21.459478 61.128348 61.128348 0 0 0 35.906783 58.434782 20.48 20.48 0 1 1-16.673391 37.420522M960.556522 58.902261l-62.731131 73.460869c1.046261 1.135304 2.203826 2.137043 3.250087 3.250087a193.001739 193.001739 0 0 1 50.086957 140.065392 194.29287 194.29287 0 0 1-203.686957 184.631652c-107.052522-5.275826-189.840696-96.678957-184.609391-203.753739a194.226087 194.226087 0 0 1 298.073043-154.579479l63.309913-74.106434a23.841391 23.841391 0 0 1 33.680696-2.649044c10.017391 8.570435 11.219478 23.641043 2.626783 33.680696m-196.318609 60.883478a146.543304 146.543304 0 0 0-153.6 139.152696 146.765913 146.765913 0 0 0 146.498783 153.800348 146.387478 146.387478 0 0 0 146.253913-139.375305 145.563826 145.563826 0 0 0-37.754435-105.605565 145.430261 145.430261 0 0 0-101.398261-47.972174"  horiz-adv-x="1024" />

    
    <glyph glyph-name="G-peiechakan-" unicode="&#58934;" d="M146.281 357.198c0.924-0.101 1.87-0.147 2.78-0.147 13.498 0 25.077 10.077 26.498 23.621C186.72 486.125 249.17 580.73 342.635 633.761c12.77 7.247 17.175 23.343 9.839 35.956-7.337 12.609-23.633 16.968-36.399 9.725-108.273-61.432-180.626-171.08-193.543-293.305-1.54-14.479 9.106-27.42 23.749-28.939z m0 0z m529.232-300.136c-50.26-28.233-107.607-43.167-165.819-43.167-67.317 0-132.267 19.596-187.808 56.664-12.221 8.147-28.783 4.972-37.03-7.086-8.244-12.039-5.034-28.411 7.153-36.559 64.423-42.971 139.672-65.691 217.687-65.691 67.435 0 133.893 17.305 192.183 50.055 12.802 7.181 17.29 23.264 10.006 35.906-7.27 12.644-23.552 17.077-36.372 9.878z m0 0z m22.011 563.907c83.813-55.938 137.273-144.808 146.676-243.83a336.053 336.053 0 0 0 1.474-31.376c0-14.545 11.942-26.337 26.66-26.337 14.725 0 26.667 11.792 26.667 26.337 0 12.087-0.564 24.29-1.704 36.292-10.897 114.781-72.821 217.771-169.911 282.564-12.206 8.146-28.782 4.977-37.029-7.083-8.249-12.055-5.032-28.43 7.172-36.566h-0.005v-0.001z m0.002 0z m-278.298 93.337c0-24.833 10.367-49.499 28.119-67.051 17.77-17.552 42.759-27.768 67.881-27.768s50.098 10.215 67.865 27.768c17.784 17.552 28.123 42.22 28.123 67.051 0 24.814-10.339 49.484-28.123 67.034-17.766 17.552-42.743 27.776-67.865 27.776-25.12 0-50.114-10.224-67.881-27.776-17.752-17.552-28.119-42.218-28.119-67.034z m0 0zM91.282 179.649c0-24.816 10.349-49.484 28.12-67.035 17.769-17.551 42.743-27.774 67.864-27.774 25.122 0 50.112 10.224 67.881 27.774 17.77 17.554 28.121 42.222 28.121 67.035 0 24.831-10.351 49.498-28.121 67.052-17.77 17.549-42.761 27.775-67.881 27.775-25.121 0-50.094-10.229-67.864-27.775-17.77-17.555-28.12-42.222-28.12-67.052z m0 0z m655.924-2.633c0-24.815 10.332-49.483 28.103-67.033 17.77-17.551 42.744-27.779 67.879-27.779 25.123 0 50.094 10.229 67.866 27.779 17.769 17.55 28.121 42.219 28.121 67.033 0 24.829-10.353 49.496-28.121 67.051-17.772 17.551-42.743 27.777-67.866 27.777-25.138 0-50.111-10.225-67.879-27.777-17.768-17.554-28.103-42.223-28.103-67.051z m0 0z"  horiz-adv-x="1024" />

    
    <glyph glyph-name="jiesuan" unicode="&#58887;" d="M929.51 560.384a451.82 451.82 0 0 1-97.116 144.03A451.845 451.845 0 0 1 512 837.12 451.635 451.635 0 0 1 191.6 704.4a451.236 451.236 0 0 1-97.09-144.016A450.478 450.478 0 0 1 58.88 384c0-61.153 11.996-120.489 35.63-176.379a451.174 451.174 0 0 1 97.09-144.015 451.697 451.697 0 0 1 144.016-97.096A450.534 450.534 0 0 1 512-69.12a451.031 451.031 0 0 1 253.087 77.204 32.394 32.394 0 0 1-36.194 53.673 386.519 386.519 0 0 0-216.888-66.135c-214.154 0-388.377 174.229-388.377 388.378 0 214.154 174.223 388.378 388.377 388.378 214.15 0 388.398-174.224 388.398-388.378 0-82.555-25.559-161.362-73.897-227.932a32.374 32.374 0 0 1 52.378-38.037A449.802 449.802 0 0 1 965.12 384c0 61.169-11.986 120.504-35.61 176.384z m-262.64 42.465a32.445 32.445 0 0 1-45.763 0l-91.54-91.545a32.4 32.4 0 0 1-8.156-31.934h-15.575a32.41 32.41 0 0 1-8.157 31.934l-91.545 91.545a32.445 32.445 0 0 1-45.763 0 32.445 32.445 0 0 1 0-45.762l77.696-77.717h-58.01c-17.797 0-32.368-14.571-32.368-32.374a32.43 32.43 0 0 1 32.369-32.348h97.09v-64.737h-97.09c-17.798 0-32.369-14.577-32.369-32.374 0-17.797 14.571-32.363 32.369-32.363h97.09v-97.09c0-17.803 14.572-32.37 32.369-32.37s32.368 14.572 32.368 32.37v97.09h97.096c17.797 0 32.364 14.571 32.364 32.363 0 17.803-14.572 32.374-32.364 32.374h-97.096v64.737h97.096a32.435 32.435 0 0 1 32.364 32.348c0 17.803-14.572 32.374-32.364 32.374h-49.823l77.717 77.717a32.45 32.45 0 0 1-0.005 45.762z"  horiz-adv-x="1024" />

    
    <glyph glyph-name="jichushezhi" unicode="&#58891;" d="M648.533333-59.733333l-14.628571 24.380952c-19.504762 34.133333-58.514286 58.514286-97.52381 58.514286s-78.019048-24.380952-97.523809-58.514286l-14.628572-24.380952-29.257142 9.752381c-29.257143 9.752381-58.514286 19.504762-87.771429 39.009523l-29.257143 14.628572 14.628572 24.380952c9.752381 34.133333 0 68.266667-24.380953 92.647619s-63.390476 34.133333-97.523809 24.380953l-29.257143-9.752381-14.628572 29.257143c-14.628571 29.257143-29.257143 58.514286-39.009523 87.771428l-9.752381 29.257143 24.380952 14.628571c34.133333 19.504762 58.514286 58.514286 58.514286 97.52381 0 34.133333-24.380952 68.266667-58.514286 82.895238l-19.504762 19.504762 9.752381 29.257143c9.752381 29.257143 19.504762 58.514286 34.133333 87.771428l14.628572 24.380953 29.257143-4.876191c34.133333-9.752381 73.142857 4.87619 97.523809 29.257143 24.380952 29.257143 34.133333 63.390476 24.380953 97.52381l-9.752381 29.257143 29.257142 14.628571c29.257143 14.628571 58.514286 29.257143 87.771429 39.009524l24.380952 4.87619 14.628572-24.380952c19.504762-34.133333 58.514286-58.514286 97.523809-58.514286s78.019048 24.380952 97.52381 58.514286l14.628571 24.380952 29.257143-9.752381c29.257143-9.752381 58.514286-19.504762 87.771429-39.009524l29.257143-14.628571-14.628572-24.380952c-9.752381-34.133333 0-68.266667 24.380953-92.647619 24.380952-29.257143 63.390476-43.885714 97.523809-34.133334l29.257143 4.876191 14.628571-24.380953c14.628571-29.257143 29.257143-58.514286 39.009524-87.771428l9.752381-29.257143-29.257143-14.628571c-34.133333-14.628571-53.638095-48.761905-58.514285-87.771429 0-39.009524 24.380952-68.266667 58.514285-87.771429l29.257143-14.628571-14.628571-29.257143c-9.752381-29.257143-19.504762-58.514286-39.009524-87.771428l-14.628572-24.380953-29.257142 4.876191c-34.133333 9.752381-73.142857-4.87619-97.52381-29.257143-29.257143-29.257143-39.009524-63.390476-24.380952-97.52381l9.752381-29.257143-29.257143-14.628571c-29.257143-14.628571-58.514286-29.257143-87.771429-39.009524l-19.504762-4.87619zM536.380952 96.304762c58.514286 0 112.152381-29.257143 146.285715-73.142857 9.752381 4.87619 14.628571 4.87619 24.380952 9.752381-4.87619 48.761905 9.752381 102.4 48.761905 141.409524 34.133333 39.009524 82.895238 58.514286 136.533333 58.514285 4.87619 9.752381 9.752381 14.628571 9.752381 24.380953-43.885714 29.257143-68.266667 78.019048-73.142857 131.657142 4.87619 53.638095 29.257143 102.4 73.142857 131.657143-4.87619 9.752381-4.87619 19.504762-9.752381 24.380953-53.638095-4.87619-102.4 19.504762-141.409524 58.514285-34.133333 34.133333-53.638095 82.895238-48.761904 136.533334-9.752381 4.87619-14.628571 4.87619-24.380953 9.752381-34.133333-43.885714-87.771429-68.266667-141.409524-73.142857-58.514286 0-112.152381 29.257143-146.285714 73.142857-4.87619 9.752381-14.628571 4.87619-24.380952 0 4.87619-48.761905-9.752381-102.4-48.761905-136.533334-34.133333-39.009524-82.895238-63.390476-136.533333-58.514285-4.87619-9.752381-4.87619-14.628571-9.752381-24.380953 43.885714-34.133333 68.266667-82.895238 73.142857-136.533333 0-58.514286-29.257143-112.152381-73.142857-146.285714 4.87619-9.752381 4.87619-14.628571 9.752381-24.380953 48.761905 4.87619 102.4-9.752381 136.533333-48.761904 39.009524-34.133333 53.638095-87.771429 48.761905-136.533334 9.752381-4.87619 14.628571-4.87619 24.380952-9.752381 39.009524 43.885714 87.771429 68.266667 146.285714 68.266667z m0 82.895238c-117.028571 0-214.552381 97.52381-214.552381 214.552381 0 117.028571 97.52381 214.552381 214.552381 214.552381 117.028571 0 214.552381-97.52381 214.552381-214.552381 0-117.028571-97.52381-214.552381-214.552381-214.552381z m0 355.961905c-78.019048 0-141.409524-63.390476-141.409523-141.409524 0-78.019048 63.390476-141.409524 141.409523-141.409524 78.019048 0 141.409524 63.390476 141.409524 141.409524 0 78.019048-63.390476 141.409524-141.409524 141.409524z"  horiz-adv-x="1072" />

    
    <glyph glyph-name="caigouxunyuan" unicode="&#59016;" d="M282.66496 520.114176s69.784576 213.700608 309.17632 254.119936c0 0-36.704256-52.635648-71.620608-136.523776 0 0-73.399296 7.97184-90.595328-66.688 0-0.052224-78.380032-14.155776-146.960384-50.90816z m148.740096 7.967744s-101.02784-21.39136-165.883904-69.151744c0 0-33.712128-142.084096 47.712256-274.935808 0 0 83.884032-18.352128 168.347648-9.803776 0 0-0.575488 52.740096 33.712128 79.059968 0 0-41.627648 107.060224-31.248384 220.987392 0.052224 0-42.831872 10.380288-52.639744 53.843968z m-84.45952-393.63584s107.163648-165.359616 355.72736-142.655488c0 0-88.288256 83.831808-106.483712 110.779392 0 0-69.203968-17.143808-93.060096 31.823872-0.052224 0.052224-89.444352-13.471744-156.183552 0.052224z m284.111872-6.183936s17.143808 7.392256 23.487488 49.019904c0 0 138.09664 48.392192 223.240192 178.152448 0 0 26.947584-1.836032 45.876224 12.844032 0 0 64.384-59.976704 94.947328-138.355712 0 0-60.0832-171.444224-254.69952-226.496512-0.052224-0.052224-87.556096 56.88832-132.851712 124.83584zM984.2688 599.12192s100.347904-115.079168 55.104512-310.427648c0 0-55.732224 89.807872-83.416064 110.623744 0 0 24.851456 48.180224-3.724288 83.67616 0 0 26.53184 51.852288 32.03584 116.127744z m-423.048192 25.536512s29.412352-23.70048 30.564352-45.351936c0 0 124.468224-7.708672 232.260608-75.444224 0 0 48.183296 39.583744 94.739456 10.16832 0 0 25.63584 47.343616 30.984192 134.324224 0 0-96.31232 126.511104-297.112576 131.019776 0-0.052224-78.380032-106.535936-91.436032-154.71616z m-34.235392-153.092096s57.931776-3.672064 67.735552 64.904192c0 0 114.664448-10.640384 206.10048-64.904192 0 0-22.020096-69.363712 34.656256-103.287808 0 0-57.148416-86.032384-187.328512-147.743744 0 0-25.69216 59.559936-93.064192 48.603136 0.052224 0-27.312128 52.584448-28.099584 202.428416z m0 0"  horiz-adv-x="1310" />

    
    <glyph glyph-name="dingdanguanli" unicode="&#59014;" d="M191.9-4.5c-49.6 0-89.9 38.3-89.9 85.4V698.1c0 47.1 40.3 85.4 89.9 85.4h590.9c49.5 0 89.9-38.3 89.9-85.4v-88.9c0-17.6-14.3-32-32-32-17.6 0-32 14.3-32 32v88.9c0 11.8-11.6 21.5-25.9 21.5H191.9c-14.3 0-26-9.6-26-21.5v-617.2c0-11.8 11.6-21.5 26-21.5h161.4c17.6 0 32-14.3 32-32 0-17.6-14.3-32-32-32H191.9zM445.8-15.5c-2.1 0-4.3 0.2-6.4 0.6-8.4 1.7-15.6 6.6-20.3 13.7-4.7 7.1-6.3 15.7-4.6 24 20.4 99.6 77.2 172.9 157.7 205.2-17.6 12.3-32.8 27.9-44.7 46.1-17.6 27.1-27 58.5-27 90.9 0 92.3 75.1 167.4 167.4 167.4 92.3 0 167.4-75.1 167.4-167.4 0-32.4-9.3-63.8-27-90.9-11.8-18.2-27-33.8-44.6-46.1 79.9-32 136.6-104.6 157.6-203.1 3.6-17.2-7.4-34.2-24.6-37.9h-0.1c-2.1-0.4-4.3-0.6-6.4-0.6-15 0-28.2 10.6-31.4 25.3-22.4 105.1-95.4 170.5-190.7 170.5-96.1 0-169.3-65.9-191-172.1-3-14.9-16.2-25.6-31.3-25.6z m222.1 484c-57.1 0-103.5-46.4-103.5-103.5 0-57 46.4-103.5 103.5-103.5 57 0 103.4 46.4 103.4 103.5 0.1 57.1-46.3 103.5-103.4 103.5zM262.4 283.2c-17.6 0-32 14.3-32 32 0 17.6 14.3 32 32 32H323c17.6 0 32-14.3 32-32 0-17.6-14.3-32-32-32h-60.6z m0 121.2c-17.6 0-32 14.3-32 32 0 17.6 14.3 32 32 32h133.7v-2.6c11.4-4.9 19.4-16.2 19.4-29.4 0-17.6-14.3-32-32-32H262.4z m0 121.3c-17.6 0-32 14.3-32 32 0 17.6 14.3 32 32 32h222.1c17.6 0 32-14.3 32-32 0-17.6-14.3-32-32-32H262.4z"  horiz-adv-x="1024" />

    
    <glyph glyph-name="baojia" unicode="&#58933;" d="M544.656274-123.958721H45.211631a40.863653 40.863653 0 0 0 0 81.727305h499.444643a40.863653 40.863653 0 0 0 0-81.727305zM850.554767-127.999682a55.790237 55.790237 0 0 0-39.524233 16.413567l-1.316718 1.384824-366.637772 402.393468-21.941511-21.714491a118.561348 118.561348 0 0 0 10.794815-58.911766 110.774552 110.774552 0 0 0-31.862298-69.797389c-21.419365-21.419365-51.283884-33.201718-84.13372-33.201718h-0.419988c-37.197275 0.11351-74.269689 15.89142-101.705091 43.349525L47.708854 317.981682C20.239399 345.417084 4.461489 382.489498 4.347979 419.686773c-0.102159 33.020101 11.691545 63.043535 33.201717 84.553707a110.774552 110.774552 0 0 0 69.899548 31.862298 118.527295 118.527295 0 0 0 59.025276-10.896974l209.551081 209.562432a118.549997 118.549997 0 0 0-10.896974 59.025276 110.774552 110.774552 0 0 0 31.862298 69.899548l0.476743 0.476743c21.566928 21.408014 50.625525 32.656869 81.727305 31.782841a119.185653 119.185653 0 0 0 80.864628-35.188146l196.372553-196.372552c45.801344-45.801344 47.163466-118.958633 3.03072-163.091378a110.774552 110.774552 0 0 0-69.797388-31.862298 118.606752 118.606752 0 0 0-58.923117 10.806166l-31.306099-31.589874 403.074529-367.318833 0.66971-0.66971c21.657736-21.657736 21.918809-56.652914 0.567551-77.992821L889.023355-112.153666a54.167042 54.167042 0 0 0-38.468588-15.846016zM443.348469 383.352175h1.657248A63.724596 63.724596 0 0 0 490.171404 362.557116l361.03037-396.15041 74.008616 74.008616-396.15041 361.03037A63.713245 63.713245 0 0 0 508.333027 446.611379a60.512259 60.512259 0 0 0 17.571371 44.552733l57.549644 58.07179c20.238859 20.488581 52.873026 23.837131 77.64094 7.945711 13.416899-8.626771 30.341262-7.684637 40.250698 2.270203 11.850459 11.850459 10.465635 33.269824-3.030721 46.754829l-196.372553 196.372552a37.265381 37.265381 0 0 1-25.199252 11.18075c-4.858234 0.147563-14.109311-0.703763-21.453418-8.04787l-0.363232-0.363232c-9.693766-9.966191-10.522391-26.74299-1.929673-40.057731 16.118441-24.972232 12.996912-56.83453-7.60518-77.42527L213.45637 455.862456c-20.602092-20.602092-52.441687-23.723621-77.425271-7.593829-13.42825 8.660824-30.386666 7.741392-40.307453-2.190745-7.571127-7.571127-9.080812-18.388644-9.080811-26.107334 0-15.641698 7.071682-31.601225 19.296724-43.792214l165.985887-166.088046c12.19099-12.19099 28.150516-19.217268 43.792214-19.296725h0.170266c7.730041 0 18.45675 1.589142 25.971121 9.080812 9.909436 9.909436 10.840219 26.833799 2.270203 40.250698-15.89142 24.779265-12.576924 57.458836 7.94571 77.686344L400.498388 365.780804a60.455504 60.455504 0 0 0 42.850081 17.571371z m-33.440089-123.941729l-0.068106-0.068106z m174.374286 173.85214z m57.663154 58.185301z"  horiz-adv-x="1024" />

    
    <glyph glyph-name="skin" unicode="&#59000;" d="M737.1 692.3L884 542.9l-70.2-71.4c-7.4 3.6-15.6 5.4-24 5.4-30.7 0-55.7-25-55.7-55.8v-345.9H291.9v346c0 30.8-25 55.8-55.7 55.8-8.5 0-16.6-1.9-24-5.4L142 542.9l146.9 149.4h44.6c40-45.1 128.5-65.4 179.5-65.4s139.4 20.3 179.5 65.4h44.6m2.2 50H690c-13.1 0-25.6-5.6-34.1-15.7-25.3-30.2-97.5-49.7-143-49.7s-117.7 19.5-143 49.7c-8.5 10.1-21 15.7-34.1 15.7h-49.3c-12 0-23.5-4.8-32-13.5L90.9 562.3c-10.5-10.7-10.5-28 0-38.7L190.8 422c5.3-5.3 12.2-8 19-8s13.8 2.7 19 8l3.3 3.4c1.2 1.2 2.6 1.7 4 1.7 2.9 0 5.7-2.3 5.7-5.8V67c0-23 18.3-41.7 41-41.7h460.3c22.6 0 41 18.7 41 41.7V421.2c0 3.5 2.8 5.8 5.7 5.8 1.4 0 2.8-0.5 4-1.7l3.3-3.4c5.3-5.3 12.2-8 19-8s13.8 2.7 19 8L935 523.5c10.5 10.7 10.5 28 0 38.7L771.3 728.9c-8.5 8.6-20 13.4-32 13.4zM525 128H389.5c-21.2 0-38.5 17.3-38.5 38.5V434.7c0 9.4 7.6 17 17 17s17-7.6 17-17v-268.2c0-2.5 2-4.5 4.5-4.5H525c9.4 0 17-7.6 17-17s-7.6-17-17-17z"  horiz-adv-x="1024" />

    
    <glyph glyph-name="quality" unicode="&#58909;" d="M743.424 504.832c-16.384 16.384-40.96 16.384-59.392 0l-204.8-206.848-90.112 88.064c-16.384 16.384-40.96 16.384-59.392 0-16.384-16.384-16.384-40.96 0-59.392l118.784-118.784c8.192-8.192 18.432-10.24 30.72-10.24s22.528 2.048 30.72 10.24L747.52 445.44c14.336 16.384 14.336 43.008-4.096 59.392z m0 0M921.6 685.056c-196.608 10.24-337.92 135.168-370.688 188.416C538.624 889.856 524.288 896 512 896c-14.336 0-28.672-6.144-36.864-18.432-32.768-55.296-174.08-178.176-370.688-188.416-22.528 0-40.96-18.432-40.96-40.96-2.048-409.6 145.408-675.84 434.176-772.096 2.048 0 8.192-2.048 14.336-2.048 6.144 0 8.192 0 14.336 2.048C813.056-29.696000000000026 962.56 236.54399999999998 962.56 646.144c0 22.528-18.432 38.912-40.96 38.912zM512-41.98400000000004C276.48 44.03200000000004 151.552 263.168 145.408 607.232 317.44 629.76 446.464 721.92 512 789.504c63.488-69.632 194.56-161.792 366.592-182.272C870.4 261.12 747.52 44.03200000000004 512-41.98400000000004z m0 0"  horiz-adv-x="1024" />

    
    <glyph glyph-name="xunyuan" unicode="&#58890;" d="M784.128 150.976A256 256 0 0 1 835.392 307.20000000000005c0 145.472-117.504 264.32-261.888 264.32S311.616 452.672 311.616 307.20000000000005c0-146.624 117.504-265.408 261.888-265.408 61.888 0 117.504 21.504 162.496 57.856l165.632-168.064 49.984 49.152-167.488 170.24z m-210.624-48.192c-111.232 0-201.856 92.032-201.856 204.416 0 112.32 90.624 204.416 201.856 204.416S775.36 419.584 775.36 307.20000000000005c0-112.32-90.624-204.416-201.856-204.416zM64 766.016h832v-128H64zM62.016 572.8h192v-128h-192z m0-188.8h96v-128h-96z"  horiz-adv-x="1024" />

    
    <glyph glyph-name="xitongguanli" unicode="&#58896;" d="M415.061333 780.629333L367.274667 877.568H27.306667V-59.733333h387.754666v95.573333H96.256V588.117333h775.509333v-124.928h68.266667V780.629333zM975.530667 208.554667h-26.624a31.402667 31.402667 0 0 0-27.989334 20.48l-15.018666 37.546666a30.037333 30.037333 0 0 0 4.778666 34.816l18.432 18.432a21.162667 21.162667 0 0 1 0 30.72l-31.402666 31.402667a21.845333 21.845333 0 0 1-31.402667 0l-18.432-18.432a32.085333 32.085333 0 0 0-34.816-4.778667l-36.864 15.018667a30.72 30.72 0 0 0-20.48 27.989333v26.624a21.845333 21.845333 0 0 1-21.845333 21.845334h-44.373334a21.845333 21.845333 0 0 1-21.845333-21.845334v-26.624a32.085333 32.085333 0 0 0-20.48-27.989333l-36.864-15.018667a32.085333 32.085333 0 0 0-34.816 4.778667l-18.432 18.432a21.845333 21.845333 0 0 1-31.402667 0L494.250667 349.866667a21.162667 21.162667 0 0 1 0-30.72l18.432-18.432a30.037333 30.037333 0 0 0 4.778666-34.816l-15.018666-37.546667a30.037333 30.037333 0 0 0-27.989334-20.48h-26.624a21.845333 21.845333 0 0 1-21.845333-21.845333v-40.96a22.528 22.528 0 0 1 21.845333-21.845334H477.866667a30.037333 30.037333 0 0 0 27.989333-21.162666l15.018667-36.864a30.037333 30.037333 0 0 0-4.778667-34.816l-21.845333-21.845334a21.845333 21.845333 0 0 1 0-31.402666l31.402666-31.402667a23.210667 23.210667 0 0 1 31.402667 0l18.432 18.432a30.037333 30.037333 0 0 0 34.816 4.778667l36.864-14.336a32.085333 32.085333 0 0 0 20.48-28.672v-26.624a22.528 22.528 0 0 1 21.845333-21.845334h44.373334a22.528 22.528 0 0 1 21.845333 21.845334v27.306666a32.768 32.768 0 0 0 20.48 28.672l36.864 14.336a30.037333 30.037333 0 0 0 34.816-4.778666l18.432-18.432a23.210667 23.210667 0 0 1 31.402667 0l31.402666 31.402666a21.845333 21.845333 0 0 1 0 31.402667l-18.432 18.432a30.037333 30.037333 0 0 0-4.778666 34.816l15.018666 36.864a29.354667 29.354667 0 0 0 27.989334 20.48h26.624a21.845333 21.845333 0 0 1 21.162666 21.845333v45.056a21.162667 21.162667 0 0 1-21.162666 21.845334m-156.330667-43.690667a109.909333 109.909333 0 1 0-109.226667 109.226667 109.909333 109.909333 0 0 0 109.226667-109.226667"  horiz-adv-x="1024" />

    
    <glyph glyph-name="arrowBottom" unicode="&#58917;" d="M886.5856 625.8176000000001l-371.4688-411.008L137.408 623.7375999999999c-16.6464 17.6896-43.6992 17.6896-60.3456 0-16.6464-18.7328-16.6464-47.8656 4.16-65.5552l397.472-437.0176c6.2464-6.2464 13.5296-12.4928 16.6528-13.5296 15.6096-7.2832 35.3856-3.1232 50.9888 10.4128l404.7552 442.2208c12.4928 18.7264 12.4928 47.8656-4.1536 66.592-16.6528 17.6896-43.6992 17.6896-60.352-1.0432z m0 0"  horiz-adv-x="1024" />

    
    <glyph glyph-name="search" unicode="&#58913;" d="M953.1-19.399999999999977L710.4 243.39999999999998c47.2 61.3 75.2 138 75.2 221.1 0 200.3-163 363.3-363.3 363.3S59.1 664.9 59.1 464.6s163-363.3 363.3-363.3c93.4 0 178.6 35.4 243 93.5l239.1-259c6.5-7.1 15.4-10.6 24.3-10.6 8 0 16.1 2.9 22.4 8.8 13.4 12.3 14.2 33.1 1.9 46.6zM422.4 167.29999999999995c-163.9 0-297.2 133.3-297.2 297.2s133.3 297.2 297.2 297.2 297.2-133.3 297.2-297.2-133.3-297.2-297.2-297.2z"  horiz-adv-x="1024" />

    
    <glyph glyph-name="qiyeguanli1" unicode="&#58893;" d="M392 408l-177-70v70l177 70zM392 289.7l-177-54.4v70l177 70zM392 181l-177-48.3v70L392 256zM392 57l-177-27v70l177 29.3zM504.6 30c-39 44-62.7 101.9-62.7 165.4 0 92.1 49.9 172.5 124.1 215.7V526.9L420 590l-49.1-20.9v46.8l216 88 17.5 6.9v-276.9h13.5c23.3 7.2 48 11 73.6 11 20.2 0 39.7-2.4 58.5-6.9V710.8l-146 63.1-279.6-119v-105.6l-184-78.3v-376l-15.2-6.5V30H187V432l216 88 17.5 6.9V30h84.1zM880.1 229.5h-36.3c-4 20.6-12.1 39.6-23.4 56.4l25.7 25.7c7.8 7.8 7.8 20.5 0 28.3L832 354c-7.8 7.8-20.5 7.8-28.3 0L778 328.3c-16.8 11.3-35.9 19.4-56.4 23.4V388c0 11-9 20-20 20h-20c-11 0-20-9-20-20v-36.3c-20.6-4-39.6-12.1-56.4-23.4L579.5 354c-7.8 7.8-20.5 7.8-28.3 0l-14.1-14.1c-7.8-7.8-7.8-20.5 0-28.3l25.7-25.7c-11.3-16.8-19.4-35.9-23.4-56.4h-36.3c-11 0-20-9-20-20v-20c0-11 9-20 20-20h36.2c4-20.6 12.1-39.6 23.4-56.4L537 87.4c-7.8-7.8-7.8-20.5 0-28.3l14.1-14.1c7.8-7.8 20.5-7.8 28.3 0l25.7 25.7c16.8-11.3 35.9-19.4 56.4-23.4V11c0-11 9-20 20-20h20c11 0 20 9 20 20v36.3c20.6 4 39.6 12.1 56.4 23.4l25.7-25.7c7.8-7.8 20.5-7.8 28.3 0l14.1 14.1c7.8 7.8 7.8 20.5 0 28.3l-25.7 25.7c11.3 16.8 19.4 35.9 23.4 56.4H880c11 0 20 9 20 20v20c0.1 11-8.9 20-19.9 20z m-103.6-72.6c-9.2-18.3-24.1-33.2-42.4-42.4-4-2-8.3-3.8-12.6-5.2-9.4-3.1-19.5-4.9-30-4.9s-20.6 1.7-30 4.9c-4.4 1.5-8.6 3.2-12.6 5.2-18.3 9.2-33.2 24.1-42.4 42.4-2 4.1-3.8 8.3-5.2 12.6-3.1 9.4-4.9 19.5-4.9 30s1.7 20.6 4.9 30c1.5 4.4 3.2 8.6 5.2 12.6 9.2 18.3 24.1 33.2 42.4 42.4 4 2 8.3 3.8 12.6 5.2 9.4 3.1 19.5 4.9 30 4.9s20.6-1.7 30-4.9c4.4-1.5 8.6-3.2 12.6-5.2 18.3-9.2 33.2-24.1 42.4-42.4 2-4.1 3.8-8.3 5.2-12.6 3.1-9.4 4.9-19.5 4.9-30s-1.7-20.6-4.9-30c-1.4-4.3-3.1-8.6-5.2-12.6z"  horiz-adv-x="1024" />

    
    <glyph glyph-name="arrowLeft" unicode="&#58910;" d="M698.952-34.48900000000003l60.03 59.435-357.181 359.631 360.184 356.603-59.522 59.93000001-420.207-416.04300001z"  horiz-adv-x="1024" />

    
    <glyph glyph-name="duizhangdan" unicode="&#58950;" d="M606.6 743c0-11.7-4.4-22.8-12.1-31.1-7.8-8.2-18.3-12.9-29.3-12.9H414.5c-22.9 0-41.4 19.7-41.4 44v5.7c0 11.7 4.4 22.8 12.1 31.1 7.8 8.2 18.3 12.9 29.3 12.9h150.7c11 0 21.5-4.6 29.3-12.9 7.8-8.2 12.1-19.4 12.1-31.1v-5.7zM332.4 521.5h317.9c15.9 0 28.7 14.2 28.7 31.6 0 17.5-12.9 31.6-28.7 31.6H332.4c-15.9 0-28.7-14.2-28.7-31.6 0-17.5 12.8-31.6 28.7-31.6z m108-327.1c0 4.2 0.1 8.5 0.3 12.7H332.4c-15.9 0-28.7-14.2-28.7-31.6 0-17.5 12.9-31.6 28.7-31.6h112.8c-3.2 16.6-4.8 33.5-4.8 50.5z m93.8 201.2H332.4c-15.9 0-28.7-14.2-28.7-31.6s12.9-31.6 28.7-31.6H479c14.9 24.2 33.6 45.6 55.2 63.2z m162.1 9.5c-112.3 0-203.4-96.6-203.4-215.8 0-119.2 91.1-215.8 203.4-215.8 112.3 0 203.4 96.6 203.4 215.8 0 119.1-91 215.8-203.4 215.8zM830 197.20000000000005c0-4.4-3.4-8-7.5-8H713.3v-48h109.3c4.2 0 7.5-3.6 7.5-8v-26.5c0-4.4-3.4-8-7.5-8H713.3v-49.5c0-2.9-3.6-5.3-8-5.3h-26.6c-4.4 0-8 2.4-8 5.3v49.5H570.1c-4.2 0-7.5 3.6-7.5 8v26.5c0 4.4 3.4 8 7.5 8h100.5v48H570.1c-4.2 0-7.5 3.6-7.5 8v26.5c0 4.4 3.4 8 7.5 8h69.7l-38.9 63.5c-4.5 7.4-0.8 18.5 8.3 24.8l2.6 1.8c9.1 6.3 20.2 5.4 24.7-2l54-88.1h0.8l56.2 91.8c4.5 7.4 15.6 8.3 24.7 2l2.6-1.8c9.1-6.3 12.8-17.4 8.3-24.8l-41.2-67.2h80.7c4.2 0 7.5-3.6 7.5-8v-26.5z m0 0M240.2 50c-14 0-27.4 5.9-37.3 16.4-9.9 10.5-15.4 24.7-15.5 39.5v536c0 14.8 5.6 29.1 15.5 39.5 9.9 10.5 23.3 16.4 37.3 16.4h30.2v0.8c1.2-0.1 2.3-0.4 3.5-0.4 16.4 0 29.8 14.1 29.8 31.6s-13.3 31.6-29.8 31.6c-1.2 0-2.3-0.2-3.5-0.4v0.4h-23.3c-66.6 0-120.5-56.9-120.5-127.2v-520.6c0-70.2 54-127.2 120.5-127.2h274.8c-18.8 18.6-35 40-47.9 63.6H240.2z m496.6 711.4h-24.5v-0.4c-1.2 0.2-2.4 0.4-3.6 0.4-16.4 0-29.8-14.1-29.8-31.6s13.3-31.6 29.8-31.6c1.2 0 2.4 0.2 3.6 0.4v-0.8h31.4c14 0 27.4-5.9 37.3-16.4 9.9-10.5 15.5-24.7 15.5-39.5v-201.2c21.8-9.6 42.3-22.2 60.9-37.7V634.2c-0.1 70.2-54 127.2-120.6 127.2z m0 0"  horiz-adv-x="1024" />

    
    <glyph glyph-name="arrowTop" unicode="&#58911;" d="M64.570621 215.21485199999995L133.409452 146.37806799999998 512.731664 525.699256 892.055922 146.37806799999998 960.894753 215.21485199999995 522.8143 653.2942820000001 502.651075 653.2942820000001Z"  horiz-adv-x="1024" />

    
    <glyph glyph-name="arrowRight" unicode="&#58912;" d="M397.349926 724.954074A44.885333 44.885333 0 0 0 460.8 788.385185l365.605926-365.605926a44.885333 44.885333 0 0 0 0-63.469037l-365.605926-365.605926a44.885333 44.885333 0 0 0-63.469037 63.469037L731.211852 391.073185 397.349926 724.935111z"  horiz-adv-x="1024" />

    
    <glyph glyph-name="scc-supplier-analysis" unicode="&#58923;" d="M609.344 260.86400000000003a26.56 26.56 0 0 0 27.904-28.224v-112a28.288 28.288 0 0 0-56.192 0v112a26.368 26.368 0 0 0 28.288 28.16zM232.64 384a20.736 20.736 0 0 1 17.088 5.824l185.216 179.2L536.064 473.6a27.52 27.52 0 0 1 39.552 0l173.952 168V608c1.536-8.384 5.44-16.192 11.264-22.4a28.8 28.8 0 0 1 22.464-11.2 26.56 26.56 0 0 1 28.352 28.16V702.976c0 22.4-5.888 28.224-22.464 28.224h-112.384a26.56 26.56 0 0 1-28.352-28.16 26.368 26.368 0 0 1 28.352-27.84h27.84L558.528 529.6l-101.12 94.976a27.008 27.008 0 0 1-39.04 0L215.488 428.8a26.88 26.88 0 0 1 0-38.976c0-5.76 11.264-5.76 17.088-5.76z m556.032-11.2a26.56 26.56 0 0 1-27.84-28.16v-224a28.288 28.288 0 0 1 56.192 0v224c-5.824 16.96-16.64 28.16-28.352 28.16zM401.28 401.024v-279.936a28.416 28.416 0 1 1 56.192 0V401.024a28.288 28.288 0 0 1-56.192 0z m534.016-408.96H148.608a26.56 26.56 0 0 0-28.352 28.224V803.712A26.368 26.368 0 0 1 92.416 832a26.56 26.56 0 0 1-28.288-28.16v-811.712a52.736 52.736 0 0 1 56.128-55.936h814.976a28.224 28.224 0 0 1 0 55.936zM221.44 288.64v-168a26.368 26.368 0 0 1 28.288-27.776 26.56 26.56 0 0 1 27.904 27.776V288.64a26.368 26.368 0 0 1-27.904 28.16 26.56 26.56 0 0 1-28.288-28.16z"  horiz-adv-x="1024" />

    
    <glyph glyph-name="scc-material-supplier" unicode="&#58926;" d="M283.328 48H64.256V829.44H951.04l-1.408-254.592-69.248 0.384 1.024 184.192H133.44v-641.408h149.888v-70.016z m-114.24-40.512h190.4v-69.952H169.088v69.952zM654.528 130.24c-55.168 0-100.16 45.44-100.16 101.248 0 55.808 44.928 101.312 100.16 101.312 55.168 0 100.16-45.44 100.16-101.312s-44.864-101.248-100.16-101.248z m0 144.064c-23.424 0-42.432-19.2-42.432-42.88 0-23.68 19.008-42.944 42.432-42.944 23.424 0 42.496 19.2 42.496 42.88 0 23.68-19.072 42.944-42.496 42.944zM743.36-62.464000000000055H566.592v87.04a219.264 219.264 0 0 0-43.968 25.6l-74.496-43.712-88.32 155.264 74.24 43.52a222.464 222.464 0 0 0-0.128 51.584l-74.56 43.648 88.32 155.264 74.176-43.52c13.632 10.368 28.288 19.008 43.84 25.92V525.44H742.4v-87.04c15.552-6.72 30.208-15.36 43.968-25.6l74.56 43.712 88.32-155.392-74.176-43.392a222.464 222.464 0 0 0 0.128-51.584l74.56-43.648-88.384-155.392-74.24 43.52a216.256 216.256 0 0 0-43.84-25.92v-87.232z m-119.04 58.304h61.376v70.272l19.84 6.528c22.016 7.296 41.984 19.136 59.456 35.008l15.552 14.336 59.776-35.008 30.784 54.144-59.904 35.072 4.288 20.672a172.608 172.608 0 0 1-0.128 69.888l-4.352 20.736 59.776 35.008-30.848 54.144-59.84-35.136-15.68 14.272a162.88 162.88 0 0 1-59.52 34.752l-20.032 6.528V467.072h-61.376V396.8l-19.84-6.592a164.608 164.608 0 0 1-59.392-34.944l-15.616-14.464-59.776 34.944-30.784-54.08 59.904-35.2-4.288-20.608a172.608 172.608 0 0 1 0.128-69.888l4.352-20.736-59.776-35.008 30.848-54.144 59.84 35.136 15.616-14.272c17.408-15.872 37.376-27.52 59.52-34.752l19.968-6.528v-69.888h0.128z"  horiz-adv-x="1024" />

    
    <glyph glyph-name="scc-non-material-supplier" unicode="&#58930;" d="M836.544 832H123.52A59.776 59.776 0 0 1 64 771.968v-839.936c0-33.152 26.624-60.032 59.456-60.032H836.48c32.832 0 59.456 26.88 59.456 60.032V771.968A59.776 59.776 0 0 1 836.544 832z m-208-60.032h89.152V560.64l-67.072 27.136-22.08 8.896-22.016-8.896-67.072-27.136V771.968H628.48z m208-839.936H123.52V771.968H480v-255.616a29.888 29.888 0 0 1 40.768-27.84l107.776 43.52 107.84-43.52a29.952 29.952 0 0 1 40.768 27.84V771.968h59.392v-839.936zM242.304 291.904H480c16.448 0 29.696 13.44 29.696 30.08A29.824 29.824 0 0 1 480 352H242.304a29.824 29.824 0 0 1-29.76-30.016c0-16.64 13.312-30.016 29.76-30.016z m475.392-119.936H242.304a29.824 29.824 0 0 1-29.76-30.08c0-16.576 13.312-29.952 29.76-29.952h475.392c16.448 0 29.76 13.44 29.76 30.016a29.824 29.824 0 0 1-29.76 30.016z"  horiz-adv-x="1024" />

    
    <glyph glyph-name="scc-contract" unicode="&#58931;" d="M969.637374-127.29648399999996h-311.210043a53.659109 53.659109 0 0 0-53.659109 53.65911V12.127661999999987c0 29.675598 24.047467 53.723065 53.723065 53.723066h35.175817l59.095372 102.329648a96.573606 96.573606 0 1 0 122.795578 0.255824l59.031416-102.649428h35.047904c29.611642 0 53.659109-23.983511 53.65911-53.65911v-85.828992a53.659109 53.659109 0 0 0-53.65911-53.65911z m-155.605021 402.411343a32.169883 32.169883 0 1 1 0-64.403723 32.169883 32.169883 0 0 1 0 64.403723z m0.31978-128.999313l-46.304166-80.264818h92.416464l-46.048342 80.264818z m144.540628-166.093811a21.489226 21.489226 0 0 1-21.42527 21.42527h-246.870277a21.489226 21.489226 0 0 1-21.42527-21.42527v-21.489226c0-11.831866 9.593405-21.42527 21.489226-21.42527h246.806321c11.831866 0 21.42527 9.593405 21.42527 21.42527v21.489226zM495.531322 228.93860500000005a32.169883 32.169883 0 1 0 0-64.339767H258.190494a32.169883 32.169883 0 1 0 0 64.339767h237.340828zM226.020611 507.978765c0 17.779776 14.390107 32.169883 32.169883 32.169883h480.757479a32.169883 32.169883 0 1 0 0-64.339767H258.190494a32.169883 32.169883 0 0 0-32.169883 32.169884z m391.666729-187.774905H258.190494a32.169883 32.169883 0 0 0-32.169883 32.169883c0 17.779776 14.390107 32.169883 32.169883 32.169883h359.496846a32.169883 32.169883 0 1 0 0-64.403722z m283.325214 64.339766a32.169883 32.169883 0 0 0-32.233839 32.233839v329.373556a21.489226 21.489226 0 0 1-21.489227 21.489226H149.785023a21.489226 21.489226 0 0 1-21.42527-21.42527v-787.682468c0-11.831866 9.593405-21.42527 21.42527-21.42527h361.671351a32.169883 32.169883 0 1 0 0-64.403723H117.61514A53.659109 53.659109 0 0 0 63.95603-73.63737400000002V778.320904C63.95603 807.996502 88.003498 832.04397 117.61514 832.04397h761.908188c29.611642 0 53.659109-24.047467 53.659109-53.65911v-361.607395a32.169883 32.169883 0 0 0-32.233839-32.233839z"  horiz-adv-x="1024" />

    
    <glyph glyph-name="scc-members" unicode="&#58932;" d="M496.256 301.44000000000005a223.552 223.552 0 0 1 112.32 193.536c0 123.776-101.568 224.192-226.944 224.192-125.44 0-226.88-100.352-226.88-224.192 0-82.56 45.12-154.624 112.32-193.536C149.248 263.552 64 154.11199999999997 64 25.087999999999965V0h635.456v25.088c0 129.024-85.248 238.464-203.2 276.352zM210.752 494.976c0 45.12 17.728 87.488 50.048 119.36a170.88 170.88 0 0 0 120.832 49.472 170.88 170.88 0 0 0 120.832-49.472c32.256-31.872 50.048-74.304 50.048-119.36s-17.664-87.488-49.92-119.36a170.88 170.88 0 0 0-120.896-49.472 170.88 170.88 0 0 0-120.832 49.472 166.72 166.72 0 0 0-50.112 119.36z m430.72-439.68H121.92a233.024 233.024 0 0 0 67.84 136.064 239.04 239.04 0 0 0 168.32 68.992h47.168a238.528 238.528 0 0 0 219.456-143.744c8.512-19.712 14.08-40.192 16.768-61.312z m115.328 358.912a223.552 223.552 0 0 1 112.384 193.536C869.248 731.648 767.616 832 642.304 832a227.84 227.84 0 0 1-167.552-72.96 280.704 280.704 0 0 0 53.888-25.088 170.624 170.624 0 0 0 113.664 42.752c45.632 0 88.512-17.6 120.832-49.472 32.256-31.872 50.048-74.368 50.048-119.36 0-45.056-17.792-87.552-50.048-119.488a170.816 170.816 0 0 0-104.064-48.64c-4.736-23.04-12.352-45.44-22.656-66.688h29.44a238.528 238.528 0 0 0 219.52-143.744c8.384-19.712 14.016-40.192 16.64-61.248h-177.856c8.256-17.92 14.912-36.416 19.968-55.36H960v25.088c0 129.152-85.248 238.592-203.2 276.48z"  horiz-adv-x="1024" />

    
    <glyph glyph-name="scc-performance" unicode="&#58935;" d="M102.016-60.99199999999996c-56.96 0-102.016 44.8-102.016 101.696V794.24C0 851.2 44.992 896 102.016 896h759.04C914.944 896 960 851.2 960 794.304V37.75999999999999C960-19.200000000000045 915.008-64 857.984-64l-755.968 3.008z m0 894.208a36.48 36.48 0 0 1-36.032-35.904v-756.608c0-20.992 18.048-35.904 36.032-35.904h759.04a36.48 36.48 0 0 1 35.968 35.84V794.3679999999999a36.48 36.48 0 0 1-36.032 35.904L101.952 833.216z m65.984-651.968a33.28 33.28 0 0 0-33.024 32.896 33.28 33.28 0 0 0 33.024 32.896h620.992a33.28 33.28 0 0 0 33.024-32.896 33.28 33.28 0 0 0-33.024-32.896H168z m158.976 260.16L192 291.904c-6.016-6.016-14.976-11.968-24-11.968a27.264 27.264 0 0 0-20.992 8.96 48.192 48.192 0 0 0-12.032 20.928c0 8.96 3.008 14.976 9.024 23.936l177.024 194.368L507.008 357.76l209.984 233.28H600a33.28 33.28 0 0 0-33.024 32.896 33.28 33.28 0 0 0 33.024 32.896h198.016c3.008 0 3.008-3.008 6.016-3.008 0 0 2.944 0 2.944-3.008l3.008-3.008s3.008-2.944 3.008-5.952v-224.32a33.28 33.28 0 0 0-32.96-32.896 33.28 33.28 0 0 0-33.024 32.896V543.104L500.992 270.976 327.04 441.408z"  horiz-adv-x="1024" />

    
    <glyph glyph-name="scc-logistics" unicode="&#58941;" d="M92.416 267.712h372.096a27.968 27.968 0 1 1 0 55.936H93.184a22.72 22.72 0 0 1-4.8 0.512c-12.48 0-24.384-12.288-24.384-25.344 0-16.576 13.248-31.104 28.416-31.104z m0 156.48h372.096a27.968 27.968 0 1 1 0 55.936H93.184a21.76 21.76 0 0 1-4.736 0.512c-12.544 0-24.448-12.352-24.448-25.408 0-16.512 13.248-31.04 28.416-31.04z m54.016 156.416h372.096a27.968 27.968 0 1 1 0 55.936H147.072a25.152 25.152 0 0 1-5.376 0.512c-14.848 0-23.68-12.8-23.68-25.28 0-18.368 11.776-31.168 28.416-31.168zM1022.08 332.99199999999996c-0.64 1.28-1.28 2.496-1.28 3.328V337.28l-210.752 292.16c-7.232 7.104-14.656 7.104-21.12 7.104h-108.352V740.032A27.968 27.968 0 0 1 652.096 768H226.048a27.904 27.904 0 1 1 0-55.936h394.496V298.88c0-17.472 14.4-27.968 28.416-27.968h315.072v-175.552h-51.904c-14.016 59.904-69.44 103.168-132.8 103.168-63.36 0-118.72-43.264-132.736-103.168H435.072C421.12 155.20000000000005 365.632 198.39999999999998 302.272 198.39999999999998c-63.232 0-118.72-43.264-132.672-103.168H92.48a27.968 27.968 0 0 1-28.416-28.032c0-17.536 14.4-28.032 28.416-28.032h80.256C186.752-20.672000000000025 242.176-64 305.536-64c63.36 0 118.72 43.328 132.736 103.232h211.456c14.08-59.904 69.44-103.232 132.8-103.232 63.36 0 118.72 43.328 132.736 103.232h80.32a28.032 28.032 0 0 1 28.416 28.032V327.03999999999996a12.736 12.736 0 0 1-1.92 6.016z m-341.504-6.208V580.608h94.08l183.36-253.824h-277.44z m178.432-262.592c0-42.24-33.6-75.392-76.48-75.392s-76.544 33.088-76.544 75.392c0 42.176 33.664 75.264 76.544 75.264 42.88 0 76.48-33.088 76.48-75.264z m-476.992 0c0-42.24-33.664-75.392-76.48-75.392a75.136 75.136 0 0 0-76.544 75.392c0 42.176 33.6 75.264 76.544 75.264 42.88 0 76.48-33.088 76.48-75.264z"  horiz-adv-x="1024" />

    
    <glyph glyph-name="scc-sourcing" unicode="&#58942;" d="M86.213698 514.5619469999999L514.596004 292.88785499999994a47.072167 47.072167 0 0 1 56.154026 0.063956l429.533528 226.023152a34.216861 34.216861 0 0 1 8.314378 6.075891 47.264038 47.264038 0 0 1 0 66.642933 34.216861 34.216861 0 0 1-8.314378 6.139848L571.773338 822.705565a47.072167 47.072167 0 0 1-56.345896-0.063956L85.829957 593.420619a34.216861 34.216861 0 0 1-8.05855-6.011934 47.136124 47.136124 0 0 1 0-66.642933 34.216861 34.216861 0 0 1 8.442291-6.203805z m457.610541 245.529961l384.188193-201.655631L542.609061 355.565469 158.292954 554.470959l385.531285 205.684906z m463.686432-574.075781l-464.326-244.698523-467.715707 242.076296c-11.000561-13.366961-20.082419-59.41582 4.029275-76.108532l445.650629-230.947821c7.291069-4.796756 27.309532-4.796756 34.728515-0.383741l447.185591 234.91314c27.437445 14.326312 14.965879 65.107971 0.38374 75.149181z m0 205.940732l-464.326-244.634566L75.468964 389.462546c-11.000561-13.303004-20.082419-59.41582 4.029275-76.108532l445.650629-230.883864c7.291069-4.860713 27.309532-4.860713 34.728515-0.383741l447.185591 234.91314c27.437445 14.262355 14.965879 65.044014 0.38374 75.085224z"  horiz-adv-x="1024" />

    
    <glyph glyph-name="scc-financial" unicode="&#58944;" d="M849.792 580.48H176.768c-60.416 0-109.568-49.152-109.568-109.568v-414.784c0-60.416 49.152-109.568 109.568-109.568h673.024c60.416 0 109.568 49.152 109.568 109.568v414.72c0 60.48-49.152 109.632-109.568 109.632z m46.976-524.352c0-25.92-21.056-46.976-46.976-46.976H176.768a47.04 47.04 0 0 0-46.976 46.976v414.72c0 25.92 21.12 46.976 46.976 46.976h673.024c25.92 0 46.976-21.056 46.976-46.912v-414.784z m-237.824 233.664a24.576 24.576 0 0 1 0 49.088H567.168l93.632 93.632a24.576 24.576 0 0 1-34.688 34.688L514.56 355.712 403.136 467.2a24.512 24.512 0 1 1-34.688-34.688L462.08 338.88H367.616a24.512 24.512 0 0 1 0-49.088h121.152v-54.016H367.616a24.512 24.512 0 0 1 0-49.088h121.152v-115.584a24.512 24.512 0 1 1 49.024 0v115.584h121.152a24.512 24.512 0 0 1 0 49.088H537.792v54.016h121.152z m-479.232 329.6h667.2a31.36 31.36 0 0 1 0 62.528H179.712a31.36 31.36 0 0 1 0-62.592z m83.2 100.352h500.8a31.36 31.36 0 0 1 0 62.656H262.848a31.36 31.36 0 0 1 0-62.656z"  horiz-adv-x="1024" />

    
    <glyph glyph-name="scc-supplier-sys-man" unicode="&#58951;" d="M1024 51.71199999999999H64V768h960v-716.288z m-902.656 57.472h845.312V710.528H121.344v-601.344z m34.048-115.712h777.216V-64H155.392v57.472z m274.56 470.208H238.976V655.36h191.104v-191.68z m-133.76 57.472h76.48V597.8240000000001H296.32v-76.672z m196.928 67.072h355.968v-57.472H493.12v57.472z m355.968-396.544h-191.104V383.29600000000005h191.104v-191.616z m-133.76 57.472h76.416V325.76h-76.416v-76.672zM238.912 316.15999999999997h355.968v-57.472H238.912V316.15999999999997z m276.48-235.776h57.28v-115.712h-57.344v115.712z"  horiz-adv-x="1024" />

    
    <glyph glyph-name="scc-infrastructure" unicode="&#58953;" d="M320 618.688l0 0z m0 170.624a64 64 0 0 0 0-128 64 64 0 0 0 0 128zM128 704h87.488a106.88 106.88 0 0 0 0 42.624H128a21.376 21.376 0 0 1-21.312-21.312c0-11.712 9.6-21.312 21.312-21.312z m768 0c11.712 0 21.312 9.6 21.312 21.312A21.376 21.376 0 0 1 896 746.624H424.512a106.88 106.88 0 0 0 0-42.624H896z m-576-554.688l0 0z m0-170.624a64 64 0 0 0 0 128 64 64 0 0 0 0-128zM128 64a21.376 21.376 0 0 1-21.312-21.312c0-11.712 9.6-21.312 21.312-21.312h87.488a106.88 106.88 0 0 0 0 42.624H128z m768 0H424.512a106.88 106.88 0 0 0 0-42.624H896c11.712 0 21.312 9.6 21.312 21.312A21.376 21.376 0 0 1 896 64zM128 405.312A21.376 21.376 0 0 1 106.688 384c0-11.712 9.6-21.312 21.312-21.312h471.488a106.88 106.88 0 0 0 0 42.624H128z m768 0h-87.488a106.88 106.88 0 0 0 0-42.624H896c11.712 0 21.312 9.6 21.312 21.312A21.376 21.376 0 0 1 896 405.312zM704 490.688a106.752 106.752 0 1 1 0.064-213.44A106.752 106.752 0 0 1 704 490.688zM704 320a64 64 0 0 0 0 128 64 64 0 0 0 0-128z"  horiz-adv-x="1024" />

    
    <glyph glyph-name="scc-monitoring" unicode="&#58954;" d="M910.208 99.58399999999995h-170.624v108.032l261.632 261.76-403.84 403.84L113.728 389.76l79.616-79.68-79.616-85.312 238.912-238.912 79.68 79.616 85.312-79.616 164.992 164.992v-108.16h227.52v-113.728h56.96v284.416h-56.96v-113.728z m-392.512-34.176l-79.68 79.68L358.4 65.40800000000002l-159.296 159.36 79.68 79.616-85.376 85.312L597.312 793.6 921.6 469.312l-403.904-403.84zM341.312 384a56.896 56.896 0 1 1 113.792 0 56.896 56.896 0 0 1-113.792 0z"  horiz-adv-x="1024" />

    
    <glyph glyph-name="scc-enterprise-man" unicode="&#58955;" d="M576.768-15.744000000000028H200.192a18.688 18.688 0 0 0-18.688 18.688V760.704c0 10.304 8.32 18.688 18.688 18.688h472.96c10.24 0 18.624-8.32 18.624-18.688v-477.44a18.688 18.688 0 0 0-37.376 0V742.08H218.88v-720.384h357.888a18.688 18.688 0 1 0 0-37.376zM966.528 227.20000000000005a18.688 18.688 0 0 0-18.688 18.752V576H676.48a18.688 18.688 0 0 0 0 37.44h289.92c10.368 0 18.752-8.384 18.752-18.688v-348.864c0-10.368-8.384-18.688-18.688-18.688z m-158.4-275.584a142.72 142.72 0 0 0-88.96 254.016 143.04 143.04 0 0 0 119.04 27.84 141.632 141.632 0 0 0 89.664-62.208c20.608-32 27.52-70.144 19.392-107.328a142.848 142.848 0 0 0-139.136-112.32z m-0.256 247.744c-49.024 0-92.16-34.816-102.656-82.816a105.28 105.28 0 0 1 102.912-127.552c49.024 0 92.16 34.88 102.592 82.88a104.448 104.448 0 0 1-14.272 79.168 104.448 104.448 0 0 1-88.576 48.32zM835.008 196.48000000000002a18.752 18.752 0 0 0-18.24 22.72l11.52 52.992a18.688 18.688 0 0 0 36.48-7.936l-11.52-52.992a18.688 18.688 0 0 0-18.24-14.72z m-67.456-307.072a18.688 18.688 0 0 0-18.304 22.656l11.52 53.056a18.688 18.688 0 0 0 36.544-7.936l-11.52-53.056a18.688 18.688 0 0 0-18.24-14.72z m218.496 139.904a18.752 18.752 0 0 0-4.032 0.448l-52.992 11.712a18.688 18.688 0 0 0 8.064 36.48l52.992-11.648a18.688 18.688 0 0 0-4.032-36.992z m-305.92 67.648a18.752 18.752 0 0 0-4.096 0.448l-52.928 11.712a18.688 18.688 0 0 0 8.064 36.48l52.992-11.648a18.688 18.688 0 0 0-4.032-36.992z m234.624 43.328a18.688 18.688 0 0 0-10.24 34.24l45.248 29.888a18.688 18.688 0 0 0 20.608-31.232l-45.312-29.824a18.56 18.56 0 0 0-10.24-3.072z m-261.632-172.352a18.688 18.688 0 0 0-10.304 34.304l45.312 29.824a18.688 18.688 0 0 0 20.544-31.232l-45.312-29.824a18.56 18.56 0 0 0-10.24-3.072z m254.016-52.8a18.688 18.688 0 0 0-15.68 8.512l-29.696 45.44a18.688 18.688 0 1 0 31.36 20.416l29.632-45.44a18.688 18.688 0 0 0-15.616-28.928z m-171.392 262.336a18.688 18.688 0 0 0-15.68 8.448l-29.632 45.44a18.688 18.688 0 1 0 31.296 20.48l29.632-45.44a18.688 18.688 0 0 0-15.616-28.928z m-439.36-195.2H101.952a18.688 18.688 0 1 0 0 37.312h194.432a18.688 18.688 0 1 0 0-37.376z m231.744 598.08H333.76a18.688 18.688 0 1 0 0 37.376h194.368a18.688 18.688 0 1 0 0-37.376z m0-196.288H333.76a18.688 18.688 0 1 0 0 37.376h194.368a18.688 18.688 0 1 0 0-37.376z m0-159.808H333.76a18.688 18.688 0 1 0 0 37.376h194.368a18.688 18.688 0 1 0 0-37.376z"  horiz-adv-x="1024" />

    
    <glyph glyph-name="scc-sales" unicode="&#58956;" d="M611.52 456.192a241.28 241.28 0 0 1 95.872 269.248A237.888 237.888 0 0 1 480 896a237.888 237.888 0 0 1-227.392-170.56 241.28 241.28 0 0 1 95.872-269.248C185.6 412.48 70.08 266.36800000000005 64 96.19200000000001 64.64-11.200000000000045 272.448-64 480.32-64 688.128-64 896-11.200000000000045 896 94.39999999999998c-5.312 170.816-120.96 317.888-284.48 361.792z m-79.552-313.216l-51.648-51.584-51.712 52.224 51.712 174.592 51.648-175.232zM302.08 656C302.08 755.392 381.888 835.968 480.32 835.968c98.368 0 178.112-80.64 178.112-180.032 0-99.392-79.744-179.968-178.112-179.968a177.28 177.28 0 0 0-126.016 52.736 180.928 180.928 0 0 0-52.16 127.232z m178.176-659.968c-217.408 0-356.352 60.032-356.352 98.432C132.48 269.952 272.64 409.6 446.464 416l-79.616-273.024a30.208 30.208 0 0 1 7.744-30.016l84.928-85.76a29.568 29.568 0 0 1 42.176 0l84.928 88.768a30.208 30.208 0 0 1 7.68 30.08L514.176 416c173.824-6.4 313.92-146.048 322.432-321.6 0-38.4-138.944-98.432-356.288-98.432z"  horiz-adv-x="1024" />

    
    <glyph glyph-name="scc-account-privileges" unicode="&#58957;" d="M570.04702 382.903379h55.871058c13.503772 0 24.511586-10.623821 24.511586-23.7436a24.127593 24.127593 0 0 0-24.511586-23.807598h-55.871058v-130.813793c0-6.335893-2.559957-12.351792-7.167879-16.831716a24.959579 24.959579 0 0 0-17.279708-6.975882 24.127593 24.127593 0 0 0-24.575585 23.807598V413.366864c-66.558877 10.431824-117.374019 66.36688-117.37402 133.885741 0 74.878736 62.590944 135.67771 139.837641 135.677711 77.182698 0 139.83764-60.798974 139.83764-135.677711-0.063999-66.046885-48.767177-121.021958-113.278089-133.117754v-31.231472z m-16.831716 76.798704c8.511856 0.831986 16.895715 2.94395 24.959579 6.143896 33.983427 13.695769 56.127053 45.759228 56.127053 81.406626-0.063999 48.639179-40.703313 87.998515-90.878466 88.062514a90.878466 90.878466 0 0 1-83.838585-54.399082 86.142546 86.142546 0 0 1 19.647668-95.99838c15.807733-15.295742 36.479384-24.063594 57.791025-25.535569a25.151576 25.151576 0 0 0 16.191726 0.319995zM544.447452-64.00108H543.99946a24.959579 24.959579 0 0 0-17.7917 6.975882l-249.723786 158.077333C185.413511 145.46738500000004 128.00648 235.89785900000004 128.00648 334.71219199999996V694.386122a59.518996 59.518996 0 0 0 41.151305 56.127053L530.559687 892.398781a26.879546 26.879546 0 0 0 26.879546 0l361.401902-141.885606A59.518996 59.518996 0 0 0 959.99244 694.386122v-359.67393c0-98.814333-57.407031-189.180808-148.477494-233.596058L561.919158-56.961198999999965a24.959579 24.959579 0 0 0-17.343708-6.975882zM543.99946 846.383557L186.885486 706.097925a31.231473 31.231473 0 0 0-1.471975-0.511992 11.903799 11.903799 0 0 1-8.383858-11.26381V334.71219199999996c-0.319995-81.342627 47.295202-155.773371 122.557931-191.612767a22.207625 22.207625 0 0 0 2.431959-1.407976L543.99946-11.52196600000002l241.915918 153.213415a22.399622 22.399622 0 0 0 2.495958 1.407976c75.26273 35.839395 122.877926 110.270139 122.557931 191.612767V694.386122a11.903799 11.903799 0 0 1-8.383858 11.26381 30.719482 30.719482 0 0 0-1.471975 0.511992L543.935461 846.383557z"  horiz-adv-x="1024" />

    
    <glyph glyph-name="scc-information" unicode="&#58958;" d="M736 139.64800000000002H186.24a20.416 20.416 0 0 1-20.48-20.352c0-12.224 10.24-20.416 20.48-20.416h549.76a20.416 20.416 0 0 1 0 40.704zM186.24 526.528h244.288c12.224 0 20.352 8.192 20.352 20.352V689.472c0 12.16-8.128 20.352-20.352 20.352H186.24c-12.16 0-20.352-8.128-20.352-20.352v-142.592c0-12.16 8.128-20.352 20.352-20.352z m20.288 132.352c0 6.144 4.096 10.24 10.24 10.24H400c6.08 0 10.24-4.096 10.24-10.24v-81.408c0-6.144-4.16-10.24-10.24-10.24H216.704c-6.08 0-10.176 4.096-10.176 10.24V658.88zM736 424.704H186.24a20.416 20.416 0 0 1-20.48-20.352c0-12.16 10.24-20.352 20.48-20.352h549.76a20.416 20.416 0 0 1 0 40.704z m203.648 244.416c-12.224 0-20.352-8.192-20.352-20.416v-629.184a41.728 41.728 0 0 0-42.816-42.816h-30.528c8.128 12.224 12.224 26.496 12.224 42.816V748.48A82.56 82.56 0 0 1 774.72 832h-627.2A82.56 82.56 0 0 1 64 748.48v-726.976C64-27.327999999999975 100.672-64 147.52-64h728.96A82.56 82.56 0 0 1 960 19.519999999999982V648.704c0 12.224-8.128 20.416-20.352 20.416z m-122.24-649.6a41.728 41.728 0 0 0-42.688-42.816h-627.2a43.008 43.008 0 0 0-42.816 42.816V748.48c0 22.4 18.368 42.816 42.816 42.816h627.2c24.384 0 42.752-20.416 42.752-42.816v-728.96zM736 628.352H512a20.416 20.416 0 0 1-20.352-20.352c0-12.16 10.176-20.352 20.352-20.352h224a20.416 20.416 0 0 1 0 40.704z m0-346.176H186.24a20.416 20.416 0 0 1-20.48-20.352c0-12.224 10.24-20.352 20.48-20.352h549.76a20.416 20.416 0 0 1 0 40.704z"  horiz-adv-x="1024" />

    
    <glyph glyph-name="scc-financial-synergy" unicode="&#58962;" d="M903.998285 164.54719999999998l-242.686938-237.69496-55.999755-54.84776H138.689633A73.919677 73.919677 0 0 0 64.00196-54.84384V822.8483200000001C64.00196 863.232143 97.409814 896 138.689633 896h746.620734C926.590186 896 959.99804 863.232143 959.99804 822.8483200000001v-604.349356l-55.999755-54.84776v0.895996z m0 54.91176V822.8483200000001a18.495919 18.495919 0 0 1-18.687918 18.30392H138.689633a18.495919 18.495919 0 0 1-18.687918-18.30392v-877.69216c0-10.111956 8.319964-18.30392 18.687918-18.30392h466.621959v255.99888c0 20.223912 16.767927 36.60784 37.375836 36.60784h261.310857z m-79.167654-54.91176h-163.519284v-160.127299l163.519284 160.127299zM185.345429 310.85056h653.309142a25.15189 25.15189 0 0 0 20.991908-6.91197 23.999895 23.999895 0 0 0 7.039969-20.47991 23.999895 23.999895 0 0 0-7.039969-20.54391 25.15189 25.15189 0 0 0-20.991908-6.91197H185.345429a27.711879 27.711879 0 0 0-28.031877 27.45588c0 15.103934 12.543945 27.39188 28.031877 27.39188z m0-182.8472h261.310857c15.487932 0 28.031877-12.287946 28.031877-27.45588a27.711879 27.711879 0 0 0-28.031877-27.39188H185.345429a27.711879 27.711879 0 0 0-28.031877 27.39188c0 15.167934 12.543945 27.45588 28.031877 27.45588z m307.966653 457.15h-111.99951v36.54384h93.375591l-74.687673 127.99944L432.320349 768.00056l77.247662-130.943427L586.687673 768.00056l32.255859-18.30392-74.623673-127.99944h98.367569v-36.54384h-111.99951v-36.60784h111.99951V512.0016800000001h-111.99951v-109.69552h-37.375836V512.0016800000001h-111.99951v36.54384h111.99951v36.60784z"  horiz-adv-x="1024" />

    
    <glyph glyph-name="scc-buyer-basic-data" unicode="&#58963;" d="M640.128 128.38400000000001h64l0.32-191.424-64.32-0.512v192z m128-64.128l64 0.192v-127.808h-64v127.616z m128 128h64v-255.616h-64v255.68z m-384-127.808h64v-128l-64 0.192v127.808z m-15.872 64.128l-45.376 45.184L631.808 354.55999999999995l135.808-135.744 135.936 135.936 45.248-45.312-181.12-181.12-135.808 135.808-135.616-135.616zM896.192 832L64 831.936v-831.68h384.064v63.872h-320L128 767.8720000000001h704.128v-320.192h64V832zM192 576h384.128v63.936H192V576z m0-127.744l320.064-0.064V512h-320v-63.808z m0-128.32h192.064v63.872h-192V320z"  horiz-adv-x="1024" />

    
    <glyph glyph-name="scc-appraisal" unicode="&#58965;" d="M741.504 662.848v-55.296h-35.328v55.296h-26.432V704H768v-41.152h-26.496zM654.848 128H273.664C263.936 128 256 137.216 256 148.54399999999998c0 11.392 7.936 20.608 17.664 20.608h381.184c9.728 0 17.664-9.216 17.664-20.608 0-11.328-7.936-20.544-17.664-20.544zM494.336 270.08000000000004H273.664c-9.728 0-17.664 8.576-17.664 19.2 0 10.688 7.936 19.328 17.664 19.328h220.672c9.728 0 17.664-8.64 17.664-19.264 0-10.688-7.936-19.328-17.664-19.328z m256-270.08H273.664C263.936 0 256 8.639999999999986 256 19.26400000000001c0 10.688 7.936 19.328 17.664 19.328h476.672c9.728 0 17.664-8.64 17.664-19.328 0-10.624-7.936-19.264-17.664-19.264z m0 385.728h-51.2L665.984 460.8H495.552L462.72 385.728h-51.2L556.16 695.6800000000001h49.088l145.088-309.952z m-239.552 109.44h139.648L579.776 656.512 510.784 495.104z m366.464-608.064H146.752A19.2 19.2 0 0 0 128-93.18399999999997V812.288c0 5.184 1.92 10.24 5.504 13.952A18.24 18.24 0 0 0 146.752 832h730.496c4.992 0 9.728-2.048 13.248-5.76a20.288 20.288 0 0 0 5.504-13.952v-905.472a19.2 19.2 0 0 0-18.752-19.712z m-711.808 36.992h693.12V792.576H165.44v-868.48z"  horiz-adv-x="1024" />

    
    <glyph glyph-name="scc-price-man" unicode="&#58966;" d="M89.6 22.847999999999956c-15.36 0-25.6 10.24-25.6 25.6V870.4c0 15.36 10.24 25.6 25.6 25.6h583.68c15.36 0 25.6-10.24 25.6-25.6v-332.8c-15.36 0-30.72-5.12-51.2-5.12v61.44H504.32v-122.88c-25.6-15.36-40.96-30.72-56.32-46.08l-15.36-15.36h-128v-148.48h46.08c-5.12-15.36-5.12-25.6-10.24-40.96h-35.84v-148.48h40.96c5.12-15.36 21.952-38.592 27.072-48.832H89.6z m20.48 48.832h148.48v148.48H110.08v-148.48z m0 189.44h148.48V404.48H110.08v-143.36z m194.56 189.44h148.48V593.9200000000001H304.64v-143.36z m-194.56 0h148.48V593.9200000000001H110.08v-143.36z m0 189.248h537.6V839.68h-537.6V639.808z m588.8-163.648c163.84-5.12 296.96-138.24 296.96-302.08 0-163.84-133.12-302.08-296.96-302.08-122.88 0-235.52 76.8-281.6 189.44-10.24 35.84-20.48 71.68-20.48 107.52 0 76.8 30.72 158.72 87.04 215.04 56.32 61.44 133.12 92.16 215.04 92.16z m0-552.96c138.24 0 250.88 112.64 250.88 256 0 138.24-112.64 250.88-250.88 250.88-66.56 0-133.12-30.72-179.2-76.8A277.76 277.76 0 0 1 448 168.96000000000004c0-30.72 5.12-61.44 15.36-87.04 40.96-97.28 133.12-158.72 235.52-158.72z m128 281.6v-40.96h-102.4v-56.32h102.4v-40.96h-102.4v-87.04h-51.2v87.04H565.76v40.96h107.52v56.32H565.76v40.96h92.16L560.64 307.20000000000005h56.32L704 220.15999999999997h-10.24l81.92 87.04h61.44l-97.28-97.28h87.04v-5.12z"  horiz-adv-x="1024" />

    
    <glyph glyph-name="scc-process" unicode="&#58967;" d="M424-64v240h240V-64h-240z m60.032 180.032v-120.064h120v120.064H483.968z m419.968 59.968H1024V-64h-240v240h60.032V356.03200000000004H243.968v-180.032h60.032V-64H64v240h120V416h329.984V656H393.984V896h300.032v-240H574.016V416h329.984v-240zM243.968-4.032000000000039v120.064H124.032v-120.064h120z m210.048 720h179.968V836.032H454.016v-120z m509.952-720v120.064h-119.936v-120.064h119.936z"  horiz-adv-x="1024" />

    
    <glyph glyph-name="scc-quality-ment" unicode="&#58970;" d="M959.168 581.8879999999999c-2.304 84.48-12.8 141.568-12.8 142.08a15.808 15.808 0 0 1-16.192 14.208c-0.896 0-1.92 0-2.88-0.192a372.8 372.8 0 0 0-102.976-14.4c-33.28 0-71.68 11.84-92.352 17.92a626.624 626.624 0 0 0-133.184 56.704 354.496 354.496 0 0 0-45.568 29.952 16.256 16.256 0 0 1-10.624 3.84 16.256 16.256 0 0 1-10.624-3.84 342.4 342.4 0 0 0-45.376-29.952 628.224 628.224 0 0 0-133.056-56.768c-20.672-6.016-55.936-18.88-89.28-18.88-57.984 0-105.28 15.232-105.856 15.424-0.896 0.192-1.92 0.192-2.88 0.192a16.704 16.704 0 0 1-9.92-3.136 15.168 15.168 0 0 1-6.272-11.072c0-0.512-8.128-57.6-10.432-142.08-2.176-78.08-1.28-183.488 13.12-287.744 6.656-48.576 34.048-91.712 77.248-140.8 33.856-38.4 78.72-76.672 133.248-113.92 92.48-63.04 181.12-100.48 184.832-102.016a17.6 17.6 0 0 1 6.72-1.408c2.112 0 4.48 0.512 6.656 1.408a1227.584 1227.584 0 0 1 182.912 101.952c54.72 37.12 99.52 75.456 133.376 113.92 43.2 49.152 70.592 96.128 77.248 144.64 7.552 57.6 18.88 142.464 14.912 283.968z m-78.656-275.776c-4.864-35.2-26.624-71.936-62.656-112.704-30.272-34.56-71.104-69.248-121.536-103.36a1184.448 1184.448 0 0 0-152.96-87.424 1111.04 1111.04 0 0 0-154.496 87.424c-50.24 34.112-91.136 68.992-121.344 103.36-37.76 43.008-57.984 75.584-62.464 108.928-14.592 105.6-14.4 209.28-12.608 278.016 0.896 33.792 3.584 63.104 5.376 85.696 19.456-3.008 42.112-5.248 66.432-5.248 38.4 0 74.752 11.264 98.688 18.752l9.152 2.752c50.944 15.104 100.48 36.096 146.944 62.656 8.96 5.12 16.896 9.856 23.68 14.336a693.696 693.696 0 0 1 170.688-76.992l2.752-0.64c23.36-6.976 66.752-19.84 108.352-19.84a466.56 466.56 0 0 1 64.256 4.736c1.984-22.72 5.952-52.224 6.848-86.208 3.648-139.136-7.552-220.48-15.104-274.24z m-168.32-52.032a267.52 267.52 0 0 1 41.6 143.616c0 149.12-79.04 234.304-208.32 234.304-131.072 0-208.448-86.528-208.448-234.24 0-145.92 81.728-229.376 208.448-229.376 53.44 0 98.112 15.104 132.864 45.312l46.784-42.88a60.928 60.928 0 0 1 20.928-7.616c15.616 1.728 24.32 8.32 26.112 20.096 0 6.784-3.456 14.272-10.496 22.784l-49.472 48z m-44.288 40.448l-31.36 30.144a32.832 32.832 0 0 1-23.36 10.048c-15.68-3.456-24.32-11.776-26.112-25.152-1.792-8.448 2.56-15.936 12.928-22.72l39.04-35.2c-24.256-25.152-55.552-32.064-93.76-32.064-93.632 3.456-149.568 58.816-149.568 178.112 0 115.328 56.128 178.816 149.76 183.872 91.968-5.056 149.76-67.328 149.76-183.872 0.192-39.552-13.44-72.96-27.328-103.168z"  horiz-adv-x="1024" />

    
    <glyph glyph-name="view" unicode="&#58939;" d="M512 691.2C229.235 691.2 0 384 0 384s229.235-307.2 512-307.2S1024 384 1024 384 794.765 691.2 512 691.2z m0-563.2c-202.906 0-381.632 182.157-445.773 256.051C130.24 458.01 308.467 640 512 640c202.906 0 381.632-182.157 445.773-256.051C893.76 309.99 715.533 128 512 128zM512 550.4c-91.904 0-166.4-74.496-166.4-166.4S420.096 217.6 512 217.6 678.4 292.096 678.4 384 603.904 550.4 512 550.4z m0-281.6c-63.526 0-115.2 51.674-115.2 115.2S448.474 499.2 512 499.2 627.2 447.526 627.2 384 575.526 268.8 512 268.8z"  horiz-adv-x="1024" />

    
    <glyph glyph-name="good" unicode="&#58940;" d="M646.05 831.927c63.722 0 89.55-42.44 89.55-111.927-2.71-83.625-25.216-166.87-60.72-242.48 49.876-4.809 100.19-3.702 150.24-3.76 84.391 0 134.326-34.976 134.326-100.732 0.64-26.67-13.993-48.56-34.95-63.92l0.64-0.905c18.19-41.272 16.82-81.79-23.029-111.023l0.643-0.903c18.19-41.244 16.82-81.79-23.002-111.024l0.613-0.904c12.594-34.977 9.795-19.033 11.923-47.101 0-61.124-45.271-100.735-111.91-100.735H646.05c-74.014 0-158.522 7.054-233.321 18.246-19.299 3.178-38.595 6.12-57.718 10.232v-6.093c0-12.357-10.028-22.385-22.388-22.385H86.36c-12.358 0-22.387 10.028-22.387 22.385V496.146c0 12.359 10.029 22.386 22.387 22.386h246.264c12.36 0 22.388-10.027 22.388-22.386v-3.847c49.089 29.614 85.003 76.54 120.886 120.234 9.387 12.534 18.337 26.262 27.256 41.623 12.593 21.743 54.482 107.35 65.122 124.373 21.048 33.693 44.019 53.398 77.775 53.398zM108.747 473.76v-492.477h201.487V473.76H108.747zM646.05 787.155c-44.777 0-67.164-111.926-134.327-201.467-41.394-56.81-91.3-105.135-150.299-143.523l-6.413-2.973v-427.623c95.089-23.347 193.59-26.67 291.039-30.285h134.325c44.746 0 67.134 22.385 67.134 55.964 0 33.576-22.39 33.576-22.39 55.962 0 22.385 44.777 22.385 44.777 55.963 0 33.577-22.387 33.577-22.387 55.963 0 22.384 44.775 22.384 44.775 55.963 0 33.577-22.388 33.577-22.388 55.962 0 22.385 44.776 22.385 44.776 55.964 0 33.578-22.388 55.963-89.552 55.963-156.684 0-223.847 0-201.458 44.77 24.4 48.793 67.162 156.697 67.162 246.238 0 44.775-9.736 67.159-44.774 67.159z"  horiz-adv-x="1024" />

    


  </font>
</defs>
</svg>
