<?xml version="1.0" encoding="UTF-8"?>
<svg width="48px" height="48px" viewBox="0 0 48 48" version="1.1" xmlns="http://www.w3.org/2000/svg" xmlns:xlink="http://www.w3.org/1999/xlink">
    <title>盘点</title>
    <defs>
        <linearGradient x1="50%" y1="0%" x2="50%" y2="100%" id="linearGradient-1">
            <stop stop-color="#18E5C9" offset="0%"></stop>
            <stop stop-color="#0AC798" offset="100%"></stop>
        </linearGradient>
    </defs>
    <g id="页面-1" stroke="none" stroke-width="1" fill="none" fill-rule="evenodd">
        <g id="进销存工作台-终稿" transform="translate(-686.000000, -509.000000)">
            <g id="3" transform="translate(215.000000, 443.000000)">
                <g id="核算数据" transform="translate(471.000000, 66.000000)">
                    <circle id="椭圆形" fill="url(#linearGradient-1)" cx="24" cy="24" r="24"></circle>
                    <g id="盘点管理" transform="translate(10.000000, 10.000000)" fill-rule="nonzero">
                        <rect id="矩形" fill="#000000" opacity="0" x="0" y="0" width="28" height="28"></rect>
                        <path d="M14.8121094,19.1871094 C14.8121094,20.6368568 15.9873619,21.8121094 17.4371094,21.8121094 C18.8868568,21.8121094 20.0621094,20.6368568 20.0621094,19.1871094 C20.0621094,17.7373619 18.8868568,16.5621094 17.4371094,16.5621094 C15.9873619,16.5621094 14.8121094,17.7373619 14.8121094,19.1871094 Z M21.875,2.625 L18.375,2.625 L18.375,7.875 L23.625,7.875 L23.625,4.375 C23.625,3.4125 22.8375,2.625 21.875,2.625 Z M17.5,9.625 C17.01875,9.625 16.625,9.23125 16.625,8.75 L16.625,2.625 L6.125,2.625 C5.1625,2.625 4.375,3.4125 4.375,4.375 L4.375,23.625 C4.375,24.5875 5.1625,25.375 6.125,25.375 L21.875,25.375 C22.0308594,25.375 22.1839844,25.353125 22.3261719,25.3148437 L19.8515625,22.8375 C19.1597656,23.296875 18.33125,23.5621094 17.4398437,23.5621094 C15.0226562,23.5621094 13.0648437,21.6042969 13.0648437,19.1871094 C13.0648437,16.7699219 15.0226562,14.8121094 17.4398437,14.8121094 C19.8570312,14.8121094 21.8148437,16.7699219 21.8148437,19.1871094 C21.8148437,20.0785156 21.546875,20.9070312 21.0902344,21.5988281 L23.5675781,24.0761719 C23.6058594,23.93125 23.6277344,23.7808594 23.6277344,23.625 L23.6277344,9.625 L17.5,9.625 Z M11.3695312,16.3679688 C11.2109375,16.5265625 10.9921875,16.625 10.7515625,16.625 L8.1265625,16.625 C7.6453125,16.625 7.2515625,16.23125 7.2515625,15.75 C7.2515625,15.509375 7.35,15.290625 7.50859375,15.1320312 C7.6671875,14.9734375 7.8859375,14.875 8.1265625,14.875 L10.7515625,14.875 C11.2328125,14.875 11.6265625,15.26875 11.6265625,15.75 C11.6265625,15.990625 11.528125,16.209375 11.3695312,16.3679688 Z M19.2445312,12.8679688 C19.0859375,13.0265625 18.8671875,13.125 18.6265625,13.125 L8.1265625,13.125 C7.6453125,13.125 7.2515625,12.73125 7.2515625,12.25 C7.2515625,12.009375 7.35,11.790625 7.50859375,11.6320312 C7.6671875,11.4734375 7.8859375,11.375 8.1265625,11.375 L18.6265625,11.375 C19.1078125,11.375 19.5015625,11.76875 19.5015625,12.25 C19.5015625,12.490625 19.403125,12.709375 19.2445312,12.8679688 Z" id="形状" fill="#FFFFFF"></path>
                    </g>
                </g>
            </g>
        </g>
    </g>
</svg>