<?xml version="1.0" encoding="UTF-8"?>
<svg width="48px" height="48px" viewBox="0 0 48 48" version="1.1" xmlns="http://www.w3.org/2000/svg" xmlns:xlink="http://www.w3.org/1999/xlink">
    <title>调拨</title>
    <defs>
        <linearGradient x1="50%" y1="0%" x2="50%" y2="100%" id="linearGradient-1">
            <stop stop-color="#A6C1FA" offset="0%"></stop>
            <stop stop-color="#6D8EF2" offset="100%"></stop>
        </linearGradient>
    </defs>
    <g id="页面-1" stroke="none" stroke-width="1" fill="none" fill-rule="evenodd">
        <g id="进销存工作台-终稿" transform="translate(-824.000000, -509.000000)">
            <g id="3" transform="translate(215.000000, 443.000000)">
                <g id="核算数据" transform="translate(609.000000, 66.000000)">
                    <circle id="椭圆形" fill="url(#linearGradient-1)" cx="24" cy="24" r="24"></circle>
                    <g id="调拨入库" transform="translate(5.000000, 5.000000)" fill-rule="nonzero">
                        <rect id="矩形" fill="#000000" opacity="0" x="0" y="0" width="38" height="38"></rect>
                        <path d="M15.3798667,8.23586665 C15.9802667,7.885 17.0278,7.6 17.7447333,7.6 L20.2552667,7.6 C20.9608,7.6 22.0222667,7.88626665 22.6201333,8.23586665 L29.3132,12.1460667 C29.9136,12.4969333 30.4,13.3494 30.4,14.0422667 L30.4,23.9577333 C30.4,24.6544 29.9110667,25.5030667 29.3132,25.8539333 L22.6201333,29.7641333 C22.0197333,30.115 20.9722,30.4 20.2552667,30.4 L17.7447333,30.4 C17.0392,30.4 15.9777333,30.1137333 15.3798667,29.7641333 L8.6868,25.8539333 C8.0864,25.5030667 7.6,24.6493333 7.6,23.9577333 L7.6,14.0422667 C7.6,13.3456 8.08893335,12.4969333 8.6868,12.1460667 L15.3798667,8.23586665 Z M16.7111333,12.6565333 L16.7111333,16.2754 L13.4114667,16.2754 C12.6970667,16.2754 12.5628,16.6554 13.091,17.1240667 L17.1063333,20.6897333 C18.1576667,21.6232667 19.8461333,21.6182 20.8924,20.6897333 L24.9077333,17.1228 C25.4321333,16.6566667 25.2902667,16.2754 24.5872667,16.2754 L21.2863333,16.2754 L21.2863333,12.6552667 C21.2863333,11.9586 20.7163333,11.3999081 20.0120667,11.3999081 L17.9854,11.3999081 C17.6495067,11.3959432 17.3259193,11.5262794 17.0866121,11.7620183 C16.847305,11.9977573 16.7121227,12.3193503 16.7111333,12.6552667 L16.7111333,12.6565333 Z M12.6666667,21.5333333 L12.6666667,25.3333333 L19,27.8666667 L25.3333333,25.3333333 L25.3333333,21.5333333 L19,24.0666667 L12.6666667,21.5333333 Z" id="形状" fill="#FFFFFF"></path>
                    </g>
                </g>
            </g>
        </g>
    </g>
</svg>