<?xml version="1.0" encoding="UTF-8"?>
<svg width="48px" height="48px" viewBox="0 0 48 48" version="1.1" xmlns="http://www.w3.org/2000/svg" xmlns:xlink="http://www.w3.org/1999/xlink">
    <title>事务处理</title>
    <defs>
        <linearGradient x1="50%" y1="0%" x2="50%" y2="100%" id="linearGradient-1">
            <stop stop-color="#A6C1FA" offset="0%"></stop>
            <stop stop-color="#6D8EF2" offset="100%"></stop>
        </linearGradient>
    </defs>
    <g id="页面-1" stroke="none" stroke-width="1" fill="none" fill-rule="evenodd">
        <g id="进销存工作台-终稿" transform="translate(-548.000000, -509.000000)">
            <g id="3" transform="translate(215.000000, 443.000000)">
                <g id="分组-5-copy-3" transform="translate(329.000000, 66.000000)">
                    <g id="核算数据" transform="translate(4.000000, 0.000000)">
                        <circle id="椭圆形" fill="url(#linearGradient-1)" cx="24" cy="24" r="24"></circle>
                        <g id="计划处理中" transform="translate(12.000000, 10.800000)" fill="#FFFFFF" fill-rule="nonzero">
                            <path d="M18.9968063,14.5962656 C22.0203844,14.5962656 24.4713656,17.0476406 24.4716469,20.0711063 C24.4716469,23.0945438 22.0203844,25.5462281 18.9968063,25.5462281 C15.9732281,25.5462281 13.5219656,23.0945438 13.5219656,20.0711063 C13.5219656,17.0476406 15.9732281,14.5962656 18.9968063,14.5962656 Z M3.0983625,3.11229375 L3.0983625,4.23552188 C3.0983625,5.4762 4.13865,6.48169688 5.42174063,6.48169688 C6.70494375,6.48169688 7.74509063,5.47605938 7.74509063,4.23552188 L7.74509063,4.23552188 L7.74509063,3.11229375 L8.90685,3.11229375 L8.90685,4.23552188 C8.90685,5.4762 9.94710938,6.48169688 11.2302,6.48169688 C12.5135438,6.48169688 13.55355,5.47605938 13.55355,4.23552188 L13.55355,4.23552188 L13.55355,3.11229375 L14.7150563,3.11229375 L14.7150563,4.23552188 C14.7150563,5.4762 15.7553156,6.48169688 17.0385469,6.48169688 C18.3217781,6.48169688 19.3620375,5.47605938 19.3620375,4.23552188 L19.3620375,4.23552188 L19.3620375,3.11229375 L21.2986406,3.11229375 C21.9402563,3.11229375 22.4601188,3.61530938 22.4601188,4.23552188 L22.4601188,4.23552188 L22.4601188,14.70165 C21.467475,14.0640563 20.2874906,13.6926656 19.0200656,13.6926656 C18.0131063,13.6926656 17.061525,13.9270594 16.2145688,14.3425781 L16.2145688,14.3425781 L4.2600375,14.3425781 C3.61814063,14.3425781 3.0981375,14.8453125 3.0981375,15.4658063 C3.0981375,16.0857375 3.61816875,16.5885 4.2600375,16.5885 L4.2600375,16.5885 L13.6786219,16.5885 C13.1735813,17.3623031 12.8321719,18.2519531 12.7030781,19.2089906 L12.7030781,19.2089906 L4.0663125,19.2089906 C3.53145938,19.2089906 3.0981375,19.628025 3.0981375,20.1446813 C3.0981375,20.6613375 3.53145938,21.0805969 4.0663125,21.0805969 L4.0663125,21.0805969 L12.7238344,21.0805969 C12.9596625,22.5594094 13.7037375,23.8688531 14.7718125,24.8237813 L14.7718125,24.8237813 L1.16175938,24.8237813 C0.52014375,24.8237813 4.61852778e-14,24.3210469 4.61852778e-14,23.7010875 L4.61852778e-14,23.7010875 L4.61852778e-14,4.23552188 C4.61852778e-14,3.61502813 0.519890625,3.11229375 1.16175938,3.11229375 L1.16175938,3.11229375 L3.0983625,3.11229375 Z M19.1597344,21.7029469 L18.8222063,21.7029469 C18.6532313,21.7029469 18.4843969,21.8717813 18.4843969,22.0406156 L18.4843969,22.0406156 L18.4843969,23.1097875 C18.4843969,23.2786219 18.6534844,23.447175 18.8222063,23.447175 L18.8222063,23.447175 L19.1597344,23.447175 C19.3285688,23.447175 19.4975156,23.2786219 19.4975156,23.1097875 L19.4975156,23.1097875 L19.4975156,22.0406156 C19.4975156,21.8155875 19.3850156,21.7029469 19.1597344,21.7029469 L19.1597344,21.7029469 Z M17.8658156,21.1964438 C17.6403938,20.9714156 17.3028656,20.9714156 17.1341719,21.1964438 L17.1341719,21.1964438 L16.6278094,21.7029469 C16.4029219,21.927975 16.4029219,22.2658969 16.6278094,22.4347313 C16.85295,22.6597594 17.1906188,22.6597594 17.3593125,22.4347313 L17.3593125,22.4347313 L17.8658156,21.927975 C18.0905625,21.7029469 18.0905625,21.3655594 17.8658156,21.1964438 Z M20.8479094,21.1964438 C20.6227688,20.9714156 20.2852406,20.9714156 20.1162656,21.1964438 C19.8913781,21.421725 19.8913781,21.7593938 20.1162656,21.927975 L20.1162656,21.927975 L20.6227688,22.4347313 C20.8479094,22.6597594 21.1857188,22.6597594 21.3542719,22.4347313 C21.5794406,22.20945 21.5794406,21.8717813 21.3542719,21.7029469 L21.3542719,21.7029469 Z M17.0780906,19.5648563 L15.9524719,19.5648563 C15.7833563,19.5648563 15.6149438,19.6774969 15.6149438,19.902525 L15.6149438,19.902525 L15.6149438,20.2401938 C15.6149438,20.408775 15.7833844,20.5778344 15.9523031,20.5778344 L15.9523031,20.5778344 L17.0216156,20.5778344 C17.246925,20.5778344 17.4154781,20.465475 17.4154781,20.2401938 L17.4154781,20.2401938 L17.4154781,19.902525 C17.4154781,19.7334094 17.2466438,19.5648563 17.0780906,19.5648563 L17.0780906,19.5648563 Z M22.0294688,19.5648563 L20.9601563,19.5648563 C20.7911813,19.5648563 20.6224875,19.7336906 20.6224875,19.902525 L20.6224875,19.902525 L20.6224875,20.2401938 C20.6224875,20.409 20.7914625,20.5778344 20.9601563,20.5778344 L20.9601563,20.5778344 L22.0294688,20.5778344 C22.1984438,20.5778344 22.3671375,20.4087469 22.3671375,20.2401938 L22.3671375,20.2401938 L22.3671375,19.902525 C22.3671375,19.6774969 22.1981625,19.5648563 22.0294688,19.5648563 L22.0294688,19.5648563 Z M21.3540469,17.7079875 C21.1290188,17.4829594 20.7912094,17.4829594 20.6225156,17.7079875 L20.6225156,17.7079875 L20.1160125,18.2144906 C19.8913781,18.4394906 19.8913781,18.7769063 20.1160125,18.9457406 C20.3414344,19.1713031 20.6791031,19.1713031 20.847825,18.9457406 L20.847825,18.9457406 L21.3540469,18.4397719 C21.5794688,18.2144906 21.5794688,17.8768219 21.3540469,17.7079875 Z M17.3595938,17.7079875 C17.1341719,17.4826781 16.7965031,17.4826781 16.6278094,17.7079875 C16.4029219,17.9332688 16.4029219,18.2706563 16.6278094,18.4394906 L16.6278094,18.4394906 L17.1341719,18.9457406 C17.3032594,19.1710219 17.6403938,19.1710219 17.8658156,18.9457406 C18.0905625,18.7207125 18.0905625,18.383325 17.8658156,18.2142094 L17.8658156,18.2142094 Z M19.1597344,16.6949813 L18.8222063,16.6949813 C18.5967563,16.6949813 18.4843969,16.8638156 18.4843969,17.03265 L18.4843969,17.03265 L18.4843969,18.1018219 C18.4843969,18.2706563 18.6534844,18.4394906 18.8222063,18.4394906 L18.8222063,18.4394906 L19.1597344,18.4394906 C19.3285688,18.4394906 19.4975156,18.2704031 19.4975156,18.1018219 L19.4975156,18.1018219 L19.4975156,17.03265 C19.4975156,16.8635344 19.3850156,16.6949813 19.1597344,16.6949813 L19.1597344,16.6949813 Z M18.2006719,9.47599688 L4.2600375,9.47599688 C3.61816875,9.47599688 3.0981375,9.9790125 3.0981375,10.599225 C3.0981375,11.2194375 3.61816875,11.7221719 4.2600375,11.7221719 L4.2600375,11.7221719 L18.2006719,11.7221719 C18.8421469,11.7221719 19.3622906,11.2194375 19.3622906,10.599225 C19.3622906,9.9790125 18.8424,9.47599688 18.2006719,9.47599688 L18.2006719,9.47599688 Z M5.42151563,0.866259375 C6.06313125,0.866259375 6.583275,1.36899375 6.583275,1.9894875 L6.583275,1.9894875 L6.583275,4.23552188 C6.583275,4.85559375 6.06313125,5.35846875 5.42151563,5.35846875 C4.7799,5.35846875 4.2600375,4.85573438 4.2600375,4.23552188 L4.2600375,4.23552188 L4.2600375,1.9894875 C4.2600375,1.36899375 4.7799,0.866259375 5.42151563,0.866259375 Z M17.0390531,0.866259375 C17.6803875,0.866259375 18.2005313,1.36899375 18.2005313,1.9894875 L18.2005313,1.9894875 L18.2005313,4.23552188 C18.2005313,4.85559375 17.6806688,5.35846875 17.0390531,5.35846875 C16.3972969,5.35846875 15.8771813,4.85573438 15.8772656,4.23552188 L15.8772656,4.23552188 L15.8772656,1.9894875 C15.8772656,1.36899375 16.3972969,0.866259375 17.0390531,0.866259375 Z M11.2302844,0.866259375 C11.8716188,0.866259375 12.3917625,1.36899375 12.3917625,1.9894875 L12.3917625,1.9894875 L12.3917625,4.23552188 C12.3917625,4.85559375 11.8717594,5.35846875 11.2302844,5.35846875 C10.5884156,5.35846875 10.068525,4.85573438 10.0688061,4.23552188 L10.0688061,4.23552188 L10.0688061,1.9894875 C10.0688061,1.36899375 10.5886688,0.866259375 11.2302844,0.866259375 Z" id="形状结合"></path>
                        </g>
                    </g>
                </g>
            </g>
        </g>
    </g>
</svg>