<?xml version="1.0" encoding="UTF-8"?>
<svg width="30px" height="34px" viewBox="0 0 30 34" version="1.1" xmlns="http://www.w3.org/2000/svg" xmlns:xlink="http://www.w3.org/1999/xlink">
    <title>word切图</title>
    <g id="页面-1" stroke="none" stroke-width="1" fill="none" fill-rule="evenodd">
        <g id="进销存工作台-终稿" transform="translate(-814.000000, -695.000000)">
            <g id="文件-安装包（未上传）" transform="translate(814.000000, 695.000000)">
                <path d="M3.26388889,1.85037171e-15 C1.80555556,1.85037171e-15 0.607638889,1.19791667 0.607638889,2.65625 L0.607638889,30.6770833 C0.607638889,32.1354167 1.80555556,33.3333333 3.26388889,33.3333333 L27.0659722,33.3333333 C28.5243056,33.3333333 29.7222222,32.1354167 29.7222222,30.6770833 L29.7222222,10.5729167 L19.8784722,0 L3.26388889,0 L3.26388889,1.85037171e-15 Z" id="Shape" fill="#327AFB"></path>
                <rect id="Rectangle" fill="#FFFFFF" x="5" y="18.3333333" width="11.6666667" height="1.66666667" rx="0.416666667"></rect>
                <rect id="Rectangle" fill="#FFFFFF" x="5" y="22.5" width="11.6666667" height="1.66666667" rx="0.416666667"></rect>
                <rect id="Rectangle" fill="#FFFFFF" x="5" y="26.6666667" width="11.6666667" height="1.66666667" rx="0.416666667"></rect>
                <path d="M29.7222222,10.625 L29.7222222,11.1458333 L23.0555556,11.1458333 C23.0555556,11.1458333 19.7743056,10.46875 19.8263889,7.60416667 C19.8263889,7.60416667 19.9826389,10.625 23.0034722,10.625 L29.7222222,10.625 Z" id="Shape" fill="#6C7880" opacity="0.5"></path>
                <path d="M19.8784722,0 L19.8784722,7.60416667 C19.8784722,8.4375 20.4513889,10.625 23.0555556,10.625 L29.7222222,10.625 L19.8784722,0 Z" id="Shape" fill="#FFFFFF" opacity="0.5"></path>
            </g>
        </g>
    </g>
</svg>