<?xml version="1.0" encoding="UTF-8"?>
<svg width="48px" height="48px" viewBox="0 0 48 48" version="1.1" xmlns="http://www.w3.org/2000/svg" xmlns:xlink="http://www.w3.org/1999/xlink">
    <title>出库</title>
    <defs>
        <linearGradient x1="50%" y1="0%" x2="50%" y2="100%" id="linearGradient-1">
            <stop stop-color="#C9B7F2" offset="0%"></stop>
            <stop stop-color="#9880E0" offset="100%"></stop>
        </linearGradient>
    </defs>
    <g id="页面-1" stroke="none" stroke-width="1" fill="none" fill-rule="evenodd">
        <g id="进销存工作台-终稿" transform="translate(-413.000000, -509.000000)">
            <g id="3" transform="translate(215.000000, 443.000000)">
                <g id="询比价" transform="translate(198.000000, 66.000000)">
                    <g id="待审批业务" fill="url(#linearGradient-1)">
                        <circle id="椭圆形" cx="24" cy="24" r="24"></circle>
                    </g>
                    <g id="出库管理" transform="translate(12.000000, 12.000000)" fill-rule="nonzero">
                        <rect id="矩形" fill="#000000" opacity="0" x="0" y="0" width="24" height="24"></rect>
                        <path d="M8.16165141,22.5269005 C8.64115971,20.4490312 12.3873183,20.4490312 12.8668267,22.5269005 L15.1544809,22.5269005 C16.1534565,22.5269005 16.2333745,22.3271054 16.2333745,21.5279249 L16.2333745,16.2833028 C16.2333745,14.1055359 16.5530467,14.2853516 14.1754847,14.2853516 L7.27256311,14.2853516 C6.27358748,14.2853516 6.19366943,14.4351979 6.19366941,15.2143989 L6.19366941,20.5089697 C6.14646322,21.0887463 6.16657679,21.6720397 6.25360795,22.2471874 C6.38347479,22.466962 6.6332187,22.5368903 7.05278845,22.5368903 L8.16165141,22.5269005 Z M23.3960298,18.980537 C22.940887,18.3404636 22.4184343,17.7510298 21.8376278,17.2223399 C21.707761,17.1024629 21.5778942,16.9825858 21.4879864,16.8826882 C21.2431709,16.5831147 20.8758851,16.4104904 20.4890107,16.4131389 L17.442135,16.4131389 C16.9726165,16.4631184 16.8727189,16.7628111 16.8727189,17.1524116 L16.8727189,21.9075356 C16.8480378,22.0870264 16.9058702,22.2680492 17.0300444,22.3999843 C17.1542186,22.5319194 17.3314075,22.6006067 17.5120633,22.5868391 C18.0515102,20.6588161 20.9085805,20.5888878 21.9275356,21.9574844 C22.0363812,22.1613969 22.1331165,22.371546 22.2172386,22.5868391 C23.7456713,22.7366854 23.5458762,22.1972386 23.5458762,21.2482117 C23.6257576,20.4893087 23.5750762,19.7223303 23.3960298,18.980537 L23.3960298,18.980537 Z M18.9106292,19.4700351 L18.9106292,17.3721863 L20.4690312,17.3721863 C20.9185703,17.3721863 21.0084781,17.7218277 21.258222,17.9915512 C21.5079659,18.2612746 22.4370132,19.1603527 22.4669825,19.4300761 C21.4879864,19.4300761 19.8296868,19.4500556 18.9106292,19.4300761 L18.9106292,19.4700351 Z M10.1695924,21.6178327 C9.43035047,21.767679 8.77102655,22.3071259 9.02077045,23.0663474 C9.33764082,23.7731633 10.1205857,24.1455911 10.8688754,23.9454459 C11.5981276,23.8155791 12.2274822,23.2361732 12.0376769,22.5269005 C11.717339,21.8114295 10.9302749,21.4284198 10.1695924,21.6178327 L10.1695924,21.6178327 Z M19.7997176,21.5978532 C18.9705678,21.6677815 18.3012541,22.1572796 18.3711824,22.8665523 C18.5409253,23.6276705 19.2827557,24.1178084 20.0494615,23.9754152 C20.848642,23.9754152 21.5179556,23.3560503 21.4480273,22.6767469 C21.2454151,21.9557313 20.5415686,21.4950318 19.7997176,21.5978532 Z M23.346081,5.15471428 L22.2272283,4.63524694 L21.8376278,4.44544158 L21.0584269,4.10578985 C19.6798405,3.51639422 17.9116536,2.63729566 16.5330672,2.10783858 L12.3473593,0.269723414 C11.5881378,-0.0699283125 11.7779432,-0.0699283125 11.1985373,0.169825852 L7.4323992,1.92802298 L6.67317771,2.26767469 L0.679323914,5.07479623 C0.519487805,5.17469379 2.04844033e-05,5.32454013 2.04844033e-05,5.51434549 L2.04844033e-05,23.4059991 L4.36554401,23.4059991 L4.36554401,8.78099583 L19.6498712,8.78099583 L19.6498712,11.7179842 L23.9954152,11.7179842 L23.9954152,5.56429427 C23.9954152,5.34451964 23.5558659,5.22464255 23.346081,5.15471428 Z M16.4231799,5.34451964 L13.6460276,7.42238897 C13.5935326,7.46316031 13.5228278,7.4716476 13.4621749,7.44445836 C13.401522,7.41726912 13.3608149,7.35883857 13.3563247,7.29252213 L13.3563247,5.86398696 C13.3458438,5.76859588 13.2623026,5.69824543 13.1665193,5.70415087 L7.01282944,5.70415087 C6.96608435,5.70690543 6.92027623,5.69023669 6.88623299,5.65808473 C6.85218974,5.62593277 6.83301357,5.58115111 6.83301357,5.534325 L6.83301357,4.89498061 C6.8355867,4.84991155 6.85599758,4.80772137 6.88973746,4.77773037 C6.92347734,4.74773936 6.96776955,4.73241568 7.01282944,4.7351445 L13.1265603,4.7351445 C13.2240556,4.73568601 13.3061044,4.66227393 13.3163657,4.56531865 L13.3163657,3.1367835 C13.2881197,3.04829119 13.3319259,2.95284925 13.4174396,2.9165707 C13.5029533,2.88029216 13.6020251,2.91511916 13.6460276,2.9969269 L16.4231799,5.09477573 C16.4650338,5.12253844 16.4901956,5.16942305 16.4901956,5.21964769 C16.4901956,5.26987232 16.4650338,5.31675693 16.4231799,5.34451964 L16.4231799,5.34451964 Z" id="形状" fill="#FFFFFF"></path>
                    </g>
                </g>
            </g>
        </g>
    </g>
</svg>