<?xml version="1.0" encoding="UTF-8"?>
<svg width="48px" height="48px" viewBox="0 0 48 48" version="1.1" xmlns="http://www.w3.org/2000/svg" xmlns:xlink="http://www.w3.org/1999/xlink">
    <title>品质云</title>
    <defs>
        <linearGradient x1="50%" y1="0%" x2="50%" y2="100%" id="linearGradient-1">
            <stop stop-color="#4AE1FA" offset="0%"></stop>
            <stop stop-color="#24BFF2" offset="100%"></stop>
        </linearGradient>
    </defs>
    <g id="页面-1" stroke="none" stroke-width="1" fill="none" fill-rule="evenodd">
        <g id="进销存工作台-终稿" transform="translate(-962.000000, -509.000000)">
            <g id="3" transform="translate(215.000000, 443.000000)">
                <g id="核算数据" transform="translate(747.000000, 66.000000)">
                    <circle id="椭圆形" fill="url(#linearGradient-1)" cx="24" cy="24" r="24"></circle>
                    <g id="品质供应商" transform="translate(13.000000, 13.000000)" fill-rule="nonzero">
                        <rect id="矩形" fill="#000000" opacity="0" x="0" y="0" width="22" height="22"></rect>
                        <path d="M18.5777778,11.99 C19.1277778,10.89 19.4455556,9.64333333 19.4455556,8.32333333 C19.4455556,3.72777778 15.6566667,0 11,0 C6.3311111,0 2.55444445,3.72777778 2.55444445,8.32333333 C2.55444445,9.64333333 2.87222222,10.8777778 3.42222222,11.99 L0,17.8322222 C0,17.8322222 2.17555555,18.2722222 4.37555555,18.7244444 C5.84222222,20.3622222 7.30888888,22 7.30888888,22 L10.4622222,16.6222222 C10.6455556,16.6222222 10.8166667,16.6466667 11,16.6466667 C11.1833333,16.6466667 11.3544444,16.6344444 11.5377778,16.6222222 L14.6911111,22 C14.6911111,22 16.1577778,20.3622222 17.6244444,18.7244444 C19.8244444,18.2722222 22,17.8322222 22,17.8322222 L18.5777778,11.99 Z M11,15.1311111 C7.2111111,15.1311111 4.1311111,12.0511111 4.1311111,8.25 C4.1311111,4.4488889 7.2111111,1.3688889 11,1.3688889 C14.7888889,1.3688889 17.8688889,4.4488889 17.8688889,8.25 C17.8688889,12.0511111 14.7888889,15.1311111 11,15.1311111 Z M5.51222222,8.25 C5.51222222,11.2875661 7.96918402,13.75 11,13.75 C14.030816,13.75 16.4877778,11.2875661 16.4877778,8.25 C16.4877778,5.21243388 14.030816,2.75 11,2.75 C7.96918402,2.75 5.51222222,5.21243388 5.51222222,8.25 Z" id="形状" fill="#FFFFFF"></path>
                    </g>
                </g>
            </g>
        </g>
    </g>
</svg>