<?xml version="1.0" encoding="UTF-8"?>
<svg width="56px" height="56px" viewBox="0 0 56 56" version="1.1" xmlns="http://www.w3.org/2000/svg" xmlns:xlink="http://www.w3.org/1999/xlink">
    <title>默认头像</title>
    <g id="页面-1" stroke="none" stroke-width="1" fill="none" fill-rule="evenodd">
        <g id="进销存工作台-终稿" transform="translate(-231.000000, -73.000000)" fill-rule="nonzero">
            <g id="编组-4" transform="translate(199.000000, 41.000000)">
                <g id="默认头像" transform="translate(32.000000, 32.000000)">
                    <rect id="矩形" fill="#000000" opacity="0" x="0" y="0" width="56" height="56"></rect>
                    <path d="M0,28 C0,43.463973 12.536027,56 28,56 C43.463973,56 56,43.463973 56,28 C56,12.536027 43.463973,0 28,0 C12.536027,0 0,12.536027 0,28 Z" id="路径" fill="#B0B9BF"></path>
                    <path d="M51.1067586,43.8113103 C50.4724138,37.6406897 45.2595862,32.8275862 38.9209655,32.8275862 L33.18,32.8275862 C32.830463,32.8275862 32.4952421,32.6887332 32.248082,32.4415731 C32.000922,32.1944131 31.862069,31.8591922 31.862069,31.5096552 L31.862069,30.8868966 C31.862069,30.324 32.228,29.8422069 32.7551724,29.6442759 C38.3590345,27.5375173 42.196,18.3438621 41.4168276,11.8468966 C40.6811034,5.71489658 35.6951724,0.773379305 29.5583448,0.0868965781 C29.0662085,0.0319523909 28.5714671,0.00358934966 28.0762759,0.00193101563 L28.029931,0.000932230389 C20.5510345,-0.0154482891 14.4827586,6.0422069 14.4827586,13.5172414 C14.4827586,19.3335173 18.1584827,27.7634483 23.3124138,29.6693793 C23.8173793,29.8557241 24.137931,30.3577931 24.137931,30.8965517 L24.137931,31.5096552 C24.137931,32.2376552 23.548,32.8275862 22.82,32.8275862 L17.0790345,32.8275862 C10.7404138,32.8275862 5.5275862,37.6406896 4.89324139,43.8113103 C9.93806898,51.1704828 18.4037241,56 28,56 C37.5962759,56 46.061931,51.1704828 51.1067586,43.8113103 Z" id="路径" fill="#F2D5B5"></path>
                    <path d="M32.3371034,6.38206898 C35.924,7.36786209 39.3013793,9.57406898 41.4641379,12.486069 C41.4486896,12.2726897 41.441931,12.0544828 41.4168276,11.845931 C40.6811034,5.71489658 35.6951724,0.773379305 29.5583448,0.0868965781 C29.0662085,0.0319523909 28.5714671,0.00358934966 28.0762759,0.00193101562 L28.029931,0.000933072551 C21.3485517,-0.0135172734 15.8064827,4.82372412 14.698069,11.1845517 L14.7028966,11.1845517 C14.8757242,11.427862 15.0446897,11.6740689 15.2291034,11.9086897 C15.2966896,11.8246897 15.3652413,11.7416552 15.4347586,11.6595862 C17.3657931,9.36165519 20.5915862,8.82965519 23.3355862,10.0462069 C25.0117087,10.7862215 26.9164546,10.8140235 28.6134612,10.1232437 C30.3104678,9.4324639 31.6543027,8.08230167 32.3371034,6.38206898 L32.3371034,6.38206898 Z" id="路径" fill="#38454F"></path>
                    <path d="M51.1067586,43.8113103 C50.4724138,37.6406897 45.2586207,32.8275862 38.9209655,32.8275862 L37.6551724,32.8275862 L31.862069,38.6206897 L24.137931,38.6206897 L21.2413793,36.6896552 L17.9306207,32.8275862 L17.0790345,32.8275862 C10.7413793,32.8275862 5.5275862,37.6406896 4.89324139,43.8113103 C9.93806898,51.1704828 18.4037241,56 28,56 C37.5962759,56 46.061931,51.1704828 51.1067586,43.8113103 Z" id="路径" fill="#E7ECED"></path>
                    <path d="M41.5172414,52.5164138 C42.1786207,52.1504828 42.8206897,51.7546207 43.4482759,51.3384828 L43.4482759,45.3793103 L41.5172414,45.3793103 L41.5172414,52.5164138 Z M14.4827586,52.5164138 L14.4827586,45.3793103 L12.5517241,45.3793103 L12.5517241,51.3384828 C13.1793103,51.7546207 13.8213793,52.1504828 14.4827586,52.5164138 Z" id="形状" fill="#CCD5D6"></path>
                    <polygon id="路径" fill="#9BA4AA" points="25.1034483 36.6896552 30.8965517 36.6896552 30.8965517 42.4827586 25.1034483 42.4827586"></polygon>
                    <path d="M24.1002759,55.7238621 C25.3747587,55.9015173 26.6762759,56 28,56 C29.3343448,56 30.6445517,55.9005517 31.9286897,55.72 L29.9310345,42.4827586 L26.0689655,42.4827586 L24.1002759,55.7238621 Z" id="路径" fill="#B0B9BF"></path>
                    <path d="M25.1034483,37.462069 L21.2413793,32.8275862 L16.5528276,32.8275862 C16.5215284,32.8275862 16.4922777,32.8431556 16.4746937,32.8690486 C16.4571097,32.8949415 16.4534678,32.9278546 16.4649655,32.9569655 L20.2758621,42.4827586 L25.1034483,39.2646897 L25.1034483,37.462069 Z M39.4471724,32.8275856 L34.7586207,32.8275856 L30.8965517,37.462069 L30.8965517,39.2646897 L35.7241379,42.4827586 L39.534069,32.9569655 C39.5460138,32.928019 39.5427013,32.8950179 39.5252419,32.8690228 C39.5077825,32.8430277 39.4784864,32.8274783 39.4471724,32.8275856 L39.4471724,32.8275856 Z" id="形状" fill="#FFFFFF"></path>
                </g>
            </g>
        </g>
    </g>
</svg>