<?xml version="1.0" encoding="UTF-8"?>
<svg width="48px" height="48px" viewBox="0 0 48 48" version="1.1" xmlns="http://www.w3.org/2000/svg" xmlns:xlink="http://www.w3.org/1999/xlink">
    <title>入库</title>
    <defs>
        <linearGradient x1="50%" y1="0%" x2="50%" y2="100%" id="linearGradient-1">
            <stop stop-color="#93D1FA" offset="0%"></stop>
            <stop stop-color="#5AA5F2" offset="100%"></stop>
        </linearGradient>
    </defs>
    <g id="页面-1" stroke="none" stroke-width="1" fill="none" fill-rule="evenodd">
        <g id="进销存工作台-终稿" transform="translate(-278.000000, -509.000000)">
            <g id="3" transform="translate(215.000000, 443.000000)">
                <g id="预算采购计划" transform="translate(63.000000, 66.000000)">
                    <circle id="椭圆形" fill="url(#linearGradient-1)" cx="24" cy="24" r="24"></circle>
                    <g id="icon_采购入库" transform="translate(12.000000, 12.000000)" fill-rule="nonzero">
                        <rect id="矩形" fill="#000000" opacity="0" x="0" y="0.00814422057" width="24" height="24"></rect>
                        <path d="M21.7426982,20.246484 C21.7426982,20.246484 21.7546848,23.3953768 21.7426982,23.2454295 C21.7855828,23.4545286 21.7206255,23.6712009 21.5698038,23.8221386 C21.418982,23.9730762 21.202476,24.0380834 20.9935374,23.9951659 L3.01367778,23.9951659 C2.80509467,24.0360906 2.58984051,23.97042 2.43954217,23.8200062 C2.28924384,23.6695924 2.22362362,23.4541729 2.26451697,23.2454295 L2.26451697,9.75017453 L1.92964207,9.74042796 C1.57590382,10.0010759 1.10888991,10.0496562 0.709148738,9.86738771 C0.309407569,9.68511919 0.0395847902,9.30056612 0.00399437198,8.86239741 C-0.0315960463,8.4242287 0.172623466,8.00111219 0.53770128,7.75662546 L11.2904065,0.228522403 C11.724646,-0.0653151736 12.2938066,-0.0653151736 12.7280461,0.228522403 L23.4770055,7.75662546 C24.02811,8.13840303 24.1656266,8.89499005 23.7841615,9.44653127 C23.3955283,9.99288618 22.6393796,10.1234145 22.0903089,9.73892847 L21.7426982,9.75017453 L21.7426982,18.7470112 L17.2477333,18.7470112 L17.2477333,16.497802 C17.1007778,16.4653071 16.9481609,16.5194186 16.8544239,16.637253 L12.8584001,19.1218794 C12.7957858,19.1537101 12.7563417,19.2180373 12.7563417,19.2883208 C12.7563417,19.3586044 12.7957858,19.4229316 12.8584001,19.4547623 L16.8544239,21.9416379 C16.9317811,21.9790068 17.022057,21.9784805 17.0989739,21.9402124 C17.1758909,21.9019443 17.2308056,21.8302347 17.2477333,21.7459567 L17.2477333,20.246484 L21.7426982,20.246484 Z M5.56082456,9.75542268 C5.41314265,9.75536118 5.285192,9.85786265 5.25291948,10.002086 L5.25291948,10.9977359 C5.30286684,11.1610157 5.46260748,11.2649585 5.63199486,11.2443991 L8.62114651,11.2443991 C8.79045389,11.2636282 8.94954337,11.1597944 9.00022189,10.9969861 L9.00022189,10.002086 C8.95133959,9.84007167 8.79366045,9.73623908 8.62564147,9.75542268 L5.63499148,9.75542268 C5.61037608,9.75216874 5.58543996,9.75216874 5.56082456,9.75542268 L5.56082456,9.75542268 Z M5.56082456,12.7401232 C5.41213763,12.7400845 5.28371891,12.8442117 5.25291948,12.9897855 L5.25291948,13.9981809 C5.3006287,14.1634493 5.46145081,14.269368 5.63199486,14.2478431 L8.62114651,14.2478431 C8.79108881,14.2668177 8.95041018,14.1618873 9.00022189,13.9981809 L9.00022189,12.9897855 C8.95251247,12.8265723 8.79451657,12.7212662 8.62564147,12.7401232 L5.63499148,12.7401232 C5.61037608,12.7368693 5.58543996,12.7368693 5.56082456,12.7401232 Z M10.0760168,12.7401232 C9.92727,12.7407971 9.79881151,12.8444522 9.7666134,12.9897855 L9.7666134,13.9981809 C9.81432262,14.1634493 9.97514473,14.269368 10.1456888,14.2478431 L13.1348405,14.2478431 C13.3049462,14.2660477 13.4642399,14.1615486 13.5154141,13.9981809 L13.5154141,12.9897855 C13.4666381,12.8253067 13.3065802,12.7198912 13.1363388,12.7401232 L10.1456888,12.7401232 C10.1218219,12.7369279 10.0976362,12.7369279 10.0737693,12.7401232 L10.0760168,12.7401232 Z M5.56082456,15.7480656 C5.41213764,15.7480268 5.28371892,15.8521541 5.25291948,15.9977278 L5.25291948,17.0061233 C5.30116611,17.1709946 5.46160258,17.2766594 5.63199486,17.2557855 L8.62114651,17.2557855 C8.79151447,17.2745934 8.95099204,17.1689293 9.00022189,17.0046238 L9.00022189,15.9962284 C8.95218524,15.8334216 8.79416333,15.7287307 8.62564147,15.7480656 L5.63499148,15.7480656 C5.61037608,15.7448117 5.58543996,15.7448117 5.56082456,15.7480656 Z M10.0760168,15.7480656 C9.92727001,15.7487395 9.79881152,15.8523945 9.7666134,15.9977278 L9.7666134,17.0061233 C9.81486002,17.1709946 9.9752965,17.2766594 10.1456888,17.2557855 L13.1348405,17.2557855 C13.3053673,17.2738169 13.4648131,17.1685898 13.5154141,17.0046238 L13.5154141,15.9962284 C13.4663123,15.8321536 13.3062265,15.727353 13.1363388,15.7480656 L10.1456888,15.7480656 C10.1218219,15.7448703 10.0976362,15.7448703 10.0737693,15.7480656 L10.0760168,15.7480656 Z" id="形状" fill="#FFFFFF"></path>
                    </g>
                </g>
            </g>
        </g>
    </g>
</svg>