<svg id="_1" xmlns="http://www.w3.org/2000/svg" xmlns:xlink="http://www.w3.org/1999/xlink" viewBox="0 0 335.3 338"><style>.st6{fill:#cbd2d6}.st7{fill:#b1b7ba}</style><g id="_2"><g id="_5"><linearGradient id="SVGID_1_" gradientUnits="userSpaceOnUse" x1="106.966" y1="40.507" x2="413.526" y2="189.477" gradientTransform="matrix(1 0 0 -1 0 340.47)"><stop offset="0" stop-color="#b1b7ba" stop-opacity=".94"/><stop offset=".77" stop-color="#b1b7ba" stop-opacity="0"/></linearGradient><path d="M274.5 189h-.3c-3.3 0-142.5 6.7-142.5 6.7-7.5.9-11.8 9.9-7.7 16.1l38.7 48.9c2.5 3.2 2 7.9-1.2 10.4l-.2.2-51.5 37.7c-1 .8-1.2 2-.2 3.5.2.4.5.7.8 1l.1.1.7.7.1.1.2.2.5.4.1.1.2.1.4.3.2.1.2.1.4.3.2.1.2.1.4.3.2.1.2.1.5.3.2.1.2.1.6.3.3.1h.1c.4.2.7.3 1.1.5h.1l.3.1.6.2.4.1.6.2H120l.9.2.3.1c.4.1.8.2 1.2.2h3.1l.4-.1H126.2l.3-.1H126.8l.3-.1.2-.1.2-.1.2-.1h.1l43.6-32c3.3-2.4 7.9-1.7 10.4 1.6.1.1.2.2.3.4l30.4 46.4c.2.3.4.6.7.8 2.5 2.4 6.3 2.6 9.2.6 5.4-3.7 18.1-11.3 22.6-15.1 3.4-2.9 89.3-120.6 89.3-120.6l.2-.4.1-.4.1-.2v-.2l.1-.4c0-.2.1-.3.1-.5v-.2c0-.1.1-.3.1-.4.1-.3.1-.7.1-1v-.1-.1-.4-.2-.1-.2-.2-.3-.2-.4.2-.1-.2-.4c0-.1 0-.3-.1-.4v-.1l-.1-.3v-.5l-.1-.3v-.1l-.2-.4v-.1l-.1-.1-.1-.2-.1-.2-.1-.1v-.1l-.2-.4v-.1l-.2-.3-.2-.3-.1-.1v-.1l-.1-.1-.3-.3-.2-.2-.3-.3-.3-.3-.2-.2-.4-.3-.1-.1-.1-.1-.2-.1-.4-.2h-.1l-.1-.1-.3-.1-.4-.2-.1-.1c-.3-.1-.5-.2-.8-.2h-.1c-.3-.1-.6-.1-.9-.2l-53.6 2zm-47.8 141l.1-.1-.1.1zm.6-.6zm.6-.6l.1-.2-.1.2zm.6-.7l.2-.2-.1.1-.1.1zm.5-.8l-.1.1.1-.2v.1zm-9.6 5.3zm.7 0zm.7 0zm2.4-.5l.2-.1-.2.1zm.7-.3l.2-.1h-.1l-.1.1zm.8-.4zm.7-.4l.2-.1-.2.1zm.8-.5" fill="url(#SVGID_1_)"/><path d="M244.4 244.8v-.1-.3-.6V243.5v-.2s0-.4-.1-.6v-.5c0-.2 0-.4-.1-.6l-.1-.3V241c0-.2-.1-.4-.1-.6l-.1-.3v-.2c-.1-.2-.1-.4-.2-.6l-.1-.4v-.2l-.2-.6-.2-.6-89.4-221-.2-.6-.2-.6-.1-.3v-.1l-.1-.2-.3-.6-.4-.7-.2-.3-.4-.6c-.3-.5-.6-1-.9-1.4l-.1-.1-.1-.1-.8-.9-.2-.3-.1-.1-.2-.2-.2-.3-.3-.4-.1-.1-.1-.1-.4-.5-.1-.1-.1-.2-.2-.3-.3-.3-.2-.1h-.1l-.4-.5h-.1l-.1-.1-.4-.4-.2-.2-.2-.2-.1-.1-.4-.3-.1-.1-.5-.4-.1-.1-.2-.1-.3-.2-.3-.2-.2-.1-.5-.3-.1-.1-.4-.2-.5-.2-.2-.1-.1-.1-.2-.1-.5-.2-.3-.1h-.1l-.5-.2-.4-.1h-.2l-.4-.1-.4-.1H137.3l-.4.1h-.2c-.3.1-.5.1-.8.2h-.1c-.3.1-.6.2-.8.4l-26.6 15.4-.1.1c-.8.4-1.3 1-1.8 1.7L3.6 136.4c-4.6 6.4 1.1 20.9 10.1 26.1l95.6 51.9-.4 97.5c0 1.7 1.1 3.4 3.3 4.6.5.3 1 .5 1.5.7h.2c.4.1.8.3 1.2.4h.1l.3.1.7.2h.5l.6.1h.5l.6.1h3.9c.4 0 .9-.1 1.3-.2h.1l.4-.1.6-.1.4-.1.6-.2h.1l.2-.1.9-.3.3-.1c.4-.2.7-.3 1.1-.5l.1-.1.3-.2.4-.3.3-.2.3-.3.1-.1.1-.1.5-.5.1-.1.1-.1c.1-.1.2-.3.3-.4l.1-.2v-.1c.1-.1.1-.2.2-.4s.1-.1.1-.2v-.1c0-.1.1-.2.1-.3s0-.1.1-.2 0 0 0-.1v-.4-.2-.1l.4-84.8 74.4 39.9c3.4 2 6.3 2.1 8.4.8l26.5-15.4c.2-.1.4-.3.6-.4l.2-.2c.1-.1.2-.2.4-.3l.2-.2c.1-.1.2-.2.3-.4l.2-.3.2-.2.1-.1c.1-.2.2-.3.3-.5s.1-.1.1-.2v-.1l.1-.3c0-.1.1-.2.1-.3l.1-.2.1-.2.1-.2c0-.1.1-.3.1-.4v-.1c0-.2.1-.4.1-.6V246.4c0-.2 0-.4.1-.5V245.6v-.2-.6c0-.2-.2.1-.2 0zm-26.9 11.9l-.1-.3v.2M113.5 17.7" fill="none" stroke="#dfe3e6" stroke-width="4" stroke-miterlimit="10"/><image width="101" height="59" xlink:href="DAC84FB8B2E16592.png" transform="matrix(.2647 0 0 .2608 77.43 158.82)" overflow="visible"/><linearGradient id="SVGID_2_" gradientUnits="userSpaceOnUse" x1="108.91" y1="131.415" x2="132.23" y2="131.415" gradientTransform="matrix(1 0 0 -1 0 340.47)"><stop offset="0" stop-color="#edf0f2"/><stop offset="1" stop-color="#cbd2d6"/></linearGradient><path d="M132.2 106.6v0c0-.2 0-.5-.1-.7 0-.2-.1-.4-.2-.6l-.3-.6c-.1-.2-.2-.4-.4-.6-.1-.2-.3-.4-.5-.6l-.6-.6-.7-.5-.8-.5c-.3-.2-.6-.3-.9-.4-.3-.1-.6-.3-.9-.4-.3-.1-.6-.2-1-.3-.4-.1-.7-.2-1-.3-.3-.1-.7-.2-1-.2s-.7-.1-1.1-.2c-.4 0-.7-.1-1.1-.1h-2.2c-.4 0-.7 0-1.1.1s-.7.1-1.1.2-.7.1-1 .2l-1 .3-1 .3c-.3.1-.6.2-.9.4s-.6.3-.8.4c-.3.2-.5.3-.8.5-.2.2-.4.3-.7.5l-.6.6c-.2.2-.3.4-.5.6-.1.2-.3.4-.4.6-.1.2-.2.4-.2.6-.1.2-.1.4-.2.6v.6l-.9 205.4c0 1.7 1.1 3.4 3.3 4.6.5.3 1 .5 1.5.7h.2c.4.1.8.3 1.2.4h.1l.3.1.7.2h.5l.6.1h.5l.6.1h3.9c.4 0 .9-.1 1.3-.2h.1l.4-.1.6-.1.4-.1.6-.2h.1l.2-.1.9-.3.3-.1c.4-.2.7-.3 1.1-.5l.1-.1.3-.2.4-.3.3-.2.3-.3.1-.1.1-.1.5-.5.1-.1.1-.1c.1-.1.2-.3.3-.4l.1-.2v-.1c.1-.1.1-.2.2-.4s.1-.1.1-.2v-.1c0-.1.1-.2.1-.3s0-.1.1-.2 0 0 0-.1v-.4-.2-.1l1.4-205.1zm-3.2 4.5l.4-.3-.4.3zm3.2-3.8c0 .1 0 .2-.1.2 0-.1 0-.2.1-.2zm-.2.6c0 .1-.1.2-.1.2 0-.1.1-.2.1-.2zm-.3.6l-.1.2.1-.2zm-.4.6l-.1.2.1-.2zm-.6.8zm-.6.4l-.2.1.2-.1zm-20.2-3.2v-.3c-.1.1-.1.2 0 .3zm0 .4c0 .1 0 .2.1.3 0-.1-.1-.2-.1-.3zm.3.6c0 .1.1.2.1.3-.1-.1-.1-.2-.1-.3zm.4.9c-.1-.1-.1-.2-.2-.3.1.1.2.2.2.3zm.3.3c.1.1.1.2.2.2-.1 0-.2-.1-.2-.2zm.8.8l-.2-.2.2.2zm.4.4l.2.2-.2-.2z" fill="url(#SVGID_2_)"/><path d="M116.7 19c4 2.3 7.9 6.8 10.2 12.6l89.4 221c4.5 11.6-1.2 19.6-10.2 14.4L13.7 162.5c-9-5.2-14.7-19.7-10.1-26.1L106.5 19.9c2.3-3.2 6.3-3.1 10.2-.9z" fill="#f7f9fa"/><path d="M112.7 43.9c3.8 2.5 6.8 6.1 8.3 10.4L192.2 228c3.7 9.6-1 16.2-8.4 11.9L28.2 156.6c-7.5-4.3-12.1-16.3-8.3-21.5l84.4-90.5c1.8-2.7 5.1-2.6 8.4-.7z" fill="#edf0f2"/><linearGradient id="SVGID_3_" gradientUnits="userSpaceOnUse" x1="108.39" y1="205.49" x2="244.4" y2="205.49" gradientTransform="matrix(1 0 0 -1 0 340.47)"><stop offset="0" stop-color="#dfe3e6"/><stop offset=".69" stop-color="#e9ecee"/><stop offset="1" stop-color="#edf0f2"/></linearGradient><path d="M244.4 244.8v-.1-.3-.6V243.5v-.2s0-.4-.1-.6v-.5c0-.2 0-.4-.1-.6l-.1-.3V241c0-.2-.1-.4-.1-.6l-.1-.3v-.2c-.1-.2-.1-.4-.2-.6l-.1-.4v-.2l-.2-.6-.2-.6-89.4-221-.2-.6-.2-.6-.1-.3v-.1l-.1-.2-.3-.6-.4-.7-.2-.3-.4-.6c-.3-.5-.6-1-.9-1.4l-.1-.1-.1-.1-.8-.9-.2-.3-.1-.1-.2-.2-.2-.3-.3-.4-.1-.1-.1-.1-.4-.5-.1-.1-.1-.2-.2-.3-.3-.3-.2-.1h-.1l-.4-.5h-.1l-.1-.1-.4-.4-.2-.2-.2-.2-.1-.1-.4-.3-.1-.1-.5-.4-.1-.1-.2-.1-.3-.2-.3-.2-.2-.1-.5-.3-.1-.1-.4-.2-.5-.2-.2-.1-.1-.1-.2-.1-.5-.2-.3-.1h-.1l-.5-.2-.4-.1h-.2l-.4-.1-.4-.1H137.3l-.4.1h-.2c-.3.1-.5.1-.8.2h-.1c-.3.1-.6.2-.8.4l-26.6 15.4c.3-.2.5-.3.8-.4h.1c.3-.1.6-.2.9-.2h.1c.3 0 .5-.1.8-.1h1.1c.3 0 .7.1 1 .2h.1c.4.1.7.2 1.1.3.3.1.7.3 1.1.4h.1c.4.2.7.4 1.1.6l.7.4.2.1.5.4.2.1.7.5.1.1.6.5.2.2.5.5.1.1.6.6.1.1.5.5.1.1.6.7.1.1.5.6.2.2.3.4.3.5.2.3c.3.5.6 1 .9 1.4l.4.7.2.3c.3.5.5 1 .7 1.5v.1c.2.5.4 1 .7 1.5l89.4 221c.2.4.3.9.5 1.3v.1c.1.4.2.8.4 1.2v.1c.1.4.2.8.3 1.1v.1c.1.4.1.7.2 1.1v.1c0 .4.1.7.1 1V260.9c0 .3 0 .6-.1.9v.2c0 .3-.1.6-.2.8v.1c-.1.2-.1.5-.2.7l-.1.2c-.1.2-.1.4-.2.5l.1.4c0 .1-.1.2-.2.3s-.2.3-.3.5l-.2.4-.2.3c-.1.1-.2.2-.3.4l-.2.2c-.1.1-.2.2-.4.3l-.2.2c-.2.1-.4.3-.6.4l26.5-15.4c.2-.1.4-.3.6-.4l.2-.2c.1-.1.2-.2.4-.3l.2-.2c.1-.1.2-.2.3-.4l.2-.3.2-.2.1-.1c.1-.2.2-.3.3-.5s.1-.1.1-.2v-.1l.1-.3c0-.1.1-.2.1-.3l.1-.2.1-.2.1-.2c0-.1.1-.3.1-.4v-.1c0-.2.1-.4.1-.6V246.5c0-.2 0-.4.1-.5V245.7v-.2-.6-.1z" fill="url(#SVGID_3_)"/><path class="st6" d="M113.1 174.7c1.5 2.5 2.4 5.3 2.4 8.2 0 2.7-.8 4.4-2.5 5.3-1.6.8-3.6.6-5.9-.7-2.4-1.5-4.4-3.6-5.9-6.1-1.5-2.4-2.3-5.2-2.3-8.1 0-2.5.7-4.5 2.3-5.4s3.7-.5 5.9.7c2.6 1.5 4.6 3.6 6 6.1z"/><path class="st7" d="M118.6 180.6V180v-.2-.4-.4c0-.1 0-.3-.1-.4s-.1-.3-.1-.4v-.2l-.1-.3-.1-.4-.1-.2v-.2l-.1-.4-.1-.4v-.1l-.1-.3-.2-.4-.1-.3v-.2l-.2-.4-.2-.4v-.1l-.2-.3-.4-.7-.1-.1c-.2-.3-.3-.6-.5-.8l-.1-.2-.1-.2-.7-.6-.2-.3-.3-.4-.1-.1-.1-.1-.1-.1-.3-.3-.3-.3-.3-.3-.3-.3-.1-.1-.2-.2-.4-.3-.3-.2-.1-.1-.2-.2-.4-.3-.1-.1-.1-.1-.2-.1-.5-.3-.1-.1-.3-.2-.2-.1-.2-.1-.2-.1-.2-.1h-.1l-.2-.1-.1-.1h-.1l-.2-.1h-.6.1-2.5c-.2 0-.3.1-.5.1l-.2.1h-.1l-.3.2-3.1 1.8.3-.2h.1l.2-.1c.2-.1.3-.1.5-.1H104.3l.2.1h.1l.2.1h.2l.2.1.2.1.2.1.2.1.2.1.2.1.2.1.2.1.4.2c.3.2.5.3.8.5l.1.1c.2.2.5.3.7.5l.1.1c.2.2.5.4.7.6l.1.1.7.7c.2.2.4.5.7.7l.1.1c.2.3.4.5.6.8v.1c.2.3.4.6.6.8l.1.2.6.9c.2.3.4.7.5 1v.1c.2.3.3.7.5 1v.1c.1.3.3.7.4 1 .1.3.2.7.3 1v.1c.1.3.2.6.2.9v.1c.1.3.1.7.2 1v.1c0 .3.1.6.1.9v1.9c0 .3 0 .5-.1.8v.1c0 .2-.1.5-.2.7v.1c-.1.2-.1.4-.2.6l-.3.6-.1.1c-.1.1-.2.3-.3.4l-.1.1-.3.3-.2.1c-.2.1-.3.2-.5.4l3.1-1.8c.2-.1.4-.2.5-.4l.2-.1.3-.3.1-.1c.1-.1.2-.2.3-.4l.1-.1c.1-.2.2-.3.3-.5.1-.1.1-.2.2-.4l.1-.2V183.9c0-.1.1-.3.1-.4v-.4c0-.1 0-.3.1-.4v-.4-.4-.4c.3-.5.4-.7.4-.9z"/><g><path class="st6" d="M103.8 154.6l-4.4-73.1c-.1-1.8 1.1-2.7 2.6-1.8l11.1 6.4c1.6 1 2.6 2.8 2.6 4.8l-4.8 67.8c-.1 1.5-2.2 1.5-3.5.7s-3.5-3.1-3.6-4.8z"/><path class="st7" d="M118.8 88.8V87l-.1-.1-.1-.1-.1-.1-.1-.2v-.1l-.1-.2v-.1l-.1-.2-.1-.1v-.1l-.1-.1-.1-.1-.1-.1-.1-.1-.1-.1-.1-.1-.1-.1h-.4l-.1-.1-.1-.1-.1-.1-.1-.1h-.1l-.1-.1-.1-.1-11.2-6.4h-.1l-.1-.1H103.4l-.2.1-3.1 1.8.2-.1h.7l.2.1.2.1.6.1 11.1 6.4.3.2.2.2.2.2.2.2.2.2.2.2.1.1.1.2.1.2.1.2v.1l.2.3.1.3.1.3c0 .1.1.2.1.3 0 .1 0 .2.1.3V90.8l-4.8 67.8c0 .1 0 .2-.1.3 0 .1-.1.2-.1.3 0 .1-.1.1-.1.1l-.1.1-.2.2 3.1-1.8c.1 0 .2-.1.2-.2l.1-.1.1-.1.1-.1v-.4l4.8-67.8V89v-.1l.4-.1z"/></g></g></g></svg>