<svg id="_1" xmlns="http://www.w3.org/2000/svg" viewBox="0 0 473.7 271.3"><style>.st6{fill:#f7f9fa}</style><g id="_2"><g id="_404"><linearGradient id="SVGID_1_" gradientUnits="userSpaceOnUse" x1="142.81" y1="90.999" x2="473.716" y2="90.999" gradientTransform="matrix(1 0 0 -1 0 272.47)"><stop offset="0" stop-color="#cbd2d6" stop-opacity=".94"/><stop offset="1" stop-color="#b1b7ba" stop-opacity="0"/></linearGradient><path d="M166.2 268.2s38.5 14 187.4-22.4c.9-.2 275.2-81.4-8.2-142.4C47.3 39.2 166.2 268.2 166.2 268.2z" fill="url(#SVGID_1_)"/><path d="M399.6 126.3v-.6.3c-.1-1.7-1.3-3.3-3.5-4.6l-5-2.9c-.2-8.6-.6-20.6-.7-24l.3-.1c.5-.2.7-.7.5-1.1-.1-.2-.3-.4-.5-.5l-154-90.4c-.9-.5-1.9-.5-2.8 0 0 0-20 4.1-42.4 20.1-6.3 4.5-13.4 9.8-20.5 15.6l-5.4-6.6S141 63.8 134 77.3c-66-6.5-113.5 53-113.5 53-.6.4-.7.9-.4 1.3l-6.9 26-7.7 4.4c-2.2 1.3-3.3 2.9-3.5 4.6v-.4 8.1c0 1.8 1.2 3.6 3.5 5L162 268.8l.5.1.6.1h.5l.6.1h4.1c.5 0 .9-.1 1.4-.2h.1l.4-.1.7-.1.5-.1.6-.2h.1l.2-.1c.3-.1.6-.2.9-.4l.3-.1c.4-.2.8-.4 1.1-.6l221.2-128.5.1-.1.3-.2.4-.3.3-.3.4-.3.1-.1.1-.1c.2-.2.4-.4.5-.6l.1-.1.1-.1c.1-.1.2-.3.3-.4l.1-.1v-.1c.1-.1.1-.2.2-.4s.1-.1.1-.2v-.1c0-.1.1-.2.1-.4s0-.2.1-.2 0 0 0-.1v-.4-.2-7.6h.5z" fill="#f7f9fa" stroke="#dfe3e6" stroke-width="4" stroke-miterlimit="10"/><path d="M399.6 125.7v.7c0 .1 0 .2-.1.3s-.1.2-.1.4-.1.2-.1.3-.1.2-.2.4l-.1.2c-.1.1-.2.3-.3.4l-.2.2c-.2.2-.3.4-.5.6l-.2.2-.4.3-.4.3-.4.3c-.1.1-.3.2-.5.3L174.9 259.1c-.4.2-.7.4-1.1.6l-.3.1c-.3.1-.6.2-.9.4l-.4.1-.6.2-.5.1-.7.1-.5.1c-.4.1-.9.1-1.4.2H164.4l-.6-.1-.5-.1-.6-.1-.5-.1-.8-.2-.4-.1c-.4-.1-.9-.3-1.3-.4l-.6-.2-.3-.1c-.3-.1-.6-.3-.9-.5v7.1c.3.2.6.3.9.5l.3.1.5.2h.1c.4.2.8.3 1.3.4h.1l.3.1.6.1c.1 0 .1 1 .1 1l.5.1.6.1h.5l.6.1h4.1c.5 0 .9-.1 1.4-.2h.1l.4-.1.7-.1.5-.1.6-.2h.1l.2-.1c.3-.1.6-.2.9-.4l.3-.1c.4-.2.8-.4 1.1-.6l221.2-128.5.1-.1.3-.2.4-.3.3-.3.4-.3.1-.1.1-.1c.2-.2.4-.4.5-.6l.1-.1.1-.1c.1-.1.2-.3.3-.4l.1-.1v-.1c.1-.1.1-.2.2-.4s.1-.1.1-.2v-.1c0-.1.1-.2.1-.4s0-.2.1-.2 0 0 0-.1v-.4-.2-.1l.4-7.9z" fill="#b1b7ba"/><linearGradient id="SVGID_2_" gradientUnits="userSpaceOnUse" x1="2" y1="54.88" x2="162.07" y2="54.88" gradientTransform="matrix(1 0 0 -1 0 272.47)"><stop offset="0" stop-color="#edf0f2"/><stop offset="1" stop-color="#cbd2d6"/></linearGradient><path d="M5.6 171.2c-2.4-1.4-3.6-3.2-3.6-5v8.1c0 1.8 1.2 3.6 3.5 5L162 268.8l-.2-7.7L5.6 171.2z" fill="url(#SVGID_2_)"/><path d="M396.1 121.4c4.7 2.7 4.7 7.1 0 9.8L174.9 259.8c-4.7 2.7-12.3 2.7-17 0L5.6 171.9c-4.7-2.7-4.7-7.1-.1-9.9L226.8 33.5c4.7-2.7 12.3-2.7 17 0l152.3 87.9z" fill="#cbd2d6"/><path d="M390.3 93.6s-65.3 2.6-105.7 64.8c-64.8-6.9-117.2 59.1-117.2 59.1l.7 40.4 222.7-129.5.1-.1.1-.1.1-.1V127.8v-.1s-.7-34.1-.8-34.1z" fill="#dfe3e6"/><path class="st6" d="M390.6 92.8c.5.2.7.7.5 1.1-.1.2-.3.4-.5.5 0 0-39.2 13.6-49.6 22.4 0 0-40.5 29.4-58.6 51.4-63.9 6.2-113.3 49.1-113.3 49.1-.9.5-1.9.5-2.8 0L20.4 131.8c-.5-.2-.7-.7-.5-1.1.1-.2.3-.4.5-.5 0 0 47.6-59.5 113.6-53 11.6-19.5 38.3-41 57.6-54.8 22.3-15.9 42.3-20.1 42.3-20.1.9-.5 1.9-.5 2.8 0l153.9 90.5z"/><path class="st6" d="M381.6 93.1c.4.1.7.6.5 1.1-.1.2-.3.4-.5.5 0 0-37.6 13-47.6 21.5 0 0-38.9 28.2-56.2 49.3-61.3 5.9-108.7 47.1-108.7 47.1-.9.4-1.9.4-2.7 0l-140-82c-.4-.1-.7-.6-.5-1.1.1-.2.3-.4.5-.5 0 0 45.6-57.1 108.9-50.8 11.1-18.8 36.8-39.4 55.2-52.5C212 10.3 231.2 6.3 231.2 6.3c.9-.4 1.9-.4 2.7 0l147.7 86.8z"/><linearGradient id="SVGID_3_" gradientUnits="userSpaceOnUse" x1="308.718" y1="256.675" x2="174.718" y2="68.674" gradientTransform="matrix(1 0 0 -1 0 272.47)"><stop offset="0" stop-color="#edf0f2"/><stop offset="1" stop-color="#cbd2d6"/></linearGradient><path d="M277.8 165.5c17.4-21.1 56.2-49.3 56.2-49.3 9.9-8.5 47.6-21.5 47.6-21.5.4-.1.7-.6.5-1.1-.1-.2-.3-.4-.5-.5L233.9 6.3c-.9-.4-1.9-.4-2.7 0 0 0-19.2 4-40.7 19.3-18.5 13.2-44.1 33.8-55.2 52.5l142.5 87.4z" fill="url(#SVGID_3_)"/><path class="st6" d="M167.6 216.4h-.1c-.2.1-.5.1-.7.1-.2 0-.5 0-.7-.1-.2-.1-.4-.1-.6-.2l-144.9-86-10.2 38.3 154.9 89.4.3.1.2.1H167.7c.1 0 .3-.1.4-.2l.1-41.8c-.2.2-.4.3-.6.3z"/><path d="M165.9 219.1c-.3 0-.5.1-.7.1-.2 0-.4 0-.6-.1-.2 0-.4-.1-.5-.2L24.1 137l-8.5 32.2L164 254l.2.1.2.1H166c.1 0 .2-.1.4-.2l.1-35.1c-.2.1-.4.2-.6.2z" fill="#ecf0f2"/><path class="st6" d="M134 77.2s121 69 148.5 91c0 0 12.8-34 33.8-51-8 2.5-31.1 2.5-31.1 2.5l-10.1-26.8-27.7 5.1-9.6-21.3-17.4 3.7-12.7-28.7-25.3.3-16.8-20.6S141 63.6 134 77.2z"/></g></g></svg>