<svg id="_1" xmlns="http://www.w3.org/2000/svg" xmlns:xlink="http://www.w3.org/1999/xlink" viewBox="0 0 461.5 373.1"><style>.st2{fill:#f7f9fa}.st3{fill:#b1b7ba}.st6{fill:#edf0f2}.st9{fill:#cbd2d6}.st10{fill:#dfe3e6}</style><g id="_2"><g><g id="-2"><linearGradient id="SVGID_1_" gradientUnits="userSpaceOnUse" x1="152.093" y1="8142.115" x2="461.474" y2="8142.115" gradientTransform="translate(0 -7846)"><stop offset="0" stop-color="#b1b7ba" stop-opacity=".94"/><stop offset="1" stop-color="#b1b7ba" stop-opacity="0"/></linearGradient><path d="M170.6 372.8s77.8-6.7 203.3-37.3c.8-.2 226-49-49-107-251.6-53.1-154.3 144.3-154.3 144.3z" fill="url(#SVGID_1_)"/><path d="M324.4 107.3l-7.3-4.3-17.9-10.3L254.7 67l.6-3.2c.9-5.3-.9-8.2-3.3-1.8l-.8 3.1-87.5-50.5c-1.8-1-3.4-1.1-4.5-.4L146 21.9l-4.9-17.6-.1-.4c-.3-1.3-1.6-2.1-2.9-1.9l-33.2 5.6c-4.2.9-2.7 3.6-.1 3.4l32.4-2.8 3.8 16.7L4.3 104.3c-1.2.7-1.9 2.1-1.9 4.1L2 266.5c.2 4.5 2.6 8.6 6.4 11l160.5 92.7c1.9 1.1 3.6 1.1 4.8.3l-.2.1 155.1-90.1c1.1-.7 1.9-2.1 1.9-4.1l.5-158.2c-.5-4.4-2.8-8.5-6.6-10.9zM5.8 103.8h-.2.2zm-1 .3l-.2.1.2-.1zm.5-.2l-.3.1.3-.1zm.8 0zm.6 0H7h-.3zm.6.1l.3.1-.3-.1zm.6.2l.3.1-.3-.1zm1 .6l101.8 58.7L8.9 104.8M174.2 370l.2-.2" fill="none" stroke="#dfe3e6" stroke-width="4" stroke-miterlimit="10"/><path class="st2" d="M330.8 118.3c-.2-4.5-2.6-8.6-6.4-11l-155.1 90.1c3.8 2.4 6.1 6.5 6.4 11l-.4 158.2 77.5-45-77.5 45c0 2-.7 3.4-1.9 4.1l155.1-90.1c1.1-.7 1.9-2.1 1.9-4.1l.4-158.2z"/><path class="st3" d="M330.8 118.3c-.2-4.5-2.6-8.6-6.4-11l-155.1 90.1c3.8 2.4 6.1 6.5 6.4 11l-.4 158.2 77.5-45-77.5 45c0 2-.7 3.4-1.9 4.1l155.1-90.1c1.1-.7 1.9-2.1 1.9-4.1l.4-158.2z"/><path class="st2" d="M163.9 14.6c-1.8-1-3.4-1.1-4.5-.4L4.3 104.3c1.2-.7 2.8-.6 4.5.4l160.5 92.7 155.1-90.1-160.5-92.7z"/><path class="st2" d="M169.4 197.4c3.8 2.4 6.1 6.5 6.4 11l-.4 158.2c0 4-2.9 5.7-6.4 3.6L8.4 277.5c-3.8-2.4-6.1-6.5-6.4-11l.5-158.2c0-4 2.9-5.7 6.4-3.7l160.5 92.8z"/><path class="st2" d="M330.8 118.3c-.2-4.5-2.6-8.6-6.4-11l-155.1 90.1c3.8 2.4 6.1 6.5 6.4 11l-.4 158.2 77.5-45-77.5 45c0 2-.7 3.4-1.9 4.1l155.1-90.1c1.1-.7 1.9-2.1 1.9-4.1l.4-158.2z"/><path class="st2" d="M330.8 118.3c-.2-4.5-2.6-8.6-6.4-11l-155.1 90.1c3.8 2.4 6.1 6.5 6.4 11l-.4 158.2 77.5-45-77.5 45c0 2-.7 3.4-1.9 4.1l155.1-90.1c1.1-.7 1.9-2.1 1.9-4.1l.4-158.2z"/><path class="st2" d="M330.8 118.3c-.2-4.5-2.6-8.6-6.4-11l-155.1 90.1c3.8 2.4 6.1 6.5 6.4 11l-.4 158.2 77.5-45-77.5 45c0 2-.7 3.4-1.9 4.1l155.1-90.1c1.1-.7 1.9-2.1 1.9-4.1l.4-158.2z"/><defs><path id="SVGID_2_" d="M330.8 118.3c-.2-4.5-2.6-8.6-6.4-11l-155.1 90.1c3.8 2.4 6.1 6.5 6.4 11l-.4 158.2 77.5-45-77.5 45c0 2-.7 3.4-1.9 4.1l155.1-90.1c1.1-.7 1.9-2.1 1.9-4.1l.4-158.2z"/></defs><clipPath id="SVGID_3_"><use xlink:href="#SVGID_2_" overflow="visible"/></clipPath><g clip-path="url(#SVGID_3_)"><linearGradient id="SVGID_4_" gradientUnits="userSpaceOnUse" x1="245.607" y1="7961.71" x2="231.627" y2="8159.48" gradientTransform="translate(0 -7846)"><stop offset="0" stop-color="#dfe3e6"/><stop offset=".69" stop-color="#e9ecee"/><stop offset="1" stop-color="#edf0f2"/></linearGradient><path d="M317.1 96.8c-.2-4.4-2.5-8.5-6.2-11l-150.5 90.1c3.7 2.5 6 6.6 6.2 11l-.4 158.1 75.2-45-75.2 45c0 2-.7 3.4-1.8 4.1L314.9 259c1.1-.7 1.8-2.1 1.8-4.1l.4-158.1z" fill="url(#SVGID_4_)"/></g><path class="st6" d="M10.7 109.9L30 136.3l128.7 74.9 8.3-12.5z"/><linearGradient id="SVGID_5_" gradientUnits="userSpaceOnUse" x1="85.704" y1="7970.625" x2="99.704" y2="8189.625" gradientTransform="translate(0 -7846)"><stop offset="0" stop-color="#e9edef"/><stop offset="1" stop-color="#dfe3e6"/></linearGradient><path d="M149.8 208.9c4.7 2.7 8.5 9.3 8.5 14.7l-.3 110c0 5.4-3.9 7.6-8.5 4.9l-113-65.2c-4.7-2.7-8.5-9.3-8.5-14.7l.3-110c0-5.4 3.9-7.6 8.5-4.9l113 65.2z" fill="url(#SVGID_5_)"/><path class="st6" d="M135.2 148.5l97.5-74 65.8 36.3L179 176.1zM168.6 202.1l-.3 159.1-7.9-19.6V214.9zM16 275.2l10.6-5.4 131.1 75.8 6.6 14.7z"/><path class="st2" d="M225.7 98.6l-13.2-15.1h-12.8L171.2 67c-1.4-.7-3.1-.7-4.5 0l-28.5 16.6h-12.6l-13.1 15.1c-.6.7-.4 1.6.6 2.1l54 31.2c1.4.7 3.1.7 4.5 0l53.6-31.2c1-.6 1.2-1.5.5-2.2z"/><path class="st2" d="M212.2 83.2c.6.2.9.8.7 1.3-.1.3-.4.6-.7.7l-41.2 24c-1.1.5-2.4.5-3.4 0l-41.5-24c-.6-.2-.9-.8-.7-1.3.1-.3.4-.6.7-.7l41.2-24c1.1-.5 2.4-.5 3.4 0l41.5 24z"/><path d="M205.6 83.4c.4.2.7.7.5 1.1-.1.2-.3.4-.5.5L172 104.5c-.9.4-1.9.4-2.8 0L143.9 90c-.4-.2-.7-.7-.5-1.1.1-.2.3-.4.5-.5l33.6-19.5c.9-.4 1.9-.4 2.8 0l25.3 14.5z" fill="#ecf0f2"/><path class="st9" d="M255.4 63.8l-1.8 8.9c-.2 1.2-1.5 2-2.7 1.8-.1 0-.2 0-.2-.1l-2-.6-25.9-8.8-42.6 25.8c-.1.2-2.1 2-5.3.6-2.5-1.5-2.4-3.9-2.1-4.6l45.6-26.6s3.3-1.5 5.5-.7l26.4 10 1.8-7.6c2.4-6.3 4.2-3.4 3.3 1.9zM104.9 7.6L138.1 2c1.3-.2 2.6.6 2.9 1.9l.1.4 20.7 74c.1.2-.2 2.9-3.5 4-2.8.6-4.5-1.2-4.6-2L137.1 8.2 104.7 11c-2.5.2-4-2.5.2-3.4z"/><path class="st10" d="M127.2 88.1l41.8 23.6-1.1 18.2-50.5-29.3zM171.3 112.4l41.6-24.3 10 10.6-52.4 31.2z"/><path class="st3" d="M92.7 254c-1.1-1-2.3-1.9-3.7-2.6-3.1-1.8-6.1-2.2-8.5-1.1-.5.2-1.1.1-1.5-.2-.7-.4-1.3-1.1-1.6-1.8-.8-1.6-.8-3.1.2-3.5 2.8-1.4 6.5-1 10.2.9l4.9 8.3zM89.1 230.9c7.4 4.3 14.5 11.5 20.1 20.4.8 1.4 1 3.1.1 3.7-.5.3-1.2.2-1.6-.1-.6-.4-1.1-.9-1.5-1.5-3.8-6.2-8.7-11.6-14.6-15.8l-4.4-7.7c.6.3 1.2.6 1.9 1zM89.6 262.2c2.1 1.4 3.4 3.6 3.5 6.1 0 2.2-1.6 3.1-3.6 2-2.1-1.3-3.4-3.5-3.5-6 0-2.3 1.6-3.2 3.6-2.1zM67.7 210.2l3.2 5.6c-2.4.1-4.7.6-6.9 1.5-.5.1-1 .1-1.5-.2-.7-.4-1.3-1.1-1.7-1.8-.8-1.5-.7-3.1.2-3.5 2.2-.8 4.4-1.4 6.7-1.6zM77.2 226.8l3.3 5.8c-2.9-.5-5.8-.2-8.5.9-.5.2-1.1.1-1.5-.2-.7-.4-1.3-1.1-1.6-1.8-.8-1.6-.8-3.1.2-3.5 2.5-1 5.3-1.5 8.1-1.2zM105.2 266.6c.6.9.5 1.8 0 2.1-.3.1-.6 0-.9-.1-.4-.3-.7-.6-.9-1l-38.5-67.5c-.6-.9-.5-1.8 0-2.1.3-.1.6-.1.9.1.4.3.8.6 1 1.1l38.4 67.4zM117.8 244.5c.9 1.4 1 3.1.3 3.8-.5.3-1.2.3-1.7-.1-.6-.4-1.1-.9-1.4-1.5-7-11.1-16-20.1-25.4-25.5-3-1.8-6.3-3.2-9.7-4.2l-3.5-6.2c4.6 1 9.1 2.8 13.1 5.2 10.4 6.1 20.4 16.2 28.3 28.5z"/></g></g></g></svg>