<svg xmlns="http://www.w3.org/2000/svg" xmlns:xlink="http://www.w3.org/1999/xlink" viewBox="0 0 540 420"><linearGradient id="a" gradientUnits="userSpaceOnUse" x1="250.868" y1="318.051" x2="540" y2="318.051"><stop offset="0" stop-color="#a1a7ab" stop-opacity=".94"/><stop offset=".997" stop-color="#a1a7ab" stop-opacity="0"/></linearGradient><path d="M268.133 389.739s72.729-6.238 190.034-34.89c.708-.173 211.21-45.793-45.793-100.017-235.087-49.601-144.241 134.907-144.241 134.907z" fill="url(#a)"/><g fill="none" stroke="#d7dbdf" stroke-width="4" stroke-miterlimit="10"><path d="M259.967 208.672l-1.816 1.055.034.02 1.8-1.046z"/><path d="M258.185 209.747l3.707 2.14-1.907-3.186zm3.42-131.832l-.118 41.744 82.803-46.531-36.506-21.076zM220.478 142.704l41.009-23.045.118-41.744-81.032 45.384-65.747 3.105c-.27.013-.529 0-.777-.032v.157l144.102 83.198 1.816-1.055-39.489-65.968z"/><path d="M261.487 119.659l-41.009 23.045 39.489 65.968.017.029 1.907 3.186.19.11c.412.238.857.445 1.319.632.031.013.058.03.089.043l.057.019c.339.132.69.249 1.05.354.028.008.054.02.082.028.083.023.169.04.253.062.202.054.405.105.612.15.053.012.104.028.158.039.082.017.166.027.248.043.173.033.346.064.522.091.068.011.135.026.203.035.078.011.157.016.235.026.164.021.328.039.493.055.077.007.152.019.229.026.074.006.149.007.223.012.167.012.334.02.502.027.082.003.163.011.245.013.067.002.135-.002.202-.001.181.002.362.001.543-.003.088-.002.176.002.264-.001.053-.002.106-.008.159-.011.224-.01.446-.026.668-.044.088-.007.177-.009.265-.018l.082-.011c.377-.039.75-.091 1.118-.156.018-.003.037-.004.055-.008.106-.019.209-.046.314-.067.182-.037.365-.073.544-.116.131-.032.258-.069.386-.104.17-.046.339-.092.505-.144l.11-.031c.06-.02.115-.046.174-.066a11.465 11.465 0 0 0 1.047-.411 9.96 9.96 0 0 0 .923-.467l147.662-85.812.119-.07c.091-.055.169-.114.256-.171.118-.077.239-.153.348-.232.098-.071.185-.145.277-.219.102-.082.205-.162.298-.246.018-.017.041-.032.059-.049.038-.035.065-.074.102-.109a5.4 5.4 0 0 0 .416-.448c.027-.033.064-.064.091-.097.026-.033.043-.068.068-.102.084-.113.16-.227.231-.343.03-.048.069-.094.096-.143.014-.025.022-.05.035-.075.055-.102.099-.204.144-.307.026-.059.06-.117.083-.177.008-.021.011-.042.018-.062.035-.098.059-.196.085-.295.017-.065.043-.13.056-.195a9.358 9.358 0 0 0-2.137-6.203l-55.123-57.474-24.854 13.964-82.803 46.531zm-150.921 2.495c.002-.07.012-.14.017-.21-.011.07-.014.14-.017.21z"/><path d="M426.467 122.274c-.002.067-.017.134-.023.201-.009.104-.016.207-.035.311l-.006.054v.002c-.013.066-.039.13-.056.195-.026.099-.05.197-.085.295-.007.021-.01.042-.018.062-.022.059-.057.117-.083.177-.045.103-.089.206-.144.307-.013.025-.021.051-.035.075-.027.048-.067.095-.096.143a4.48 4.48 0 0 1-.231.343c-.025.033-.042.068-.068.102-.026.033-.063.064-.091.097a5.738 5.738 0 0 1-.416.448c-.037.036-.063.074-.102.109-.018.017-.041.032-.059.049-.093.084-.197.165-.298.246-.091.073-.179.147-.277.219-.11.08-.23.155-.348.232-.087.056-.165.116-.256.171l-.119.07-147.662 85.812c-.293.17-.604.323-.923.467-.092.042-.186.08-.28.12a12.04 12.04 0 0 1-.767.291c-.06.02-.114.047-.174.066-.036.012-.074.02-.11.031-.166.052-.335.098-.505.144-.129.035-.256.072-.386.104-.179.043-.362.079-.544.116-.105.021-.208.048-.314.067-.018.003-.037.004-.055.008-.368.065-.742.116-1.118.156-.028.003-.054.009-.082.011-.088.009-.177.01-.265.018-.222.019-.444.035-.668.044-.053.002-.106.009-.159.011-.088.003-.176 0-.264.001-.181.003-.362.005-.543.003-.067-.001-.135.003-.202.001-.082-.002-.163-.01-.245-.013a16.695 16.695 0 0 1-.502-.027c-.074-.005-.149-.006-.223-.012-.077-.006-.152-.018-.229-.026a16.147 16.147 0 0 1-.493-.055c-.078-.01-.157-.015-.235-.026-.069-.01-.135-.025-.203-.035a14.965 14.965 0 0 1-.522-.091c-.082-.016-.166-.026-.248-.043-.054-.011-.104-.027-.158-.039-.207-.045-.41-.096-.612-.15-.083-.022-.17-.038-.253-.062-.028-.008-.054-.019-.082-.028-.359-.105-.71-.222-1.05-.354l-.057-.019c-.031-.012-.058-.03-.089-.043a10.628 10.628 0 0 1-1.319-.632l-.497 175.218c.412.238.857.445 1.319.632.049.02.096.042.145.061.339.132.691.25 1.05.354.11.032.223.06.334.089a14.772 14.772 0 0 0 1.018.232 14.847 14.847 0 0 0 .961.152 15.546 15.546 0 0 0 1.444.12 16.67 16.67 0 0 0 2.08-.047c.116-.01.233-.017.349-.029.376-.039.75-.091 1.117-.156.125-.022.247-.05.371-.075.182-.037.365-.073.543-.116.13-.031.256-.068.384-.103.17-.046.34-.092.507-.145.096-.03.19-.065.284-.097.262-.089.518-.186.768-.291.094-.039.188-.078.279-.119.319-.144.63-.297.923-.467l147.662-85.812c.132-.077.249-.159.373-.24.119-.078.241-.154.352-.235.097-.07.184-.144.274-.216.102-.082.207-.164.301-.248.057-.051.106-.105.16-.157a5.59 5.59 0 0 0 .576-.647c.084-.113.159-.227.23-.342.045-.073.092-.146.132-.219a3.84 3.84 0 0 0 .143-.306c.035-.08.072-.159.101-.24.035-.098.059-.196.085-.294.022-.084.047-.167.063-.251.019-.103.026-.207.036-.311.009-.096.024-.191.024-.287l.497-175.218-.001.086zm-315.906-.135v.076l.003-.039c0-.013-.003-.025-.003-.037z"/><path d="M113.454 126.245v-.058l.161.093c.143.035.283.073.434.093.249.032.507.044.777.032l65.747-3.105 81.032-45.384 46.179-25.863 21.414-11.993-59.307-9.78a14.205 14.205 0 0 0-7.809 1.886l-149.57 86.703c-1.233.754-1.83 1.902-1.929 3.076-.006.07-.015.14-.017.21l-.002.022-.003.039a2.166 2.166 0 0 0 0 .114c.017 1.717 1.098 3.4 2.893 3.915z"/><path d="M262.082 211.997l-.19-.11-3.707-2.14-.034-.02-144.102-83.197-.433-.25-.161-.093v.058c-1.795-.514-2.876-2.198-2.893-3.916l-.496 175.028c-.004 1.465.96 2.932 2.893 4.048l148.628 85.81.495-175.218z"/></g><path d="M422.421 293.648c3.658 2.112 3.683 5.54.043 7.655l-147.217 85.553c-3.634 2.112-9.558 2.112-13.215 0l-148.18-85.552c-3.664-2.115-3.677-5.543-.043-7.655l147.217-85.553c3.64-2.115 9.552-2.115 13.215 0l148.18 85.552z" fill="#bbb"/><linearGradient id="b" gradientUnits="userSpaceOnUse" x1="195.161" y1="213.127" x2="185.348" y2="25.291"><stop offset="0" stop-color="#bfc7cc"/><stop offset="1" stop-color="#e8ebee"/></linearGradient><path d="M273.019 32.105c-.024-.01-.051-.016-.075-.025-.073-.028-.15-.049-.224-.075-.256-.093-.511-.186-.778-.263-.147-.042-.3-.073-.45-.11-.084-.021-.167-.043-.252-.062-.075-.017-.148-.039-.224-.055-.29-.06-.585-.111-.882-.153-.107-.015-.215-.023-.323-.036a16.594 16.594 0 0 0-.221-.025c-.108-.011-.214-.027-.322-.036-.291-.024-.584-.04-.878-.047l-.275.001c-.08-.001-.159 0-.239.001l-.399.002c-.331.011-.661.033-.988.066 0 0-.762.091-1.135.158-.109.02-.21.057-.318.079a12.71 12.71 0 0 0-.89.221c-.156.044-.322.069-.474.118-.123.04-.237.092-.358.135-.116.042-.23.085-.343.13a9.529 9.529 0 0 0-1.238.587l-147.662 85.812a6.107 6.107 0 0 0-.108.064c-.082.049-.152.103-.23.154-.107.07-.217.138-.316.211-.089.064-.168.131-.25.198-.091.074-.185.146-.269.222l-.054.044c-.035.032-.059.067-.092.099a5.206 5.206 0 0 0-.376.404c-.025.03-.058.058-.082.088 0 0-1.556 1.401-1.648 2.857-.092 1.456-.105 5.896-.105 5.896h.938l-.478 168.59c0-.086.014-.172.022-.258.008-.094.015-.189.032-.283.014-.076.037-.15.056-.225.023-.089.045-.179.077-.267.026-.072.059-.143.091-.215.04-.093.081-.186.13-.278.036-.066.078-.131.119-.197.064-.104.132-.208.209-.31.045-.06.094-.119.143-.179a4.88 4.88 0 0 1 .377-.405c.049-.047.093-.096.145-.142.084-.076.179-.15.271-.224.082-.066.16-.132.248-.196.099-.072.209-.141.316-.211.112-.073.218-.147.338-.217l147.662-85.812a9.529 9.529 0 0 1 1.238-.587c.112-.045.227-.088.342-.13.269-.097.551-.175.833-.254.292-.082.586-.159.889-.221.357-.073.718-.14 1.086-.186.086-.011.171-.027.258-.036.494-.053.995-.079 1.496-.083.08-.001.159-.002.239-.001.494.004.987.031 1.474.082l.223.025c.485.058.962.139 1.428.244.085.019.168.041.252.062.423.104.832.23 1.228.373.073.027.151.047.223.075.476.184.93.394 1.35.637l.497-175.218a9.252 9.252 0 0 0-1.274-.613z" fill="url(#b)"/><path d="M422.922 118.527l-148.628-85.81-.497 175.218 148.628 85.81c1.746 1.008 2.617 2.334 2.613 3.658l.497-175.218c.005-1.324-.867-2.65-2.613-3.658z" fill="#e7ebee"/><defs><path id="c" d="M422.922 118.527l-148.628-85.81-.497 175.218 148.628 85.81c1.746 1.008 2.617 2.334 2.613 3.658l.497-175.218c.005-1.324-.867-2.65-2.613-3.658z"/></defs><clipPath id="d"><use xlink:href="#c" overflow="visible"/></clipPath><linearGradient id="e" gradientUnits="userSpaceOnUse" x1="355.614" y1="227.255" x2="335.989" y2="31.007"><stop offset="0" stop-color="#a1a7ab"/><stop offset=".944" stop-color="#d7dbdf"/></linearGradient><path d="M422.922 121.33L274.294 35.52l-.497 175.218 148.628 85.81c1.746 1.008 2.617 2.334 2.613 3.658l.497-175.218c.005-1.324-.867-2.65-2.613-3.658z" clip-path="url(#d)" fill="url(#e)"/><path d="M262.306 212.579l-41.828-69.875 148.664-83.541 55.123 57.474c3.636 4.414 2.536 11.024-2.335 14.022l-146.317 85.815c-4.714 2.902-10.902 1.09-13.307-3.895z" fill="#edf2f4"/><path d="M262.306 212.579l-41.828-69.875 148.664-83.541 55.123 57.474c3.636 4.414 2.536 11.024-2.335 14.022l-146.317 85.815c-4.714 2.902-10.902 1.09-13.307-3.895z" fill="#f4f6f8"/><path d="M283.716 199.401s127.723-71.037 130.215-77.262c0-4.356-39.874-43.803-39.874-43.803l-39.874 20.756-50.467 100.309z" fill="#e7ebee"/><path d="M113.377 118.983s-2.948 1.569-2.816 3.349c.126 1.7.102 3.349.102 3.349h1.716l.998-6.698z" fill="#a5aaab"/><path d="M114.826 126.404l65.747-3.105 148.625-83.241-59.307-9.78a14.205 14.205 0 0 0-7.809 1.886l-149.57 86.703c-3.593 2.197-1.892 7.736 2.314 7.537z" fill="#f4f6f8"/><path d="M113.454 126.186c-1.933-1.116-2.897-2.583-2.893-4.048l-.497 175.218c-.004 1.465.96 2.932 2.893 4.048l148.628 85.81.497-175.218-148.628-85.81z" fill="#f4f6f8"/><defs><path id="f" d="M113.454 126.186c-1.933-1.116-2.897-2.583-2.893-4.048l-.497 175.218c-.004 1.465.96 2.932 2.893 4.048l148.628 85.81.497-175.218-148.628-85.81z"/></defs><clipPath id="g"><use xlink:href="#f" overflow="visible"/></clipPath><path d="M126.316 138.277l.571 145.996c-.004 1.465.96 2.932 2.893 4.048l128.155 72.138-.603-145.998c0-.001-131.02-74.72-131.016-76.184z" clip-path="url(#g)" fill="#e7ebee"/><path d="M426.444 122.475c-.009.104-.017.207-.035.311-.015.084-.041.167-.063.251-.026.099-.05.197-.085.295-.028.08-.066.159-.101.239-.045.103-.089.206-.144.307-.04.073-.087.146-.132.218a4.48 4.48 0 0 1-.39.542 5.738 5.738 0 0 1-.416.448c-.054.053-.104.107-.161.158-.093.084-.197.165-.298.246-.091.073-.179.147-.277.219-.109.08-.23.156-.348.232-.124.081-.242.164-.375.241l-147.662 85.812c-.293.17-.604.323-.923.467-.092.042-.186.08-.28.12a12.04 12.04 0 0 1-.767.291c-.095.032-.188.067-.285.098-.166.052-.335.098-.505.144-.129.035-.256.072-.386.104-.179.043-.362.079-.544.116-.123.025-.245.053-.369.075-.368.065-.742.116-1.118.156-.115.012-.231.019-.347.029-.222.019-.445.035-.668.044-.141.006-.282.009-.422.012a16.484 16.484 0 0 1-1.942-.073 16.147 16.147 0 0 1-1.453-.208c-.136-.026-.272-.052-.406-.082-.207-.045-.41-.096-.612-.15-.112-.03-.224-.057-.334-.089-.359-.105-.71-.222-1.05-.354-.05-.019-.096-.042-.146-.062a10.628 10.628 0 0 1-1.319-.632l-.497 175.218c.413.238.857.445 1.319.632.031.013.057.03.089.042l.056.019c.34.132.69.25 1.05.354.028.008.054.02.082.028.083.023.169.04.253.062.202.053.405.105.612.15.053.012.104.028.158.039.082.017.166.028.248.043.173.033.345.063.52.09.069.011.136.026.205.036.078.011.158.017.236.026.163.021.325.039.489.055.077.007.153.019.23.026.074.006.15.007.224.012.166.012.333.02.5.027.082.003.163.011.245.013.067.002.135-.002.202-.001.181.002.362.001.543-.003.088-.002.176.002.264-.001.053-.002.106-.008.159-.011.223-.01.445-.026.667-.044.089-.007.178-.009.266-.018.028-.003.055-.009.082-.011.377-.039.75-.091 1.117-.156.018-.003.037-.004.055-.008.107-.019.21-.046.316-.067.182-.037.365-.073.543-.116.13-.031.256-.068.384-.103.17-.046.34-.092.507-.145l.11-.031c.06-.02.115-.046.174-.066.262-.089.518-.186.768-.291.094-.039.188-.078.279-.119.319-.144.63-.297.923-.467l147.662-85.812.119-.07c.09-.054.168-.113.254-.169.119-.078.241-.154.352-.235.097-.07.183-.144.274-.216.102-.082.207-.164.301-.248.018-.017.041-.032.059-.049.038-.035.064-.073.101-.109a5.59 5.59 0 0 0 .417-.449c.027-.033.064-.064.09-.097.026-.033.043-.068.068-.101.084-.113.159-.227.23-.342.03-.048.069-.095.097-.143.014-.025.022-.051.036-.076a3.84 3.84 0 0 0 .143-.306c.026-.059.061-.118.083-.177.008-.021.011-.042.018-.062.035-.098.059-.196.085-.294.017-.066.043-.131.057-.197.004-.018.003-.036.006-.054.019-.103.026-.207.036-.311.006-.067.021-.133.023-.2l.001-.087.497-175.218c0 .091-.016.187-.024.283z" fill="#f4f6f8"/><g><defs><path id="h" d="M426.444 122.475c-.009.104-.017.207-.035.311-.015.084-.041.167-.063.251-.026.099-.05.197-.085.295-.028.08-.066.159-.101.239-.045.103-.089.206-.144.307-.04.073-.087.146-.132.218a4.48 4.48 0 0 1-.39.542 5.738 5.738 0 0 1-.416.448c-.054.053-.104.107-.161.158-.093.084-.197.165-.298.246-.091.073-.179.147-.277.219-.109.08-.23.156-.348.232-.124.081-.242.164-.375.241l-147.662 85.812c-.293.17-.604.323-.923.467-.092.042-.186.08-.28.12a12.04 12.04 0 0 1-.767.291c-.095.032-.188.067-.285.098-.166.052-.335.098-.505.144-.129.035-.256.072-.386.104-.179.043-.362.079-.544.116-.123.025-.245.053-.369.075-.368.065-.742.116-1.118.156-.115.012-.231.019-.347.029-.222.019-.445.035-.668.044-.141.006-.282.009-.422.012a16.484 16.484 0 0 1-1.942-.073 16.147 16.147 0 0 1-1.453-.208c-.136-.026-.272-.052-.406-.082-.207-.045-.41-.096-.612-.15-.112-.03-.224-.057-.334-.089-.359-.105-.71-.222-1.05-.354-.05-.019-.096-.042-.146-.062a10.628 10.628 0 0 1-1.319-.632l-.497 175.218c.413.238.857.445 1.319.632.031.013.057.03.089.042l.056.019c.34.132.69.25 1.05.354.028.008.054.02.082.028.083.023.169.04.253.062.202.053.405.105.612.15.053.012.104.028.158.039.082.017.166.028.248.043.173.033.345.063.52.09.069.011.136.026.205.036.078.011.158.017.236.026.163.021.325.039.489.055.077.007.153.019.23.026.074.006.15.007.224.012.166.012.333.02.5.027.082.003.163.011.245.013.067.002.135-.002.202-.001.181.002.362.001.543-.003.088-.002.176.002.264-.001.053-.002.106-.008.159-.011.223-.01.445-.026.667-.044.089-.007.178-.009.266-.018.028-.003.055-.009.082-.011.377-.039.75-.091 1.117-.156.018-.003.037-.004.055-.008.107-.019.21-.046.316-.067.182-.037.365-.073.543-.116.13-.031.256-.068.384-.103.17-.046.34-.092.507-.145l.11-.031c.06-.02.115-.046.174-.066.262-.089.518-.186.768-.291.094-.039.188-.078.279-.119.319-.144.63-.297.923-.467l147.662-85.812.119-.07c.09-.054.168-.113.254-.169.119-.078.241-.154.352-.235.097-.07.183-.144.274-.216.102-.082.207-.164.301-.248.018-.017.041-.032.059-.049.038-.035.064-.073.101-.109a5.59 5.59 0 0 0 .417-.449c.027-.033.064-.064.09-.097.026-.033.043-.068.068-.101.084-.113.159-.227.23-.342.03-.048.069-.095.097-.143.014-.025.022-.051.036-.076a3.84 3.84 0 0 0 .143-.306c.026-.059.061-.118.083-.177.008-.021.011-.042.018-.062.035-.098.059-.196.085-.294.017-.066.043-.131.057-.197.004-.018.003-.036.006-.054.019-.103.026-.207.036-.311.006-.067.021-.133.023-.2l.001-.087.497-175.218c0 .091-.016.187-.024.283z"/></defs><clipPath id="i"><use xlink:href="#h" overflow="visible"/></clipPath><linearGradient id="j" gradientUnits="userSpaceOnUse" x1="340.966" y1="102.311" x2="340.966" y2="266.317"><stop offset="0" stop-color="#d7dbdf"/><stop offset=".689" stop-color="#e3e6e9"/><stop offset="1" stop-color="#e8ebee"/></linearGradient><path d="M264.966 180.086l-.075 174.84s-.696 9.346 14.769 4.361c15.465-4.984 137.387-82.631 137.387-82.631V92.129l-152.081 87.957z" clip-path="url(#i)" fill="url(#j)"/></g><linearGradient id="k" gradientUnits="userSpaceOnUse" x1="-79.174" y1="857.685" x2="-79.174" y2="941.531" gradientTransform="rotate(20.215 1715.13 972.95)"><stop offset="0" stop-color="#a1a7ab"/><stop offset="1" stop-color="#d7dbdf"/></linearGradient><path d="M28 290.792c3.787 17.661 12.42 17.235 50.76-17.492 8.577 26.74-14.672 57.008-50.76 17.492z" fill="url(#k)"/></svg>