<svg width="118" height="156" viewBox="0 0 118 156" xmlns="http://www.w3.org/2000/svg" xmlns:xlink="http://www.w3.org/1999/xlink"><defs><path d="M0 35.803v1.918c0 5.115.638 8.738 1.914 10.87 1.913 3.196 5.102 9.59 15.945 8.95 7.23-.426 12.332-3.41 15.309-8.95v7.032l28.702.64-6.378-7.673V14.705c0-1.279-.85-2.557-2.551-3.836L22.324 0 0 35.803z" id="a"/></defs><g fill="none" fill-rule="evenodd"><ellipse fill="#C4E5FE" cx="61.87" cy="147.369" rx="56.13" ry="8.631"/><path d="M52.86 64.606c-.434 3.186.23 6.372 1.994 9.558-5.347 0-8.452-2.546-9.317-7.637a43.704 43.704 0 0 1-7.267.604C17.134 67.131 0 52.103 0 33.566 0 15.028 17.134 0 38.27 0c21.136 0 38.27 15.028 38.27 33.566 0 14.006-9.782 26.01-23.68 31.04z" fill="#F8F8F8"/><g transform="translate(31.892 93.344)"><mask id="b" fill="#fff"><use xlink:href="#a"/></mask><use fill="#01BCEE" xlink:href="#a"/><path d="M41.46 5.754c3.401.426 5.102 2.984 5.102 7.672 0 4.689-.212 15.984-.638 33.885l5.103 8.312 12.757 7.033.638-20.46-7.017-36.442H41.46z" fill="#0FA8D1" mask="url(#b)"/></g><path fill="#F0B784" d="M50.39 88.869l12.756-14.066L73.35 78.64l-11.48 14.066z"/><path d="M65.697 69.05c-2.976 5.966-4.252 11.507-3.827 16.622.638 7.672 10.206 8.312 14.67 6.394 2.977-1.28 5.316-4.05 7.017-8.312l3.189-2.74V78L72.714 65.852l-7.017 3.197z" fill="#FED4A1"/><path d="M65.06 70.328c0-8.312 3.189-15.344 14.67-14.066 11.48 1.279 12.756 18.541 12.756 19.18 0 .427.85.64 2.552.64-1.701 3.41-4.89 4.262-9.568 2.557-4.677-1.705-8.93-5.317-12.756-10.837-1.701 1.684-4.253 2.526-7.655 2.526z" fill="#4B4D59"/><path d="M80.368 91.426c1.275-2.13 2.764-3.196 4.464-3.196 1.701 0 2.977.426 3.827 1.278l2.552 1.918c3.402 1.705 5.74 3.197 7.016 4.476 1.914 1.918 1.914 3.836.638 6.393-.85 1.705-2.977 2.557-6.379 2.557L80.368 97.82v-6.394z" fill="#F0B784"/><path d="M65.06 98.459c12.756 5.541 19.985 8.311 21.686 8.311 2.551 0 6.378 0 7.016-4.155.638-4.156.638-6.713-5.103-8.631-3.827-1.28-9.354-3.41-16.583-6.394L65.059 98.46z" fill="#FED4A1"/><path d="M72.714 90.23c-6.379-5.115-10.844-7.885-13.395-8.311-3.827-.64-8.93.721-12.119 3.836-3.19 3.114-12.119 15.261-14.67 28.13-1.701 8.58-2.339 14.334-1.914 17.263h12.757c2.551 0 7.441-5.355 14.67-16.066l14.67-24.852z" fill="#0299E8"/><path d="M79.517 95.902c3.402.426 5.528 0 6.378-1.279.85-1.279 2.127-1.918 3.828-1.918l-7.017-3.836c-2.126.959-3.614 2.158-4.465 3.596-.85 1.439-.425 2.584 1.276 3.437z" fill="#F0B784"/><ellipse fill="#C9E4FA" cx="19.135" cy="35.164" rx="3.189" ry="3.197"/><ellipse fill="#C9E4FA" cx="38.27" cy="35.164" rx="3.189" ry="3.197"/><ellipse fill="#C9E4FA" cx="57.405" cy="35.164" rx="3.189" ry="3.197"/></g></svg>